<svg xmlns="http://www.w3.org/2000/svg" width="115px" height="145px" viewBox="0 0 115.176 145.188">
  <g transform="translate(-898.41 -8597.705)">
    <path
      d="M338.048-1443.79h-3.2a.136.136,0,0,0-.139.149c0,.049.065.1.139.1h3.2c.079,0,.144-.05.144-.1A.137.137,0,0,0,338.048-1443.79Z"
      transform="translate(613.437 10134.922)" fill="#fff"/>
    <path
      d="M331.934-1433.912a3.264,3.264,0,0,0,2.645,3.772l37,6.5a3.216,3.216,0,0,0,3.777-2.631l.213-1.24a3.291,3.291,0,0,0-2.645-3.772l-37-6.5a3.251,3.251,0,0,0-3.777,2.63Z"
      transform="translate(602.246 10158.541)" fill="#fff"/>
    <path
      d="M331.934-1435.763a3.238,3.238,0,0,0,2.645,3.771l37,6.551a3.287,3.287,0,0,0,3.777-2.679l.213-1.191a3.238,3.238,0,0,0-2.645-3.771l-37-6.551a3.287,3.287,0,0,0-3.777,2.679Z"
      transform="translate(602.246 10151.211)" fill="#fff"/>
    <path
      d="M331.934-1437.592a3.29,3.29,0,0,0,2.645,3.772l37,6.5a3.251,3.251,0,0,0,3.777-2.63l.213-1.24a3.238,3.238,0,0,0-2.645-3.772l-37-6.5a3.216,3.216,0,0,0-3.777,2.631Z"
      transform="translate(602.246 10143.91)" fill="#fff"/>
    <path
      d="M333.915-1433.974c0,5.608,5.35,10.124,11.955,10.124,5.642,0,10.372-3.325,11.622-7.742L334.1-1435.76A9.1,9.1,0,0,0,333.915-1433.974Z"
      transform="translate(610.294 10166.742)" fill="#fff"/>
    <path
      d="M357.249-1384.734a14.646,14.646,0,0,1-9.067-2.978c-2.764.695-9.736,1.738-15.627-3.275-4.913-4.218-6.918-9.925-6.129-17.418a14.108,14.108,0,0,1,5.384-9.329,14.922,14.922,0,0,1,7.469-3.176c0-2.283.412-5.757,2.546-8.288a8.708,8.708,0,0,1,6.992-3.027c3.523-.05,9.439,1.191,9.617,10.074a2.027,2.027,0,0,1-2.02,2.085,2.057,2.057,0,0,1-2.1-1.986c-.089-4.317-1.722-6.1-5.439-6.054a4.926,4.926,0,0,0-3.891,1.538c-1.8,2.134-1.672,6.1-1.469,7.444a2.037,2.037,0,0,1-.561,1.737,2.006,2.006,0,0,1-1.717.6,9.572,9.572,0,0,0-6.838,2.283,10.05,10.05,0,0,0-3.861,6.55c-.655,6.2.794,10.471,4.709,13.846,5.5,4.714,12.426,2.282,12.719,2.133a2.2,2.2,0,0,1,2.119.447,10.755,10.755,0,0,0,8.451,2.63c3.662-.348,7.161-2.183,8.918-4.616,4.352-6,3.806-13.945,3.8-14.045a1.439,1.439,0,0,1-.005-.148v-49.725a2.079,2.079,0,0,1,2.06-2.084,2.08,2.08,0,0,1,2.064,2.084v49.675c.064.992.442,9.726-4.576,16.674-2.461,3.423-7.007,5.805-11.87,6.253C358.361-1384.784,357.805-1384.734,357.249-1384.734Z"
      transform="translate(579.962 10072.592)" fill="#fff"/>
    <path
      d="M334.72-1410.189a1.365,1.365,0,0,1-.442-.049c-3.32-.744-9.592-4.565-9.592-13.8a13.99,13.99,0,0,1,7.225-12.406,14,14,0,0,1-3.494-6.6c-.685-3.423.164-6.9,2.526-10.371,2.774-4.069,9.334-6.054,15.26-4.615,5.141,1.241,8.441,4.665,9.052,9.479a2.083,2.083,0,0,1-1.787,2.332,2.052,2.052,0,0,1-2.308-1.786c-.521-4.119-3.94-5.558-5.925-6.054-4.2-.993-9.086.347-10.883,2.978a9.391,9.391,0,0,0-1.891,7.2c.769,3.97,4.466,6.451,4.506,6.5a2.025,2.025,0,0,1,.883,2.133,2.036,2.036,0,0,1-1.677,1.589,9.619,9.619,0,0,0-7.359,9.627c0,8.288,6.288,9.727,6.347,9.776a2.043,2.043,0,0,1,1.573,2.431A2.053,2.053,0,0,1,334.72-1410.189Z"
      transform="translate(573.724 10076.657)" fill="#fff"/>
    <path
      d="M354.045-1428.045a12.9,12.9,0,0,1-1.394-.1,8.7,8.7,0,0,1-7.727-7.344c-.719-4.119,1.072-8.287,4.258-9.925a7.523,7.523,0,0,1,6.178-.695,6.8,6.8,0,0,1,3.8,3.622,2.046,2.046,0,0,1-1.1,2.68,2.06,2.06,0,0,1-2.695-1.092,2.9,2.9,0,0,0-1.444-1.34,3.742,3.742,0,0,0-2.854.5c-1.563.794-2.471,3.226-2.074,5.509a4.6,4.6,0,0,0,4.179,4.02,9.03,9.03,0,0,0,7.176-2.78c3.5-3.274,5.464-8.684,5.131-14.044a9.69,9.69,0,0,0-6.143-8.635c-3.241-1.29-7-.992-8.938.745a6.269,6.269,0,0,0-2.01,5.756,2.079,2.079,0,0,1-.953,2.283,2.113,2.113,0,0,1-2.442-.248c-.164-.149-4.218-3.673-9.032-1.092-2.362,1.29-4.571,5.409-4.03,9.875a2.1,2.1,0,0,1-1.8,2.332,2.115,2.115,0,0,1-2.3-1.836c-.695-5.707,1.96-11.712,6.173-13.994a11.5,11.5,0,0,1,10.377-.447,10.289,10.289,0,0,1,3.24-5.657c3.156-2.879,8.486-3.474,13.265-1.539a13.646,13.646,0,0,1,8.709,12.208,22.016,22.016,0,0,1-6.426,17.319A13.572,13.572,0,0,1,354.045-1428.045Z"
      transform="translate(585.737 10060.321)" fill="#fff"/>
    <path
      d="M357.184-1432.041a2.007,2.007,0,0,1-.541-.049,2.064,2.064,0,0,1-1.449-2.531c.506-1.886,1.479-7.395-.1-10.074a2.63,2.63,0,0,0-1.762-1.341c-2.025-.545-3.548-.247-4.526.794a5.185,5.185,0,0,0-1.131,4.368,2.039,2.039,0,0,1-1.32,2.53,2.07,2.07,0,0,1-2.59-1.24c-.174-.447-1.861-4.566-5.985-3.921a4.24,4.24,0,0,0-3.573,3.573,3.32,3.32,0,0,0,1.151,3.474,2.086,2.086,0,0,1,.789,2.828,2.019,2.019,0,0,1-2.809.745,7.291,7.291,0,0,1-3.2-7.791,8.293,8.293,0,0,1,6.987-6.9,8.6,8.6,0,0,1,7.111,1.886,8.509,8.509,0,0,1,1.573-2.432c1.429-1.489,4.064-3.027,8.516-1.935a6.745,6.745,0,0,1,4.327,3.275c2.734,4.665.759,12.357.521,13.2A2.05,2.05,0,0,1,357.184-1432.041Z"
      transform="translate(594.781 10108.633)" fill="#fff"/>
    <path
      d="M354.573-1384.734c-.551,0-1.112-.05-1.677-.1-4.863-.447-9.409-2.829-11.87-6.253-5.017-6.948-4.64-15.682-4.575-16.674v-49.675a2.08,2.08,0,0,1,2.064-2.084,2.08,2.08,0,0,1,2.064,2.084v49.725a1.446,1.446,0,0,1-.01.148c0,.1-.521,8.089,3.8,14.045,1.757,2.432,5.26,4.268,8.918,4.616a10.749,10.749,0,0,0,8.451-2.63,1.981,1.981,0,0,1,2.129-.4c.288.1,7.21,2.53,12.714-2.183,3.911-3.375,5.365-7.643,4.71-13.846a10.091,10.091,0,0,0-3.861-6.55,9.6,9.6,0,0,0-6.843-2.283,2.022,2.022,0,0,1-1.722-.6,2.016,2.016,0,0,1-.551-1.737c.2-1.34.323-5.31-1.474-7.444a4.919,4.919,0,0,0-3.891-1.538H362.8c-3.613,0-5.2,1.787-5.28,6.054a2.046,2.046,0,0,1-2.109,1.986,2.03,2.03,0,0,1-2.02-2.085c.184-8.883,6.079-10.124,9.617-10.074A8.708,8.708,0,0,1,370-1429.2c2.134,2.531,2.546,6,2.546,8.288a14.9,14.9,0,0,1,7.469,3.176,14.089,14.089,0,0,1,5.384,9.329c.789,7.494-1.216,13.2-6.129,17.418-5.886,5.013-12.858,3.97-15.627,3.275A14.646,14.646,0,0,1,354.573-1384.734Z"
      transform="translate(620.211 10072.592)" fill="#fff"/>
    <path
      d="M362.283-1410.189a2.053,2.053,0,0,1-2.015-1.637,2.048,2.048,0,0,1,1.558-2.431c.3-.1,6.367-1.638,6.362-9.776a9.619,9.619,0,0,0-7.359-9.627,2.03,2.03,0,0,1-1.677-1.589,2.116,2.116,0,0,1,.893-2.183c.03,0,3.727-2.481,4.5-6.451a9.4,9.4,0,0,0-1.9-7.2c-1.8-2.631-6.68-3.97-10.878-2.978-1.99.5-5.4,1.935-5.93,6.054a2.052,2.052,0,0,1-2.307,1.786,2.087,2.087,0,0,1-1.787-2.332c.61-4.814,3.911-8.238,9.057-9.479,5.925-1.439,12.481.546,15.255,4.615,2.367,3.474,3.216,6.948,2.526,10.371a13.957,13.957,0,0,1-3.494,6.6,13.99,13.99,0,0,1,7.225,12.406c0,9.23-6.273,13.052-9.588,13.8A1.394,1.394,0,0,1,362.283-1410.189Z"
      transform="translate(641.268 10076.657)" fill="#fff"/>
    <path
      d="M352.014-1428.045a13.562,13.562,0,0,1-9.121-3.92,22.02,22.02,0,0,1-6.432-17.319,13.647,13.647,0,0,1,8.709-12.208c4.779-1.935,10.114-1.34,13.265,1.539a10.332,10.332,0,0,1,3.245,5.657,11.494,11.494,0,0,1,10.372.447c4.213,2.282,6.868,8.287,6.173,13.994a2.112,2.112,0,0,1-2.3,1.836,2.1,2.1,0,0,1-1.8-2.332c.546-4.466-1.668-8.585-4.03-9.875-4.873-2.581-8.987,1.042-9.032,1.092a2.106,2.106,0,0,1-2.437.248,2.079,2.079,0,0,1-.953-2.283,6.342,6.342,0,0,0-2.01-5.756c-1.94-1.737-5.7-2.035-8.942-.745a9.7,9.7,0,0,0-6.144,8.635c-.333,5.359,1.633,10.769,5.136,14.044a9.02,9.02,0,0,0,7.171,2.78,4.6,4.6,0,0,0,4.179-4.02c.4-2.283-.506-4.714-2.069-5.509a3.756,3.756,0,0,0-2.858-.5,2.915,2.915,0,0,0-1.444,1.34,2.018,2.018,0,0,1-2.7,1.092,2.024,2.024,0,0,1-1.092-2.68,6.781,6.781,0,0,1,3.791-3.622,7.533,7.533,0,0,1,6.183.695c3.186,1.638,4.972,5.806,4.253,9.925a8.7,8.7,0,0,1-7.727,7.344A12.9,12.9,0,0,1,352.014-1428.045Z"
      transform="translate(620.204 10060.321)" fill="#fff"/>
    <path
      d="M339.418-1432.041a2.05,2.05,0,0,1-1.99-1.539c-.233-.843-2.213-8.535.526-13.2a6.736,6.736,0,0,1,4.322-3.275c4.451-1.092,7.091.447,8.516,1.935a8.528,8.528,0,0,1,1.578,2.432,8.589,8.589,0,0,1,7.111-1.886,8.288,8.288,0,0,1,6.982,6.9,7.288,7.288,0,0,1-3.191,7.791,2.017,2.017,0,0,1-2.809-.745,2.08,2.08,0,0,1,.784-2.828,3.322,3.322,0,0,0,1.156-3.474,4.246,4.246,0,0,0-3.578-3.573c-4.114-.645-5.806,3.474-5.985,3.921a2.089,2.089,0,0,1-2.6,1.24,2.046,2.046,0,0,1-1.31-2.53,5.18,5.18,0,0,0-1.127-4.368c-.978-1.042-2.5-1.34-4.526-.794a2.629,2.629,0,0,0-1.767,1.341c-1.583,2.679-.576,8.287-.1,10.024a2.1,2.1,0,0,1-1.454,2.581A2.007,2.007,0,0,1,339.418-1432.041Z"
      transform="translate(620.611 10108.633)" fill="#fff"/>
    <path
      d="M338.486-1435.3a2.043,2.043,0,0,1-2.064-2.034c-.035-7.395-.06-12.7,2.61-15.384a5.789,5.789,0,0,1,4.352-1.687,6.72,6.72,0,0,1,6.967,6.848,2.079,2.079,0,0,1-2.059,2.085,2.09,2.09,0,0,1-2.064-2.085,2.6,2.6,0,0,0-2.844-2.729,1.873,1.873,0,0,0-1.424.447c-1.459,1.489-1.439,6.848-1.414,12.456a2.068,2.068,0,0,1-2.055,2.084Z"
      transform="translate(620.198 10092.839)" fill="#fff"/>
    <path
      d="M340.881-1423.681h-.342a2.073,2.073,0,0,1-1.7-2.382c.069-.447,1.881-10.62,13.831-18.312a2.06,2.06,0,0,1,2.854.645,2.034,2.034,0,0,1-.625,2.828c-10.421,6.7-11.97,15.434-11.984,15.483A2.046,2.046,0,0,1,340.881-1423.681Z"
      transform="translate(629.704 10131.339)" fill="#fff"/>
    <path
      d="M343.334-1429.592a2.033,2.033,0,0,1-1.911-1.241c-.04-.1-2.943-6.947-9.751-9.925a2.028,2.028,0,0,1-1.072-2.679,2.08,2.08,0,0,1,2.714-1.092c8.407,3.623,11.791,11.761,11.93,12.109a2.048,2.048,0,0,1-1.136,2.679A2.116,2.116,0,0,1,343.334-1429.592Z"
      transform="translate(596.488 10131.345)" fill="#fff"/>
    <path
      d="M337.773-1430.688h0a1.269,1.269,0,0,1-1.29-1.29c0-.248.04-6.451,3.449-11.265a1.334,1.334,0,0,1,1.8-.3,1.28,1.28,0,0,1,.308,1.787c-2.923,4.168-2.973,9.726-2.973,9.776A1.272,1.272,0,0,1,337.773-1430.688Z"
      transform="translate(620.47 10135.021)" fill="#fff"/>
    <path
      d="M340.657-1442.25a1.338,1.338,0,0,0-1.34,1.34,1.338,1.338,0,0,0,1.34,1.34,1.338,1.338,0,0,0,1.34-1.34A1.338,1.338,0,0,0,340.657-1442.25Zm0,5.261a3.913,3.913,0,0,1-3.921-3.921,3.945,3.945,0,0,1,3.921-3.919,3.941,3.941,0,0,1,3.92,3.919A3.909,3.909,0,0,1,340.657-1436.989Z"
      transform="translate(621.476 10130.801)" fill="#fff"/>
    <path
      d="M339.431-1430.688a1.272,1.272,0,0,1-1.29-1.29c0-.05-.05-5.608-2.973-9.776a1.281,1.281,0,0,1,.308-1.787,1.334,1.334,0,0,1,1.8.3c3.409,4.814,3.449,11.017,3.449,11.265A1.269,1.269,0,0,1,339.431-1430.688Z"
      transform="translate(614.321 10135.021)" fill="#fff"/>
    <path
      d="M338.184-1442.25a1.338,1.338,0,0,0-1.34,1.34,1.338,1.338,0,0,0,1.34,1.34,1.338,1.338,0,0,0,1.34-1.34A1.338,1.338,0,0,0,338.184-1442.25Zm0,5.261a3.913,3.913,0,0,1-3.92-3.921,3.944,3.944,0,0,1,3.92-3.919,3.941,3.941,0,0,1,3.92,3.919A3.91,3.91,0,0,1,338.184-1436.989Z"
      transform="translate(611.677 10130.801)" fill="#fff"/>
    <path
      d="M336.2-1444.33a1.439,1.439,0,0,0-1.434,1.439,1.439,1.439,0,0,0,1.434,1.439,1.439,1.439,0,0,0,1.434-1.439A1.439,1.439,0,0,0,336.2-1444.33Z"
      transform="translate(613.662 10132.783)" fill="#fff"/>
    <path
      d="M338.672-1444.33a1.439,1.439,0,0,0-1.434,1.439,1.439,1.439,0,0,0,1.434,1.439,1.439,1.439,0,0,0,1.434-1.439A1.439,1.439,0,0,0,338.672-1444.33Z"
      transform="translate(623.462 10132.783)" fill="#fff"/>
  </g>
</svg>
