<?xml version="1.0" encoding="utf-8"?>
<!-- Generator: Adobe Illustrator 21.1.0, SVG Export Plug-In . SVG Version: 6.00 Build 0)  -->
<svg version="1.1" id="Layer_1" xmlns="http://www.w3.org/2000/svg" xmlns:xlink="http://www.w3.org/1999/xlink" x="0px" y="0px"
	 viewBox="0 0 25.3 15.4" height="15px" width="25px" style="enable-background:new 0 0 25.3 15.4;" xml:space="preserve">
<g id="car" transform="translate(-517 -8016.404)">
	<path id="Path_676" style="fill:#E271AC;" d="M541.9,8026c-0.8-2.1-2.7-3.6-4.9-4c-0.8-0.2-1.4-0.6-1.8-1.3
		c-3.8-5.8-12-5.1-15.2-1.6c-2.1,2.3-2.8,5.1-2.9,8.1c0,0.9,0.6,1.4,1.5,1.4c0.8-2.5,1.9-3.5,4-3.4c2,0,3.1,1,3.8,3.4h5.9
		c0.5-2.2,1.7-3.3,3.4-3.4c2.2-0.2,3.3,0.7,4.4,3.4C542.2,8028.8,542.7,8028.1,541.9,8026z M523.1,8022.4c-0.7,0-1.4,0-2.1,0
		c-0.9,0-1.3-0.5-0.9-1.4c1-2,3-3.3,5.2-3.5c0.3,0,0.8,0.4,1,0.8c0.1,0.1,0.1,0.5,0.1,0.7C526.5,8022.8,526.8,8022.4,523.1,8022.4z
		 M534,8022.4c-0.9,0-1.8,0-2.7,0v0c-0.9,0-1.7,0-2.6,0c-0.6,0.1-1.2-0.4-1.2-1c0-0.1,0-0.2,0-0.3c0-0.9,0-1.7,0-2.6
		c0-0.8,0.5-1.2,1.3-1.1c2.4,0.4,4.5,1.8,5.8,3.9C534.9,8022,534.7,8022.4,534,8022.4L534,8022.4z M522.4,8025.8
		c-1.6-0.1-3,1.1-3.1,2.7c0,0.1,0,0.2,0,0.3c0,1.6,1.4,3,3,3c1.7,0,3-1.3,3.1-3c0,0,0-0.1,0-0.1c0.1-1.6-1.2-2.9-2.7-2.9
		C522.6,8025.8,522.5,8025.8,522.4,8025.8L522.4,8025.8z M522.4,8030.3c-0.8,0-1.5-0.7-1.5-1.5c0-0.8,0.7-1.5,1.5-1.5c0,0,0,0,0,0
		c0.8,0,1.5,0.7,1.5,1.5C523.9,8029.6,523.2,8030.3,522.4,8030.3L522.4,8030.3z M536,8025.8c-1.6-0.1-3,1.1-3.1,2.7
		c0,0.1,0,0.1,0,0.2c0,1.7,1.3,3.1,3,3.1c0,0,0,0,0.1,0c1.7,0,3.1-1.4,3.1-3.1C539,8027,537.6,8025.7,536,8025.8L536,8025.8z
		 M536,8030.3c-0.8,0-1.5-0.7-1.5-1.5c0-0.8,0.7-1.5,1.5-1.5c0,0,0,0,0,0c0.8,0,1.5,0.7,1.5,1.5
		C537.5,8029.6,536.9,8030.3,536,8030.3L536,8030.3z"/>
</g>
</svg>
