<svg xmlns="http://www.w3.org/2000/svg" width="159px" height="159px" viewBox="0 0 159.253 159.252">
  <g transform="translate(-182.29 -5519.821)">
    <path
      d="M194.1,11.278h-5.765L179.744,15.8a12.75,12.75,0,0,0-3.058-1.258l-10.809-2.7V10.607a18.017,18.017,0,0,0,7.7-14.724V-8.6c0-9.967-7.81-18.308-17.409-18.6-.487-.012-.967.005-1.449.029l2.8-6.56L143.935-47.315,135.926-42.1a43.423,43.423,0,0,0-9.6-3.984l-1.978-9.344H104.791l-1.978,9.347a43.336,43.336,0,0,0-9.6,3.984L85.2-47.312,71.625-33.737l2.754,6.566c-.1,0-.205-.024-.311-.026a17.829,17.829,0,0,0-13.056,5.062A17.8,17.8,0,0,0,55.555-9.248v5.132a18.012,18.012,0,0,0,7.7,14.722v1.231L56.2,13.6,43.422,6.146H35.03V59.31l25.241,8.413h4.916l.614-2.15,7.737,4.644a7.988,7.988,0,0,0,7.7,7.74,7.987,7.987,0,0,0,7.7,7.7,7.987,7.987,0,0,0,7.7,7.7,8,8,0,0,0,7.979,7.726,8.084,8.084,0,0,0,4.5-1.391l2.272,2.007a7.81,7.81,0,0,0,5.163,1.95h.475a7.812,7.812,0,0,0,7.8-7.707,7.8,7.8,0,0,0,7.7-7.7,7.8,7.8,0,0,0,7.7-7.7,7.889,7.889,0,0,0,7.707-7.872,7.541,7.541,0,0,0-.039-.769L194.1,48.784ZM168.445-8.6v4.485a12.879,12.879,0,0,1-6.422,11.1l-1.283.742.01,8.119,12.818,3.2L145.354,33.9V26.988a12.766,12.766,0,0,0-3.674-8.941l8.806-2.2V7.721l-1.281-.74a12.866,12.866,0,0,1-6.417-11.1V-9.248a12.719,12.719,0,0,1,3.9-9.207,12.653,12.653,0,0,1,9.328-3.613C162.868-21.863,168.445-15.821,168.445-8.6ZM118.434,31.882,106.82,28.17a31.689,31.689,0,0,0-16.44-.749l-1.471.326v-.759a7.691,7.691,0,0,1,5.83-7.469l14.7-3.672V7.721l-1.28-.74a12.865,12.865,0,0,1-6.417-11.1V-9.248a12.719,12.719,0,0,1,3.9-9.207,12.684,12.684,0,0,1,9.328-3.613c6.854.205,12.431,6.248,12.431,13.467v4.485a12.879,12.879,0,0,1-6.422,11.1l-1.283.742.01,8.119,14.694,3.672a7.691,7.691,0,0,1,5.83,7.469V36.6l-.634.333h-1.572l-15.774-4.507A16.163,16.163,0,0,0,118.434,31.882ZM89.484-17.03a28.308,28.308,0,0,1,25.082-15.309,28.354,28.354,0,0,1,24.976,15.1,17.844,17.844,0,0,0-1.885,7.989v5.132a18.012,18.012,0,0,0,7.7,14.722v1.231l-10.263,2.569-10.265-2.569V10.607a18.016,18.016,0,0,0,7.7-14.724V-8.6c0-9.967-7.81-18.308-17.408-18.6a17.825,17.825,0,0,0-13.056,5.062,17.813,17.813,0,0,0-5.454,12.89v5.132A18.01,18.01,0,0,0,104.3,10.6v1.231L94.041,14.406,83.775,11.836V10.607a18.017,18.017,0,0,0,7.7-14.724V-8.6A18.912,18.912,0,0,0,89.484-17.03Zm-11.8-15.517,8.2-8.2,7.215,4.7,1.381-.847A38.288,38.288,0,0,1,105.586-41.5l1.579-.378L108.95-50.3h11.235l1.78,8.415,1.579.377A38.323,38.323,0,0,1,134.653-36.9l1.381.847,7.215-4.7,8.187,8.189-2.91,6.814a17.933,17.933,0,0,0-5.416,3.6c-.105.1-.2.213-.3.318A33.507,33.507,0,0,0,114.566-37.47a33.467,33.467,0,0,0-28.343,15.8,18.1,18.1,0,0,0-5.66-4.012Zm-9.3,48.394V7.721L67.1,6.981a12.866,12.866,0,0,1-6.416-11.1V-9.248a12.719,12.719,0,0,1,3.9-9.207,12.665,12.665,0,0,1,9.328-3.613c6.854.205,12.431,6.248,12.431,13.467v4.485a12.878,12.878,0,0,1-6.422,11.1l-1.283.742.01,8.119,8.8,2.2a12.766,12.766,0,0,0-3.674,8.941v1.9l-8,1.779.208-.727.1-4.741L62.549,17.3ZM40.161,11.278h1.87L60.483,22.04,51.173,59.281,40.161,55.61ZM61.1,62.591l-5.05-1.682L65.1,24.732l5.852,3.413v.733L61.318,62.591Zm17.544,7.387a2.9,2.9,0,0,1,.842-2.035L84,63.433A2.877,2.877,0,0,1,88.067,67.5l-4.51,4.51a2.878,2.878,0,0,1-4.911-2.035Zm7.7,7.7a2.9,2.9,0,0,1,.842-2.035l4.51-4.51A2.877,2.877,0,0,1,95.764,75.2l-4.51,4.51a2.877,2.877,0,0,1-4.911-2.035Zm7.7,7.7a2.9,2.9,0,0,1,.842-2.035l4.51-4.51a2.877,2.877,0,0,1,4.069,4.069l-4.51,4.51a2.877,2.877,0,0,1-4.911-2.035Zm10.573,10.573a2.877,2.877,0,0,1-2.035-4.911l4.51-4.51a2.877,2.877,0,0,1,4.069,4.069l-4.51,4.51A2.9,2.9,0,0,1,104.614,95.945Zm12.407,2.566h-.475a2.66,2.66,0,0,1-1.768-.67l-1.919-1.692,1.927-1.927a7.977,7.977,0,0,0,1.616-2.384l2.333,1.942a2.676,2.676,0,0,1-1.714,4.732ZM140.03,75.42h-.444a2.753,2.753,0,0,1-1.765-.641L123.908,63.184l-3.287,3.944,13.511,11.258a2.678,2.678,0,0,1-1.716,4.731h-.56a2.674,2.674,0,0,1-1.711-.621L116.209,70.883l-3.287,3.944,13.511,11.259a2.674,2.674,0,0,1-1.714,4.728,4.237,4.237,0,0,1-2.7-.977l-5.726-4.773A7.98,7.98,0,0,0,109.4,80.58a7.988,7.988,0,0,0-7.7-7.7,7.987,7.987,0,0,0-7.7-7.7,7.989,7.989,0,0,0-13.639-5.38l-4.51,4.51a7.894,7.894,0,0,0-.719.878L67.26,60.464l6.909-24.181L91.49,32.432a26.434,26.434,0,0,1,13.765.622l3.78,1.209L96.222,40.67a8.553,8.553,0,0,0-4.747,7.687v.507a8.592,8.592,0,0,0,13.017,7.369l9.553-5.729a5.3,5.3,0,0,1,6.153.593l21.678,19.509a2.761,2.761,0,0,1-1.845,4.813Zm48.941-29.808L145.747,67.226c-.14-.149-.287-.291-.441-.429L123.631,47.288A10.324,10.324,0,0,0,111.4,46.105l-9.557,5.731a3.46,3.46,0,0,1-5.239-2.971v-.507a3.442,3.442,0,0,1,1.914-3.1L112.832,38.1a11.151,11.151,0,0,1,8-.742l16.123,4.605,3.905.1,48.114-25.324Z"
      transform="translate(147.351 5575.341)" fill="#fff" stroke="#a2cf60" stroke-linejoin="round" stroke-width="0.18"/>
  </g>
</svg>
