<svg xmlns="http://www.w3.org/2000/svg" width="30px" height="30px" viewBox="0 0 30.336 30.336">
  <path id="Path_642" data-name="Path 642" d="M.237-42.49a15.206,15.206,0,0,0,15.23,15.227A15.217,15.217,0,0,0,30.572-42.455,15.188,15.188,0,0,0,15.387-57.6,15.218,15.218,0,0,0,.237-42.49Zm28.6.1A13.449,13.449,0,0,1,15.391-29,13.445,13.445,0,0,1,1.977-42.455a13.5,13.5,0,0,1,13.49-13.4A13.457,13.457,0,0,1,28.832-42.392Zm-15.005-.576a1.517,1.517,0,0,0-.055.4,1.56,1.56,0,0,0,1.581,1.6,1.621,1.621,0,0,0,1.31-.673,1.274,1.274,0,0,1,.142-.19h.024q4.9.01,9.8,0h.278a.223.223,0,0,0,.222-.222v-.7a.223.223,0,0,0-.222-.222h-.256q-4.863,0-9.722,0h-.01s-.035-.1-.083-.211a1.615,1.615,0,0,0-1.456-.974,1.566,1.566,0,0,0-.423.059.409.409,0,0,1-.371-.08q-1.768-1.716-3.519-3.446c-.381-.378-.742-.78-1.106-1.175a.213.213,0,0,0-.309-.007c-.208.208-.385.385-.569.565a.22.22,0,0,0,0,.312c1.571,1.543,3.12,3.065,4.663,4.6A.43.43,0,0,1,13.827-42.968Zm.791,11.288a.731.731,0,0,0,.742.749.757.757,0,0,0,.756-.742.757.757,0,0,0-.745-.752A.759.759,0,0,0,14.618-31.68ZM19.967-51.76a.723.723,0,0,0,.735.753.763.763,0,0,0,.769-.732.78.78,0,0,0-.749-.762A.743.743,0,0,0,19.967-51.76Zm-5.228-1.373a.744.744,0,0,0,.756.735.744.744,0,0,0,.735-.755.747.747,0,0,0-.756-.735A.742.742,0,0,0,14.739-53.133Zm-7.915,5.4a.736.736,0,0,0-.749-.745.778.778,0,0,0-.738.735.743.743,0,0,0,.745.752A.717.717,0,0,0,6.824-47.735ZM10.842-33.1a.745.745,0,0,0-.724-.735.784.784,0,0,0-.759.756.734.734,0,0,0,.759.735A.713.713,0,0,0,10.842-33.1ZM23.927-47.753a.789.789,0,0,0,.738.742.773.773,0,0,0,.762-.749.738.738,0,0,0-.752-.742A.737.737,0,0,0,23.927-47.753Zm.083,10.664a.735.735,0,0,0,.724.731.727.727,0,0,0,.76-.728.746.746,0,0,0-.731-.766A.787.787,0,0,0,24.01-37.088ZM5.437-42.483a.756.756,0,0,0-.76-.735.739.739,0,0,0-.731.756.754.754,0,0,0,.756.738A.757.757,0,0,0,5.437-42.483Zm1.442,5.44a.734.734,0,0,0-.745-.749.724.724,0,0,0-.738.749.739.739,0,0,0,.752.745A.809.809,0,0,0,6.879-37.043ZM10.818-51.7a.754.754,0,0,0-.76-.742.727.727,0,0,0-.728.76.74.74,0,0,0,.725.735A.781.781,0,0,0,10.818-51.7Zm9.225,18.607a.738.738,0,0,0,.724.735.782.782,0,0,0,.763-.753.735.735,0,0,0-.756-.742A.732.732,0,0,0,20.043-33.094Z" transform="translate(-0.236 57.599)" fill="#f68d28"/>
</svg>
