<svg xmlns="http://www.w3.org/2000/svg" width="107px" height="107px" viewBox="0 0 107.06 107.06">
  <g transform="translate(-488.742 -3786.187)">
    <path
      d="M56.633,39.711A26.434,26.434,0,0,0,43.57,18.241L31.273,4.578a6.65,6.65,0,0,0-6.64-2.04V-20.813a7.12,7.12,0,0,0-7.12-7.12,7.121,7.121,0,0,0-7.121,7.12V12.879a16.074,16.074,0,0,0,2.017,7.784L28.193,49.072v6.659a1.78,1.78,0,0,0,1.78,1.78H54.9a1.78,1.78,0,0,0,1.78-1.78V39.711ZM53.115,53.952H31.753v-5.34a1.783,1.783,0,0,0-.224-.865L15.521,18.931a12.512,12.512,0,0,1-1.569-6.053V-20.813a3.56,3.56,0,0,1,3.561-3.56,3.56,3.56,0,0,1,3.56,3.56V4.737a6.764,6.764,0,0,0,.119,8.959L35.777,29.742l2.634-2.4L23.827,11.3a3.236,3.236,0,0,1,4.681-4.468c.041.041.081.083.12.126L41.112,20.831a2.5,2.5,0,0,0,.534.409A22.809,22.809,0,0,1,53.115,41Z"
      transform="translate(478.476 3835.608)" fill="#fff" stroke="#fff" stroke-linejoin="round" stroke-width="0.252"/>
    <path
      d="M62.167-27.934a7.12,7.12,0,0,0-7.12,7.12V2.538a6.888,6.888,0,0,0-1.766-.21,6.732,6.732,0,0,0-4.874,2.248L36.114,18.235A26.377,26.377,0,0,0,23.047,39.711H23V55.731a1.78,1.78,0,0,0,1.78,1.78H49.706a1.78,1.78,0,0,0,1.78-1.78V49.068L67.075,20.815a16.037,16.037,0,0,0,2.213-8.123V-20.813A7.121,7.121,0,0,0,62.167-27.934Zm3.56,40.626a12.517,12.517,0,0,1-1.744,6.36L48.14,47.751a1.777,1.777,0,0,0-.214.86v5.34H26.565V41a22.847,22.847,0,0,1,11.56-19.8,1.772,1.772,0,0,0,.443-.356L51.052,6.957A3.238,3.238,0,1,1,55.859,11.3L41.269,27.342l2.634,2.4L58.488,13.7a6.764,6.764,0,0,0,.119-8.963v-25.55a3.56,3.56,0,0,1,3.56-3.56,3.56,3.56,0,0,1,3.56,3.56Z"
      transform="translate(526.387 3835.608)" fill="#fff" stroke="#fff" stroke-linejoin="round" stroke-width="0.252"/>
    <path
      d="M61.2,12.118h-3.56A19.564,19.564,0,0,0,41.62,20.484V8.558H43.4A19.6,19.6,0,0,0,62.982-11.023,1.78,1.78,0,0,0,61.2-12.8h-3.56A19.563,19.563,0,0,0,41.62-4.437V-16.364H43.4A14.257,14.257,0,0,0,57.641-30.6a1.78,1.78,0,0,0-1.78-1.78H52.3A14.242,14.242,0,0,0,39.84-25.023a14.242,14.242,0,0,0-12.461-7.363h-3.56a1.78,1.78,0,0,0-1.78,1.78A14.257,14.257,0,0,0,36.28-16.364h1.78V-4.437A19.563,19.563,0,0,0,22.039-12.8h-3.56a1.78,1.78,0,0,0-1.78,1.78A19.6,19.6,0,0,0,36.28,8.558h1.78V20.484a19.564,19.564,0,0,0-16.021-8.367h-3.56A1.78,1.78,0,0,0,16.7,13.9,19.6,19.6,0,0,0,36.28,33.479h1.78V47.72H41.62V33.479H43.4A19.6,19.6,0,0,0,62.982,13.9,1.78,1.78,0,0,0,61.2,12.118ZM57.641-9.244h1.682A16.044,16.044,0,0,1,43.4,5H41.718A16.044,16.044,0,0,1,57.641-9.244ZM52.3-28.825h1.633a10.7,10.7,0,0,1-10.533,8.9H41.768A10.7,10.7,0,0,1,52.3-28.825Zm-16.021,8.9a10.7,10.7,0,0,1-10.533-8.9h1.633a10.7,10.7,0,0,1,10.533,8.9ZM36.28,5A16.044,16.044,0,0,1,20.357-9.244h1.682A16.044,16.044,0,0,1,37.962,5Zm0,24.922A16.044,16.044,0,0,1,20.357,15.678h1.682A16.044,16.044,0,0,1,37.962,29.919Zm7.12,0H41.718A16.044,16.044,0,0,1,57.641,15.678h1.682A16.044,16.044,0,0,1,43.4,29.919Z"
      transform="translate(502.432 3818.698)" fill="#fff" stroke="#fff" stroke-linejoin="round" stroke-width="0.252"/>
  </g>
</svg>
