<svg xmlns="http://www.w3.org/2000/svg" width="128px" height="95px" viewBox="0 0 128.415 95.766"><g transform="translate(-205.964 -4377.468)"><path d="M69.39-209.978c10.632,0,19.3-6.532,19.3-14.527s-8.645-14.532-19.3-14.532-19.3,6.531-19.3,14.532S58.757-209.978,69.39-209.978Zm0-23.9c7.742,0,14.142,4.288,14.142,9.371s-6.478,9.366-14.142,9.366-14.143-4.283-14.143-9.366,6.478-9.4,14.143-9.4Z" transform="translate(192.31 4634.024)" fill="#fff"/><path d="M168.954-183.5H130.863v-26.863c0-17.654-19.638-32.025-43.871-32.025S43.12-228.018,43.12-210.363v31.742c0,16.258,16.646,29.677,38.091,31.716h.439c1.78.157,3.586.282,5.419.282h81.885a2.581,2.581,0,0,0,2.581-2.578v-31.722A2.581,2.581,0,0,0,168.954-183.5ZM87.12-237.206c21.29,0,38.711,12.054,38.711,26.869s-17.317,26.863-38.711,26.863-38.71-12.054-38.71-26.863S65.855-237.206,87.12-237.206Zm38.711,41.914V-183.5H110.862A38.9,38.9,0,0,0,125.7-195.292Zm40.542,43.509h-5.161v-13.058a2.585,2.585,0,0,0-2.58-2.583,2.582,2.582,0,0,0-2.581,2.583v13.084H145.727v-7.1a2.582,2.582,0,0,0-2.581-2.583,2.582,2.582,0,0,0-2.581,2.583v7.1H130.243v-7.1a2.582,2.582,0,0,0-2.581-2.583,2.582,2.582,0,0,0-2.581,2.583v7.1H114.758v-13.084a2.585,2.585,0,0,0-2.581-2.583,2.582,2.582,0,0,0-2.581,2.583v13.084H99.713v-7.1a2.582,2.582,0,0,0-2.581-2.583,2.582,2.582,0,0,0-2.581,2.583v7.1H84.228v-7.1a2.582,2.582,0,0,0-2.581-2.583,2.582,2.582,0,0,0-2.581,2.583v6.479c-17.418-2.583-30.528-13.372-30.528-26.273v-16.645c7.381,10.087,21.91,16.954,38.711,16.954h79.123Z" transform="translate(162.844 4619.856)" fill="#fff"/></g></svg>
