<svg xmlns="http://www.w3.org/2000/svg" width="117px" height="115px" viewBox="0 0 117.829 115.28">
  <g transform="translate(-1314.785 -4365.053)">
    <path
      d="M125.457-149.181a66.264,66.264,0,0,0-2.134-8.184,3.829,3.829,0,0,0-4.837-2.426,3.825,3.825,0,0,0-2.426,4.832,57.942,57.942,0,0,1,1.883,7.222,3.822,3.822,0,0,0,4.482,3.033A3.823,3.823,0,0,0,125.457-149.181Z"
      transform="translate(1282.786 4567.366)" fill="#fff" stroke="#f06b79" stroke-linejoin="round"
      stroke-width="0.505"/>
    <path
      d="M212.457-109.672a36.257,36.257,0,0,0-8.55,3.315,28.289,28.289,0,0,1-25.028.952,50.093,50.093,0,0,0-9.45-26.8l1.862-1.4h15.3a11.49,11.49,0,0,0,11.479-11.478,11.49,11.49,0,0,0-11.479-11.479H167.463a11.569,11.569,0,0,0-6.887,2.3l-15.3,11.478h0l-2.327,1.747a15.112,15.112,0,0,0,5.36-10.82,15.3,15.3,0,0,0-15.244-16.18A15.208,15.208,0,0,0,117.757-153.6a15.3,15.3,0,0,0,16.854,16.091,14.924,14.924,0,0,0,6.835-2.4l-8.414,6.312h-15.3a11.486,11.486,0,0,0-11.479,11.473,11.487,11.487,0,0,0,11.479,11.479H136.86a11.581,11.581,0,0,0,6.887-2.3l7.321-5.491a27.421,27.421,0,0,1,3.87,8.069,35.988,35.988,0,0,0-12.247,4.006,28.291,28.291,0,0,1-26.968,0,36.245,36.245,0,0,0-11.405-3.9,3.828,3.828,0,0,0-4.442,3.776v49.4a3.824,3.824,0,0,0,3.825,3.828H213.377a3.822,3.822,0,0,0,3.823-3.828v-48.874A3.827,3.827,0,0,0,212.457-109.672ZM140.61-151.7a7.658,7.658,0,0,1-6.343,6.521,7.653,7.653,0,0,1-8.812-8.587,7.642,7.642,0,0,1,7.551-6.61A7.642,7.642,0,0,1,140.61-151.7Zm24.557,3.561a3.837,3.837,0,0,1,2.3-.769h19.129a3.83,3.83,0,0,1,3.828,3.828,3.829,3.829,0,0,1-3.828,3.823H170.015a3.837,3.837,0,0,0-2.3.769l-3.247,2.437a50.961,50.961,0,0,0-5.93-5.119Zm-10.621,21.843a3.819,3.819,0,0,0-5.114-.476l-10.276,7.7a3.837,3.837,0,0,1-2.3.769H117.731a3.83,3.83,0,0,1-3.828-3.828,3.829,3.829,0,0,1,3.828-3.823h16.577a3.866,3.866,0,0,0,2.3-.764l13.257-9.946a3.812,3.812,0,0,1,4.434-.12,42.345,42.345,0,0,1,16.562,27.82,36.181,36.181,0,0,0-8.079-1.621A34.988,34.988,0,0,0,154.546-126.291Zm8.377,65.383a12.063,12.063,0,0,0,.716-4.11,45.431,45.431,0,0,1,.272-5.82,63.962,63.962,0,0,0,6.819,9.931Zm30.676,0a11.432,11.432,0,0,0-2.432-11.651,47.874,47.874,0,0,1-9.392-14.3,3.825,3.825,0,0,0-4.994-2.076,3.825,3.825,0,0,0-2.076,4.994,55.358,55.358,0,0,0,10.861,16.6,3.811,3.811,0,0,1-.094,5.313,3.819,3.819,0,0,1-5.407,0,55.851,55.851,0,0,1-13.492-21.644v-.01a55.707,55.707,0,0,1-2.144-8.524,3.826,3.826,0,0,0-4.408-3.138,3.831,3.831,0,0,0-3.138,4.414,63.666,63.666,0,0,0,2,8.336,48.86,48.86,0,0,0-2.892,17.576,3.936,3.936,0,0,1-3.875,4.11h-.01a3.828,3.828,0,0,1-3.77-3.828,56.4,56.4,0,0,1,3.859-21.838,3.82,3.82,0,0,0-2.16-4.957,3.828,3.828,0,0,0-4.963,2.16,63.971,63.971,0,0,0-4.387,24.636,11.48,11.48,0,0,0,.659,3.828H107.529v-40.7a29.425,29.425,0,0,1,4.555,1.982,35.928,35.928,0,0,0,34.242,0,28.3,28.3,0,0,1,26.957-.005.091.091,0,0,0,.026.01,35.922,35.922,0,0,0,34.232-.005q.988-.533,2.008-.988v39.707Z"
      transform="translate(1215.162 4533.337)" fill="#fff" stroke="#f06b79" stroke-linejoin="round"
      stroke-width="0.505"/>
  </g>
</svg>
