<?xml version="1.0" encoding="utf-8"?>
<!-- Generator: Adobe Illustrator 21.1.0, SVG Export Plug-In . SVG Version: 6.00 Build 0)  -->
<svg version="1.1" id="Layer_1" xmlns="http://www.w3.org/2000/svg" xmlns:xlink="http://www.w3.org/1999/xlink" x="0px" y="0px"
	 viewBox="0 0 121.9 132" height="132px" width="122px" style="enable-background:new 0 0 121.9 132;" xml:space="preserve">
<g transform="translate(-894 -6194.592)">
	<path style="fill:none;stroke:#FFFFFF;stroke-width:6;stroke-linecap:round;stroke-linejoin:bevel;" d="M897,6322.5v-80.2
		l57.3-45.3l58.6,43.7v82.9L897,6322.5z"/>
	<path style="fill:#FFFFFF;stroke:#FFFFFF;stroke-width:0.18;stroke-linejoin:round;" d="M961.4,6308.2c-9.2,0-15.2-6.5-15.2-16.7
		v-17.1h-17.1c-1.3,0-2.4-1.1-2.4-2.4c0,0,0,0,0,0c0-1.3,1.1-2.4,2.4-2.4c0,0,0,0,0,0h19.5c1.3,0,2.4,1.1,2.4,2.4c0,0,0,0,0,0v19.5
		c0,7.4,3.9,11.8,10.3,11.8c7.9,0,9.6-6.4,9.6-11.8v-11.2c-0.1-1.3,1-2.5,2.3-2.5c1.3-0.1,2.5,1,2.5,2.3c0,0.1,0,0.1,0,0.2v11.2
		C975.8,6302,970.5,6308.2,961.4,6308.2z"/>
	<path style="fill:#FFFFFF;stroke:#FFFFFF;stroke-width:0.18;stroke-linejoin:round;" d="M939.7,6286.7h-11.2
		c-10.4,0-16.7-5.4-16.7-14.4c0-9.2,6.5-15.2,16.7-15.2h17.1v-17.1c0-1.3,1.1-2.4,2.4-2.4c0,0,0,0,0,0c1.3,0,2.4,1.1,2.4,2.4v19.5
		c0,1.3-1.1,2.4-2.4,2.4c0,0,0,0,0,0h-19.5c-7.4,0-11.8,3.9-11.8,10.3c0,7.9,6.4,9.6,11.8,9.6h11.2c1.3,0,2.4,1.1,2.4,2.4
		C942.1,6285.6,941.1,6286.7,939.7,6286.7L939.7,6286.7z"/>
	<path style="fill:#FFFFFF;stroke:#FFFFFF;stroke-width:0.18;stroke-linejoin:round;" d="M980,6262.2h-19.5c-1.3,0-2.4-1.1-2.4-2.4
		c0,0,0,0,0,0v-19.5c0-7.4-3.9-11.8-10.3-11.8c-7.9,0-9.6,6.4-9.6,11.8v11.2c0,1.3-1.1,2.4-2.5,2.4c-1.3,0-2.3-1.1-2.4-2.4v-11.2
		c0-10.4,5.4-16.7,14.4-16.7c9.2,0,15.2,6.5,15.2,16.7v17.1H980c1.3,0,2.4,1.1,2.4,2.4C982.5,6261.1,981.4,6262.2,980,6262.2
		C980,6262.2,980,6262.2,980,6262.2z"/>
	<path style="fill:#FFFFFF;stroke:#FFFFFF;stroke-width:0.18;stroke-linejoin:round;" d="M961.1,6293.8c-1.3,0-2.4-1.1-2.4-2.4
		c0,0,0,0,0,0v-19.5c0-1.3,1.1-2.4,2.4-2.4c0,0,0,0,0,0h19.5c7.4,0,11.8-3.9,11.8-10.3c0-7.9-6.4-9.6-11.8-9.6h-11.2
		c-1.3,0-2.4-1.1-2.4-2.4c0-1.3,1.1-2.4,2.4-2.4c0,0,0,0,0,0h11.2c10.4,0,16.7,5.4,16.7,14.4c0,9.2-6.5,15.2-16.7,15.2h-17.1v17.1
		C963.5,6292.7,962.5,6293.8,961.1,6293.8C961.1,6293.8,961.1,6293.8,961.1,6293.8z"/>
</g>
</svg>
