<?xml version="1.0" encoding="utf-8"?>
<!-- Generator: Adobe Illustrator 21.1.0, SVG Export Plug-In . SVG Version: 6.00 Build 0)  -->
<svg version="1.1" id="Layer_1" xmlns="http://www.w3.org/2000/svg" xmlns:xlink="http://www.w3.org/1999/xlink" x="0px" y="0px"
	 viewBox="0 0 120.3 120.3" height="120px" width="120px" style="enable-background:new 0 0 120.3 120.3;" xml:space="preserve">
<g transform="translate(-202.88 -3778.496)">
	<path style="fill:#FFFFFF;stroke:#FFFFFF;stroke-width:0.138;stroke-linejoin:round;" d="M323.1,3896.6l-3.3-44.7
		c-0.5-6.4-5.2-11.6-11.5-12.8l-19.7-4.5c0,0,0,0,0,0l-5.7-1.3c1-1.2,1.9-2.4,2.8-3.7c0.1-0.1,0.2-0.3,0.3-0.4
		c0.4-0.6,0.7-1.2,1.1-1.9c0.1-0.2,0.2-0.4,0.3-0.5c0.3-0.6,0.6-1.3,0.9-1.9c0.1-0.2,0.2-0.4,0.2-0.6c0.3-0.7,0.5-1.4,0.8-2.1
		c0.1-0.2,0.1-0.3,0.2-0.5c0.2-0.8,0.5-1.5,0.7-2.3c0,0,0-0.1,0-0.1c0.2-0.9,0.4-1.8,0.6-2.7h2.5c3.3,0,6-2.7,6-6c0-3.3-2.7-6-6-6
		h-2.5c-0.1-0.4-0.1-0.7-0.2-1.1c0,0,0,0,0,0c-0.1-0.5-0.2-1-0.3-1.5c0,0,0-0.1,0-0.1c-0.1-0.4-0.2-0.7-0.3-1.1l0,0
		c-0.1-0.4-0.3-0.8-0.4-1.2c-0.1-0.2-0.1-0.3-0.2-0.5c-0.1-0.4-0.2-0.8-0.4-1.1s-0.3-0.7-0.5-1.1c0-0.1-0.1-0.2-0.1-0.3
		c-0.2-0.4-0.3-0.8-0.5-1.2c0-0.1-0.1-0.1-0.1-0.2c-0.4-0.8-0.8-1.7-1.3-2.5c0-0.1-0.1-0.1-0.1-0.2c-0.5-0.8-1-1.5-1.5-2.3
		c-0.1-0.1-0.1-0.2-0.2-0.2c-0.5-0.7-1-1.3-1.6-2c-0.1-0.1-0.2-0.2-0.3-0.4c-0.5-0.5-1-1.1-1.5-1.6c-0.2-0.2-0.4-0.4-0.6-0.5
		c-0.4-0.4-0.9-0.8-1.4-1.2c-0.3-0.2-0.6-0.5-0.9-0.7c-0.3-0.2-0.7-0.5-1-0.7l0,0c-0.1-0.1-0.2-0.2-0.4-0.3c-0.3-0.2-0.6-0.4-1-0.6
		c-0.1-0.1-0.3-0.1-0.4-0.2l-0.3-0.1c-0.2-0.1-0.4-0.2-0.7-0.4c-0.5-0.3-1-0.5-1.5-0.7c-0.3-0.1-0.6-0.3-0.9-0.4
		c-0.5-0.2-1-0.4-1.4-0.5c-0.4-0.1-0.8-0.2-1.2-0.3c-0.4-0.1-0.9-0.2-1.3-0.3c-0.5-0.1-1-0.2-1.5-0.3c-0.4-0.1-0.7-0.1-1.1-0.2
		c-0.9-0.1-1.8-0.2-2.7-0.2c-0.9,0-1.8,0.1-2.7,0.2c-0.4,0-0.7,0.1-1.1,0.2c-0.5,0.1-1,0.2-1.5,0.3c-0.4,0.1-0.9,0.2-1.3,0.3
		c-0.4,0.1-0.8,0.2-1.2,0.3c-0.5,0.2-1,0.3-1.4,0.5c-0.3,0.1-0.6,0.2-0.9,0.4c-0.5,0.2-1,0.5-1.5,0.7c-0.2,0.1-0.4,0.2-0.7,0.4
		c-0.5,0.3-1.1,0.6-1.6,1c0,0-0.1,0.1-0.1,0.1c0,0-0.1,0-0.1,0.1c-0.2,0.1-0.4,0.3-0.5,0.4c-0.5,0.3-0.9,0.6-1.4,1
		c-0.3,0.2-0.5,0.4-0.7,0.6c-0.4,0.4-0.9,0.7-1.3,1.1c-0.2,0.2-0.3,0.4-0.5,0.5c-1.5,1.5-2.8,3.2-4,5c-0.1,0.1-0.2,0.3-0.3,0.4
		c0,0,0,0,0,0c-0.1,0.1-0.1,0.2-0.2,0.3c-0.3,0.5-0.6,1.1-0.9,1.6c-0.1,0.2-0.2,0.3-0.3,0.5c-0.1,0.1-0.1,0.2-0.2,0.3
		c-0.3,0.5-0.5,1.1-0.8,1.6c-0.1,0.2-0.1,0.3-0.2,0.5c-0.1,0.1-0.1,0.3-0.2,0.4c-0.2,0.6-0.4,1.2-0.6,1.8c0,0.1-0.1,0.3-0.1,0.4
		c0,0.1-0.1,0.1-0.1,0.2c0,0,0,0.1,0,0.1c-0.2,0.7-0.4,1.4-0.6,2.1c0,0,0,0.1,0,0.1c-0.2,0.9-0.4,1.8-0.6,2.7H233c-3.3,0-6,2.7-6,6
		c0,3.3,2.7,6,6,6h2.5c0,0,0,0,0,0c0.1,0.3,0.1,0.6,0.2,1c0,0.1,0.1,0.3,0.1,0.5c-1.6,0.9-3,1.9-4.2,3.2c-3.8,4-3.8,8.4-3.8,13
		c0,0.9,0,1.7,0,2.6l-9.8,2.2c-6.3,1.1-11.1,6.4-11.6,12.8l-3.3,44.7c-0.1,1.1,0.7,2.1,1.8,2.1c0.1,0,0.1,0,0.2,0h116.2
		c1.1,0,2-0.9,2-2C323.1,3896.7,323.1,3896.6,323.1,3896.6L323.1,3896.6z M291,3808.6h2.1c1.1,0,2,0.9,2,2c0,1.1-0.9,2-2,2H291
		c0-0.7,0.1-1.3,0.1-2C291.1,3809.9,291,3809.3,291,3808.6z M235.1,3812.6H233c-1.1,0-2-0.9-2-2s0.9-2,2-2l0,0h2.1
		c0,0.7-0.1,1.3-0.1,2S235.1,3812,235.1,3812.6z M284.2,3837.7l-21.1,22l-12.4-14.3c0.1-0.2,0.2-0.4,0.3-0.6
		c0.7-1.4,1.2-2.9,1.6-4.4c0.1,0,0.2,0.1,0.3,0.1l0.1,0l0.3,0.1c0.2,0.1,0.3,0.1,0.5,0.2c0.4,0.2,0.8,0.3,1.2,0.4
		c0.2,0.1,0.4,0.1,0.6,0.2c0.2,0.1,0.4,0.1,0.6,0.2h0l0,0l0.2,0.1c0,0,0.1,0,0.1,0l0,0c0,0,0.1,0,0.1,0c0.3,0.1,0.6,0.2,0.8,0.2
		c0.4,0.1,0.8,0.1,1.2,0.2c0.2,0,0.3,0.1,0.5,0.1l0,0l0.3,0c0.2,0,0.5,0.1,0.7,0.1c0.2,0,0.5,0,0.7,0l0.2,0c0,0,0,0,0,0l0,0
		c0.6,0.1,1.3,0.1,1.8,0.1h0.1c0.1,0,0.2,0,0.3,0h0c0.6,0,1.2,0,1.8-0.1c0.2,0,0.4,0,0.6,0c0.2,0,0.4-0.1,0.7-0.1l0.3,0
		c0.1,0,0.2,0,0.4-0.1c0.4-0.1,0.8-0.1,1.2-0.2l0,0c0.3-0.1,0.6-0.2,1-0.2c0.1,0,0.1,0,0.2,0c0.1,0,0.2-0.1,0.4-0.1
		c0.3-0.1,0.6-0.2,0.8-0.2c0,0,0,0,0,0c0,0,0.1,0,0.1,0c0.4-0.1,0.7-0.2,1.1-0.4c0.1,0,0.1,0,0.2-0.1c0.1,0,0.3-0.1,0.5-0.2
		c0.2-0.1,0.4-0.2,0.6-0.3c0.5-0.2,0.9-0.4,1.4-0.7c0.1,0,0.1-0.1,0.2-0.1c0.2-0.1,0.4-0.2,0.6-0.3c0.5-0.3,1.1-0.6,1.6-1
		c0.1-0.1,0.2-0.2,0.3-0.2c0.3-0.2,0.6-0.4,0.9-0.6c0.3-0.2,0.6-0.5,0.9-0.7c0.1-0.1,0.2-0.2,0.3-0.2L284.2,3837.7z M265,3882.7
		c0,1.1-0.9,2-2,2c-1.1,0-2-0.9-2-2c0-1.1,0.9-2,2-2C264.2,3880.7,265,3881.6,265,3882.7z M241.9,3797.4c0.1-0.2,0.2-0.4,0.3-0.5
		c0.2-0.5,0.5-1,0.8-1.5c0.1-0.2,0.2-0.3,0.3-0.5c0.3-0.5,0.6-1.1,1-1.6c0.1-0.1,0.1-0.2,0.2-0.2c1.3-1.9,2.8-3.5,4.5-5
		c0,0,0,0,0.1-0.1c0.5-0.4,1.1-0.9,1.6-1.3l0.2-0.2c0.1-0.1,0.3-0.2,0.4-0.3c3.8-2.2,8.1-3.4,12.6-3.6c2,0.1,4,0.4,6,1.1
		c0.5,0.2,1,0.4,1.5,0.6c0.2,0.1,0.4,0.2,0.6,0.2c0.5,0.2,1,0.5,1.6,0.8c0.1,0.1,0.3,0.1,0.4,0.2c0.5,0.3,1.1,0.7,1.6,1
		c0.1,0.1,0.1,0.1,0.2,0.2c0.6,0.4,1.1,0.8,1.6,1.3c0,0,0,0,0.1,0.1c3.5,3.1,6.2,7,7.8,11.4c0,0,0,0.1,0,0.1
		c0.2,0.7,0.5,1.4,0.7,2.1c0,0.1,0.1,0.3,0.1,0.4c0.2,0.6,0.3,1.2,0.4,1.8c0,0.2,0.1,0.4,0.1,0.6c0,0.1,0,0.1,0,0.2h-1.2
		c-4.6-1.3-9-3.3-13.2-5.7c-5-3-9.5-6.7-13.3-11c-0.4-0.4-1-0.7-1.6-0.7c-0.6,0-1.2,0.3-1.5,0.8c-2.1,2.8-4.7,5.1-7.7,6.9
		c-1.9,1.2-4,2-6.2,2.7C241.9,3797.5,241.9,3797.4,241.9,3797.4z M239.2,3806.8L239.2,3806.8c0.2-1.6,0.5-3.3,0.9-4.8
		c3.5-0.6,6.8-1.9,9.8-3.7c2.7-1.6,5.2-3.7,7.3-6.1c3.8,3.9,8,7.3,12.7,10.1c4.5,2.7,9.4,4.8,14.5,6.2c0.2,0,0.4,0.1,0.5,0.1
		c0.1,0,0.2,0,0.4,0h1.6c0,0.7,0.1,1.3,0.1,2c0,1.3-0.1,2.5-0.2,3.8l0,0c-0.7,7.2-4.1,13.9-9.5,18.7c-0.2,0.2-0.4,0.3-0.6,0.5
		c-0.3,0.3-0.7,0.5-1,0.8c-0.2,0.2-0.5,0.3-0.7,0.5l0,0c-0.3,0.2-0.6,0.4-0.9,0.6c-0.2,0.1-0.4,0.2-0.5,0.3
		c-0.1,0.1-0.3,0.2-0.4,0.2c-0.2,0.1-0.4,0.2-0.7,0.3c-0.4,0.2-0.8,0.4-1.2,0.6l-0.1,0c-0.4,0.2-0.8,0.3-1.3,0.5l-0.2,0.1
		c-0.3,0.1-0.7,0.2-1,0.3c-0.3,0.1-0.5,0.1-0.8,0.2c-0.2,0-0.3,0.1-0.5,0.1c-0.3,0.1-0.7,0.1-1.1,0.2c-0.2,0-0.5,0.1-0.7,0.1
		c-0.1,0-0.3,0-0.4,0.1l-0.1,0c-0.7,0.1-1.3,0.1-2,0.1c-0.1,0-0.3,0-0.4,0c-0.6,0-1.3-0.1-1.9-0.1c-0.3,0-0.6-0.1-0.9-0.1l-0.1,0
		c-0.1,0-0.2,0-0.2,0c-0.7-0.1-1.4-0.3-2.1-0.4l0,0l0,0c-0.2,0-0.3-0.1-0.5-0.1c-0.2,0-0.3-0.1-0.5-0.2c-0.5-0.1-0.9-0.3-1.4-0.5
		c-0.2-0.1-0.4-0.2-0.6-0.3c-0.5-0.2-1.1-0.5-1.6-0.8c-0.1-0.1-0.3-0.1-0.4-0.2c-0.1,0-0.1-0.1-0.2-0.1c-6.2-3.8-10.7-9.9-12.4-17.1
		v0c-0.3-1.2-0.5-2.5-0.7-3.7c-0.2-1.4-0.3-2.9-0.3-4.3C239,3809.4,239.1,3808.1,239.2,3806.8L239.2,3806.8z M228.8,3849.5
		c0.3-0.7,0.6-1.3,0.8-2c0.1-0.2,0.2-0.4,0.2-0.6c0.2-0.5,0.3-0.9,0.5-1.4c0.1-0.2,0.1-0.4,0.2-0.6c0.2-0.6,0.3-1.2,0.4-1.8
		c0-0.1,0-0.2,0.1-0.3c0.1-0.5,0.2-1,0.3-1.5c0-0.1,0-0.3,0.1-0.4c0.1-0.5,0.1-1.1,0.2-1.5c0-0.2,0-0.3,0-0.5c0-0.1,0-0.3,0-0.4
		c0,0,0,0,0,0c0.1-1.5,0.1-3,0.1-4.3c0-4.3,0-7.4,2.8-10.3c0.7-0.7,1.5-1.4,2.4-1.9c2.1,6.6,6.4,12.4,12.2,16.3
		c-0.1,0.2-0.1,0.5-0.2,0.7c-0.1,0.5-0.3,1-0.5,1.4c-0.1,0.1-0.1,0.3-0.2,0.4c-0.5,1.3-1.1,2.6-1.7,3.8c0,0,0,0.1,0,0.1
		c-1.7,3.2-4,6-6.8,8.3c-6.9,5.8-15.8,7.2-18.5,6.7c0.3-0.4,0.8-0.8,1.1-1.3C225,3855.9,227.2,3852.9,228.8,3849.5z M207.1,3894.7
		l3.2-42.6c0.4-4.6,3.8-8.4,8.4-9.1l8.6-2c-0.1,0.6-0.2,1.1-0.3,1.7c0,0.2-0.1,0.3-0.1,0.5c-0.1,0.4-0.2,0.8-0.3,1.2
		c-0.1,0.3-0.2,0.6-0.3,1c-0.1,0.2-0.2,0.5-0.3,0.7c-0.2,0.6-0.5,1.2-0.8,1.8c-1.5,3-3.4,5.7-5.7,8c-1.8,1.9-3.4,3.7-2.2,5.9
		c0.7,1.2,2,1.9,3.3,2.1c0.6,0.1,1.3,0.2,1.9,0.2c0.1,0,0.1,0,0.2,0h0.1c0.7,0,1.5,0,2.2-0.1c0.3,0,0.6-0.1,0.9-0.1
		c0.5-0.1,1-0.2,1.6-0.3c0.4-0.1,0.8-0.2,1.2-0.3c0.5-0.1,1-0.3,1.5-0.4c0.4-0.1,0.8-0.3,1.2-0.4c0.5-0.2,1-0.4,1.6-0.6
		c0.4-0.2,0.8-0.3,1.2-0.5c0.6-0.2,1.1-0.5,1.6-0.8c0.4-0.2,0.8-0.4,1.1-0.6c0.6-0.3,1.2-0.7,1.8-1.1c0.3-0.2,0.6-0.4,0.9-0.6
		c0.9-0.6,1.8-1.2,2.6-1.9c2.4-2,4.6-4.4,6.4-7.1l12.4,14.3v13.6c-3.1,1.1-4.8,4.5-3.7,7.7s4.5,4.8,7.7,3.7c3.1-1.1,4.8-4.5,3.7-7.7
		c-0.6-1.7-2-3.1-3.7-3.7v-13.6l23.8-24.7l13.6,3.1l5.2,1.2c4.5,0.8,7.9,4.5,8.3,9.1l3.2,42.6L207.1,3894.7z"/>
	<path style="fill:#FFFFFF;stroke:#FFFFFF;stroke-width:0.138;stroke-linejoin:round;" d="M251.9,3808.6c-2.6,0-5.1,0.8-7.2,2.4
		l2.4,3.2c1.4-1,3.1-1.6,4.8-1.6c1.7,0,3.4,0.6,4.8,1.6l2.4-3.2C257,3809.5,254.5,3808.6,251.9,3808.6z"/>
	<path style="fill:#FFFFFF;stroke:#FFFFFF;stroke-width:0.138;stroke-linejoin:round;" d="M275.9,3808.6c-2.6,0-5.1,0.8-7.2,2.4
		l2.4,3.2c1.4-1,3.1-1.6,4.8-1.6c1.7,0,3.4,0.6,4.8,1.6l2.4-3.2C281.1,3809.5,278.5,3808.6,275.9,3808.6z"/>
	<path style="fill:#FFFFFF;stroke:#FFFFFF;stroke-width:0.138;stroke-linejoin:round;" d="M268.7,3825c-1.4,1-3.1,1.6-4.8,1.6
		c-1.7,0-3.4-0.6-4.8-1.6l-2.4,3.2c2.1,1.6,4.6,2.4,7.2,2.4c2.6,0,5.1-0.8,7.2-2.4L268.7,3825z"/>
	<path style="fill:#FFFFFF;stroke:#FFFFFF;stroke-width:0.138;stroke-linejoin:round;" d="M315.2,3864.8
		c-3.9-9.7-14.9-14.4-24.6-10.6c-4.8,1.9-8.6,5.7-10.6,10.6c-3.5,0.5-6.1,3.5-6.1,7c0,3.5,2.6,6.5,6.1,7
		c3.9,9.7,14.9,14.4,24.6,10.6c4.8-1.9,8.6-5.7,10.6-10.6c3.5-0.5,6.1-3.5,6.1-7C321.3,3868.3,318.7,3865.3,315.2,3864.8z
		 M314.2,3874.2h-0.7c-1,0-2,0.7-2.3,1.7c-2.2,7.5-10.1,11.8-17.7,9.6c-4.6-1.4-8.2-5-9.6-9.6c-0.3-1-1.2-1.7-2.3-1.7H281
		c-1.3,0-2.4-1.1-2.4-2.4s1.1-2.4,2.4-2.4l0,0h0.7c1,0,2-0.7,2.3-1.7c1.3-4.2,4.4-7.5,8.5-9.1c-0.3,1.6-0.1,3.3,0.7,4.8
		c0.9,1.8,2.5,3.2,4.4,3.8c0.8,0.3,1.6,0.4,2.4,0.4c1.2,0,2.3-0.3,3.4-0.8l-2.1-4.2c-0.7,0.3-1.5,0.4-2.2,0.1
		c-0.7-0.2-1.3-0.8-1.7-1.5c-0.3-0.7-0.4-1.5-0.1-2.2c0.2-0.6,0.6-1,1.1-1.4c6,0.3,11.2,4.3,12.9,10.1c0.3,1,1.2,1.7,2.3,1.7h0.7
		c1.3,0,2.4,1.1,2.4,2.4S315.5,3874.2,314.2,3874.2L314.2,3874.2z"/>
</g>
</svg>
