<?xml version="1.0" encoding="utf-8"?>
<!-- Generator: Adobe Illustrator 21.1.0, SVG Export Plug-In . SVG Version: 6.00 Build 0)  -->
<svg version="1.1" id="Layer_1" xmlns="http://www.w3.org/2000/svg" xmlns:xlink="http://www.w3.org/1999/xlink" x="0px"
     y="0px"
     viewBox="0 0 34.1 23.2" height="23px" width="34px" style="enable-background:new 0 0 34.1 23.2;" xml:space="preserve">
<path id="Path_645" style="fill:#E271AC;" d="M17.6,6.7c-0.2,0-0.4,0.1-0.5,0.2c-0.2,0.1-0.3,0.3-0.4,0.4c-0.1,0.2-0.2,0.4-0.2,0.6
	c0,0.2-0.1,0.4,0,0.6c0,0.2,0.1,0.4,0.2,0.6c0.1,0.1,0.3,0.2,0.5,0.1c0.1,0,0.2,0,0.3-0.1c0.1,0,0.2-0.1,0.3-0.1L18,6.7
	c-0.1,0-0.1,0-0.2,0C17.7,6.7,17.7,6.7,17.6,6.7z M2.9,4.7c4.5,4.5,9,9,13.5,13.5c0.4,0.4,0.6,0.4,0.9,0L30.2,5.4
	c0.3-0.3,0.7-0.6,0.9-1c0.1-0.4,0.1-0.9,0-1.3c0.1-0.6-0.3-1.2-1-1.3c-0.1,0-0.2,0-0.4,0H4c-0.6-0.1-1.2,0.4-1.3,1
	c0,0.1,0,0.2,0,0.3c0,0.4,0,0.7,0,1.1C2.7,4.4,2.8,4.6,2.9,4.7z M13.3,7.3c0.2-0.6,0.4-1.1,0.8-1.6c0.4-0.5,0.9-1,1.5-1.3
	C16.3,4,17,3.8,17.8,3.8c0.5,0,0.9,0,1.4,0.1c0.4,0.1,0.8,0.2,1.2,0.5c0.3,0.2,0.6,0.6,0.8,0.9c0.2,0.4,0.4,0.9,0.4,1.4
	c0,0.4,0,0.8-0.1,1.2c-0.1,0.4-0.2,0.7-0.4,1.1c-0.2,0.3-0.5,0.6-0.8,0.8c-0.3,0.2-0.7,0.4-1.1,0.4c-0.4,0.1-0.8,0-1.1-0.3
	c-0.2,0.1-0.4,0.2-0.6,0.3c-0.2,0.1-0.5,0.2-0.8,0.2c-0.2,0-0.4,0-0.6,0c-0.2,0-0.3-0.1-0.5-0.2c-0.2-0.1-0.3-0.3-0.4-0.5
	c-0.1-0.2-0.2-0.4-0.2-0.7c0-0.4,0-0.8,0.1-1.2c0.1-0.4,0.3-0.7,0.5-1C16,6.4,16.3,6.2,16.6,6c0.3-0.2,0.7-0.3,1-0.3
	c0.3,0,0.6,0,0.8,0c0.3,0,0.5,0.1,0.8,0.1L19,9.1c0.1,0,0.2,0.1,0.3,0c0.2,0,0.4-0.1,0.6-0.3c0.2-0.2,0.3-0.4,0.4-0.6
	c0.1-0.2,0.2-0.5,0.2-0.8c0-0.3,0-0.5,0-0.8c0-0.6-0.3-1.2-0.8-1.6c-0.6-0.4-1.2-0.5-1.9-0.4c-0.6,0-1.1,0.2-1.6,0.5
	c-0.4,0.2-0.8,0.6-1.1,1c-0.3,0.4-0.5,0.8-0.6,1.3c-0.1,0.5-0.2,1-0.1,1.5c0,0.4,0.1,0.8,0.3,1.1c0.1,0.3,0.4,0.5,0.6,0.7
	c0.3,0.2,0.5,0.3,0.9,0.4c0.3,0.1,0.7,0.1,1,0c0.3,0,0.6-0.1,0.9-0.1c0.3-0.1,0.5-0.2,0.7-0.3c0.1,0.1,0.1,0.3,0.2,0.4
	s0.1,0.3,0.2,0.4c-0.1,0.1-0.3,0.1-0.4,0.2c-0.2,0.1-0.3,0.1-0.5,0.2c-0.2,0-0.4,0.1-0.6,0.1c-0.2,0-0.4,0.1-0.6,0.1
	c-0.5,0-0.9,0-1.4-0.1c-0.4-0.1-0.8-0.3-1.2-0.5c-0.4-0.3-0.7-0.6-0.9-1c-0.2-0.5-0.4-1-0.4-1.5C13.1,8.5,13.1,7.9,13.3,7.3z
	 M24.7,13.4c-0.1-0.1-0.1-0.1-0.3-0.3c-0.1,0.1-0.1,0.2-0.2,0.3c-1.9,1.9-3.9,3.9-5.8,5.8c-0.6,0.8-1.8,0.9-2.6,0.3
	c-0.1-0.1-0.2-0.2-0.3-0.3c-1.9-1.9-3.9-3.9-5.8-5.8c-0.1-0.1-0.2-0.2-0.2-0.3c-0.1,0.1-0.1,0.1-0.2,0.1c-2.1,2.1-4.3,4.3-6.4,6.4
	c-0.2,0.2-0.2,0.4-0.1,0.6c0.1,0.6,0.7,0.9,1.3,0.9h25.8c0.1,0,0.2,0,0.3,0c0.4,0,0.8-0.3,0.9-0.6c0.2-0.3,0.2-0.7-0.1-1
	C28.8,17.5,26.8,15.4,24.7,13.4L24.7,13.4z M2.7,17.7l5.5-5.5c-1.8-1.9-3.7-3.7-5.5-5.6V17.7z M31.1,17.7V6.6l-5.5,5.5L31.1,17.7z"
/>
</svg>
