<?xml version="1.0" encoding="utf-8"?>
<!-- Generator: Adobe Illustrator 21.1.0, SVG Export Plug-In . SVG Version: 6.00 Build 0)  -->
<svg version="1.1" id="Layer_1" xmlns="http://www.w3.org/2000/svg" xmlns:xlink="http://www.w3.org/1999/xlink" x="0px" y="0px"
	 viewBox="0 0 136 136" height="136px" width="136px" style="enable-background:new 0 0 136 136;" xml:space="preserve">
<g transform="translate(-890.324 -11064.787)">
	<path style="fill:#FFFFFF;stroke:#A2CF60;stroke-width:0.9;stroke-linecap:round;stroke-linejoin:bevel;" d="M958.3,11065.2
		c37.3,0,67.5,30.3,67.6,67.6c0,37.3-30.3,67.5-67.6,67.5c-37.3,0-67.5-30.2-67.6-67.5C890.8,11095.5,921,11065.3,958.3,11065.2z"/>
	<path style="fill:#FFFFFF;stroke:#A2CF60;stroke-width:4;stroke-linecap:round;stroke-linejoin:bevel;" d="M958.3,11075.4
		c31.7,0,57.4,25.7,57.4,57.4c0,31.7-25.7,57.4-57.4,57.4c-31.7,0-57.4-25.7-57.4-57.4C901,11101.1,926.6,11075.4,958.3,11075.4z"/>
	<path style="fill:#A2CF60;stroke:#A2CF60;stroke-width:4;stroke-linejoin:round;" d="M951,11126.1l38.1-31.1l-21,44.1L951,11126.1z
		"/>
	<path style="fill:none;stroke:#A2CF60;stroke-width:4;stroke-linecap:round;stroke-linejoin:round;" d="M951,11126.1l-21.1,44
		l38.2-31L951,11126.1z"/>
	<path style="fill:#FFFFFF;stroke:#A2CF60;stroke-width:4;stroke-linejoin:round;" d="M959.1,11124.6c4.5,0,8.2,3.7,8.2,8.2
		c0,4.5-3.7,8.2-8.2,8.2c-4.5,0-8.2-3.7-8.2-8.2C950.9,11128.2,954.6,11124.6,959.1,11124.6z"/>
</g>
</svg>
