<svg xmlns="http://www.w3.org/2000/svg" width="113px" height="113px" viewBox="0 0 113.41 113.41">
  <g transform="translate(-813.688 -13939.942)">
    <path
      d="M436.693-257.473H346.079a3.324,3.324,0,0,0-3.322,3.322v41.622h-12.83a3.321,3.321,0,0,0-3.322,3.322v53.754a11.407,11.407,0,0,0,11.4,11.39h87.608a14.407,14.407,0,0,0,14.4-14.379v-95.709A3.324,3.324,0,0,0,436.693-257.473ZM333.249-155.453v-50.432h9.508v50.432a4.754,4.754,0,0,1-4.751,4.746A4.755,4.755,0,0,1,333.249-155.453Zm100.116-2.989a7.75,7.75,0,0,1-7.752,7.735H348.365a11.327,11.327,0,0,0,1.042-4.746v-95.376h83.958Z"
      transform="translate(487.083 14197.415)" fill="#fff"/>
    <path
      d="M335.325-241.048h64.031a3.325,3.325,0,0,0,3.322-3.322,3.321,3.321,0,0,0-3.322-3.322H335.325A3.321,3.321,0,0,0,332-244.37,3.325,3.325,0,0,0,335.325-241.048Z"
      transform="translate(511.132 14240.988)" fill="#fff"/>
    <path
      d="M335.325-243.481h64.031a3.321,3.321,0,0,0,3.322-3.322,3.325,3.325,0,0,0-3.322-3.322H335.325A3.325,3.325,0,0,0,332-246.8,3.321,3.321,0,0,0,335.325-243.481Z"
      transform="translate(511.132 14230.15)" fill="#fff"/>
    <path
      d="M335.325-238.616h21.624a3.321,3.321,0,0,0,3.322-3.322,3.324,3.324,0,0,0-3.322-3.322H335.325A3.325,3.325,0,0,0,332-241.938,3.321,3.321,0,0,0,335.325-238.616Z"
      transform="translate(511.132 14251.823)" fill="#fff"/>
    <path
      d="M335.325-236.183h21.624a3.324,3.324,0,0,0,3.322-3.322,3.325,3.325,0,0,0-3.322-3.322H335.325A3.325,3.325,0,0,0,332-239.5,3.325,3.325,0,0,0,335.325-236.183Z"
      transform="translate(511.132 14262.662)" fill="#fff"/>
    <path
      d="M335.325-233.745h21.624a3.325,3.325,0,0,0,3.322-3.322,3.326,3.326,0,0,0-3.322-3.328H335.325A3.326,3.326,0,0,0,332-237.067,3.325,3.325,0,0,0,335.325-233.745Z"
      transform="translate(511.132 14273.499)" fill="#fff"/>
    <path
      d="M334.163-235.636c1.036,0,2.073-.42,2.073-1.271v-9.023l5.051,9.181a2.325,2.325,0,0,0,2.313,1.113c1.037,0,2.073-.42,2.073-1.271v-16.878c0-.878-1.036-1.249-2.073-1.249s-2.073.371-2.073,1.249v9.023l-4.31-8.2c-1.009-1.942-1.565-2.073-3.055-2.073-1.036,0-2.073.4-2.073,1.276v16.851C332.09-236.056,333.127-235.636,334.163-235.636Z"
      transform="translate(511.519 14208.281)" fill="#fff"/>
    <path
      d="M337.107-235.636h9.464c.878,0,1.249-.927,1.249-1.778,0-.982-.447-1.827-1.249-1.827h-7.124v-4.511h3.988c.878,0,1.249-.851,1.249-1.566,0-.851-.453-1.62-1.249-1.62h-3.988v-4.484h7.124c.8,0,1.249-.851,1.249-1.833,0-.851-.371-1.778-1.249-1.778h-9.464c-.9,0-1.806.426-1.806,1.276v16.851C335.3-236.056,336.207-235.636,337.107-235.636Z"
      transform="translate(525.824 14208.281)" fill="#fff"/>
    <path
      d="M343.214-236.852c.295.927,1.517,1.38,2.739,1.38,1.2,0,2.471-.453,2.684-1.38l1.386-6.29,1.38,6.29c.213.927,1.489,1.38,2.684,1.38,1.227,0,2.422-.453,2.738-1.38l5.291-16.191a1.159,1.159,0,0,0,.055-.343c0-.906-1.489-1.647-2.684-1.647-.638,0-1.173.213-1.331.769l-4.042,13.616-2.1-8.968c-.158-.72-1.086-1.091-1.991-1.091s-1.833.371-2,1.091l-2.1,8.968-4.037-13.616c-.164-.556-.693-.769-1.331-.769-1.194,0-2.684.742-2.684,1.647a1.163,1.163,0,0,0,.055.343Z"
      transform="translate(537.287 14208.281)" fill="#fff"/>
    <path
      d="M348.952-238.954c-2.471,0-3.267-1.964-4.517-1.964-1.009,0-1.806,1.326-1.806,2.231,0,1.751,2.924,3.448,6.4,3.448,3.857,0,6.644-2.067,6.644-5.892,0-6.688-8.422-6.186-8.422-8.837,0-.824.769-1.593,2.657-1.593,2.177,0,2.684,1.009,3.638,1.009,1.173,0,1.653-1.462,1.653-2.177,0-2.073-3.884-2.335-5.291-2.335-3.322,0-6.808,1.511-6.808,5.493,0,6.208,8.428,5.651,8.428,8.864C351.533-239.434,350.18-238.954,348.952-238.954Z"
      transform="translate(558.475 14208.15)" fill="#fff"/>
    <path
      d="M370.844-245.26H341.725a3.324,3.324,0,0,0-3.322,3.322v26.544a3.324,3.324,0,0,0,3.322,3.322h29.119a3.325,3.325,0,0,0,3.322-3.322v-26.544A3.325,3.325,0,0,0,370.844-245.26Zm-3.322,26.539H345.047v-19.895h22.475Z"
      transform="translate(539.644 14251.823)" fill="#fff"/>
  </g>
</svg>
