<svg xmlns="http://www.w3.org/2000/svg" width="123px" height="113px" viewBox="0 0 123.801 113.093">
  <g transform="translate(-477.798 -4370.732)">
    <path
      d="M126.139-243.621a16.092,16.092,0,0,0-16.07,16.075,16.092,16.092,0,0,0,16.07,16.075,16.093,16.093,0,0,0,16.075-16.075A16.093,16.093,0,0,0,126.139-243.621Zm0,24.113a8.046,8.046,0,0,1-8.032-8.038,8.046,8.046,0,0,1,8.032-8.038,8.047,8.047,0,0,1,8.038,8.038A8.047,8.047,0,0,1,126.139-219.508Z"
      transform="translate(424.274 4614.641)" fill="#fff" stroke="#f06b79" stroke-linejoin="round"
      stroke-width="0.361"/>
    <path
      d="M222.536-185.236a12.069,12.069,0,0,0-11.411-12.038,12.14,12.14,0,0,0-.126-8.466c7.557-2.52,10.208-9.559,8.242-15.458a12.029,12.029,0,0,0-15.249-7.619l-1.245.413a20.009,20.009,0,0,0-16.8-9.068H159.574a20.112,20.112,0,0,0-20.081,20.091v8.032a19.98,19.98,0,0,0,4.032,12.059h-.01a12.068,12.068,0,0,0-12.059,12.054,11.892,11.892,0,0,0,.7,4.016H129.3a15.981,15.981,0,0,0,2.16-8.038,16.088,16.088,0,0,0-16.07-16.07,16.091,16.091,0,0,0-16.074,16.07,16.007,16.007,0,0,0,4.271,10.9,12.027,12.027,0,0,0-4.271,9.193,12.071,12.071,0,0,0,12.053,12.059h99.118a12.072,12.072,0,0,0,12.054-12.059,12.01,12.01,0,0,0-3.075-8.032A12.007,12.007,0,0,0,222.536-185.236Zm-16-35.963a4,4,0,0,1,5.078,2.541v.005a4.016,4.016,0,0,1-2.541,5.083c-3.127,1.041-16.5,5.5-18.617,6.2a4.028,4.028,0,0,0-2.745,3.812v6.265h-8.038v-11.17c.146-.648-.2-3.718,2.745-4.7Zm-5.507,23.7a4.024,4.024,0,0,1-5.078-2.547l-.2-.617h0l7.624-2.541.2.617A4.029,4.029,0,0,1,201.032-197.494Zm-53.5-19.887a12.068,12.068,0,0,1,12.054-12.059h26.367a12,12,0,0,1,8.717,3.729l-14.789,4.926a11.941,11.941,0,0,0-7.734,8.3,11.941,11.941,0,0,0-4.523-.884h-4.042v-4.016a4,4,0,0,0-4-4.021,4.018,4.018,0,0,0-4.016,4.021v8.032a4.018,4.018,0,0,0,4.016,4.021h8.038a4.017,4.017,0,0,1,4.016,4.016,4.022,4.022,0,0,1-4.016,4.021h-8.038a12.072,12.072,0,0,1-12.054-12.059ZM115.385-197.29a8.046,8.046,0,0,1,8.038,8.032,8.047,8.047,0,0,1-8.038,8.038,8.043,8.043,0,0,1-8.038-8.038A8.042,8.042,0,0,1,115.385-197.29Zm95.1,32.145H111.364a4.025,4.025,0,0,1-4.016-4.021,4.024,4.024,0,0,1,4.016-4.016h99.118a4.025,4.025,0,0,1,4.021,4.016A4.026,4.026,0,0,1,210.482-165.145Zm0-16.075H143.514a4.025,4.025,0,0,1-4.021-4.016,4.026,4.026,0,0,1,4.021-4.021h66.968a4.026,4.026,0,0,1,4.021,4.021A4.025,4.025,0,0,1,210.482-181.22Z"
      transform="translate(378.775 4640.644)" fill="#fff" stroke="#f06b79" stroke-linejoin="round"
      stroke-width="0.361"/>
  </g>
</svg>
