<svg xmlns="http://www.w3.org/2000/svg" width="28px" height="23px" viewBox="0 0 28.336 23.135">
  <path id="Path_643" data-name="Path 643" d="M29.137-31.5c0-1-1.927-2.3-4.312-2.686a60.444,60.444,0,0,0-19.671,0C2.768-33.8.841-32.5.841-31.5c0,.028.02.054.022.082a.872.872,0,0,0-.062.309v3.332a.874.874,0,0,0,.87.87H6.043a.874.874,0,0,0,.87-.87v-3.034a60.489,60.489,0,0,1,16.112-.006v3.242a.869.869,0,0,0,.867.87h4.375a.874.874,0,0,0,.87-.87v-3.474a.858.858,0,0,0-.051-.252A.688.688,0,0,0,29.137-31.5ZM26.9-21.26l-4.794-1.6a10.636,10.636,0,0,0-1.38-.334v-5.307H18.7v3.111H11.285v-3.111H9.256v5.341a10.43,10.43,0,0,0-1.232.306l-4.676,1.59a2.6,2.6,0,0,0-1.649,2.3V-13.6a1.744,1.744,0,0,0,1.74,1.74H26.814a1.744,1.744,0,0,0,1.74-1.74v-5.367A2.585,2.585,0,0,0,26.9-21.26ZM14.867-13.8a4.723,4.723,0,0,1-4.726-4.724,4.724,4.724,0,0,1,4.726-4.726,4.725,4.725,0,0,1,4.726,4.726A4.725,4.725,0,0,1,14.867-13.8Zm0-7.251a2.528,2.528,0,0,0-2.527,2.527,2.528,2.528,0,0,0,2.527,2.528,2.53,2.53,0,0,0,2.527-2.528A2.53,2.53,0,0,0,14.867-21.05Z" transform="translate(-0.801 34.995)" fill="#a2ce5f"/>
</svg>
