<svg xmlns="http://www.w3.org/2000/svg" width="85px" height="118px" viewBox="0 0 85.06 118.363">
  <g transform="translate(-1610.448 -4366.25)">
    <path
      d="M179.46-167.8a15.387,15.387,0,0,0-15.369,15.369,15.384,15.384,0,0,0,15.369,15.369,15.387,15.387,0,0,0,15.369-15.369A15.39,15.39,0,0,0,179.46-167.8Zm0,23.056a7.7,7.7,0,0,1-7.687-7.687,7.7,7.7,0,0,1,7.687-7.682,7.691,7.691,0,0,1,7.682,7.682A7.692,7.692,0,0,1,179.46-144.747Z"
      transform="translate(1462.006 4534.306)" fill="#fff" stroke="#f06b79" stroke-linejoin="round"
      stroke-width="0.505"/>
    <path
      d="M229.564-97.632a11.441,11.441,0,0,0,.732-4.095V-119.9a11.519,11.519,0,0,0-11.5-11.526H199.259c.214-2.777.3-5.538.3-8.257V-150.4a11.529,11.529,0,0,0-19.657-8.147l-15.369,15.369a11.523,11.523,0,0,0,0,16.3l9.219,9.214a80.37,80.37,0,0,1-10.657,24.908,11.515,11.515,0,0,0,3.2,15.986,11.525,11.525,0,0,0,15.986-3.2,101.991,101.991,0,0,0,12.781-28.165h12.211v6.4a11.453,11.453,0,0,0,.753,4.095A19.237,19.237,0,0,0,191.9-78.67a3.842,3.842,0,0,0,3.838,3.844h46.108a3.843,3.843,0,0,0,3.844-3.844A19.241,19.241,0,0,0,229.564-97.632ZM175.879-84.223a3.84,3.84,0,0,1-5.329,1.062,3.83,3.83,0,0,1-1.062-5.329A85.672,85.672,0,0,0,180-111.411a11.437,11.437,0,0,0,7.049,3.237A93.221,93.221,0,0,1,175.879-84.223ZM191.9-139.681c0,2.406-.094,4.842-.272,7.3l-5.36-5.355a3.841,3.841,0,0,0-5.433,0,3.841,3.841,0,0,0,0,5.433l9.936,9.936a3.814,3.814,0,0,1,1.13,2.714,3.826,3.826,0,0,1-1.13,2.719,3.851,3.851,0,0,1-5.433,0l-15.369-15.369a3.841,3.841,0,0,1,0-5.433c17.377-17.377,15.139-15.139,15.411-15.406A3.846,3.846,0,0,1,191.9-150.4Zm7.023,23.893a11.737,11.737,0,0,0-.094-7.975h19.966a3.868,3.868,0,0,1,3.844,3.864v18.172a3.845,3.845,0,0,1-3.844,3.838,3.863,3.863,0,0,1-3.865-3.838l-.005-10.244a3.8,3.8,0,0,0-3.817-3.818Zm1.318,33.3A11.571,11.571,0,0,1,211.1-90.2h15.369a11.583,11.583,0,0,1,10.872,7.713Z"
      transform="translate(1449.57 4559.168)" fill="#fff" stroke="#f06b79" stroke-linejoin="round"
      stroke-width="0.505"/>
  </g>
</svg>
