<svg xmlns="http://www.w3.org/2000/svg" width="24px" height="35px" viewBox="0 0 24.146 35.522">
  <path id="Path_646" data-name="Path 646"
        d="M11.31,26.426q-1.3-1.705-2.232-3.085A76.451,76.451,0,0,1,2.42,12.26q-.812-1.7-1.258-2.922A19.791,19.791,0,0,1,.269,6.293,11.537,11.537,0,0,1,3.07-4.139a11.632,11.632,0,0,1,9.7-4.059,11.039,11.039,0,0,1,4.992,1.36,12.263,12.263,0,0,1,3.978,3.43,11.639,11.639,0,0,1,2.151,4.749,12.451,12.451,0,0,1-.366,6.373,48.754,48.754,0,0,1-5.8,11.69q-1.177,1.827-3.694,5.358l-1.7,2.395a.992.992,0,0,0-.122.142q-.04.061-.3-.183A4.8,4.8,0,0,1,11.31,26.426Zm6.7-22.406a5.747,5.747,0,0,0-.67-2.862,6.067,6.067,0,0,0-1.989-2.232,5.364,5.364,0,0,0-2.78-.954A6.317,6.317,0,0,0,9.422-1.4,5.6,5.6,0,0,0,7.129.651,6.17,6.17,0,0,0,6.2,3.736,5.233,5.233,0,0,0,6.865,6.6,6.36,6.36,0,0,0,8.915,8.83a5.185,5.185,0,0,0,2.8.913A6.114,6.114,0,0,0,14.8,9.114a5.632,5.632,0,0,0,2.273-2.05A6.1,6.1,0,0,0,18.007,4.02Z"
        transform="translate(0 8.211)" fill="#68b1e1"/>
</svg>
