<svg xmlns="http://www.w3.org/2000/svg" width="119px" height="130px" viewBox="0 0 119.96 130.659">
  <g transform="translate(-201.72 -4949.639)">
    <path
      d="M117.3,11.357c7.664-8.951,12.449-21.965,12.449-31.816A31.635,31.635,0,0,0,98.14-52.069a31.635,31.635,0,0,0-31.61,31.61c0,9.851,4.784,22.866,12.449,31.816C32.6,26.944,37.466,69.846,39.5,78.59H156.783C163.7,48.626,145.389,19.562,117.3,11.357ZM98.14-47.851a27.357,27.357,0,0,1,24.923,16.1c-10.519,7.176-21.194-.926-21.194-.926a22.212,22.212,0,0,0-23.869,1L71.623-27.2A27.423,27.423,0,0,1,98.14-47.851ZM70.748-20.459c0-.334.026-.669.052-1l9.619-6.764a17.985,17.985,0,0,1,19.316-.823s11.754,9,24.794,1.363a27.652,27.652,0,0,1,1,7.2c0,14.969-12.269,37.938-27.393,37.938S70.748-5.49,70.748-20.459Zm82.537,94.831H43.022A52.569,52.569,0,0,1,62.852,24.14a59.82,59.82,0,0,0,5.247,17,16.867,16.867,0,0,0-6.919,19.83l3.5,9.928,7.948-2.8L71.237,64.11,67.25,65.5l-2.109-5.967A12.649,12.649,0,1,1,89.01,51.147l2.083,5.967L87.106,58.5l1.389,3.987,7.948-2.8-3.5-9.954A16.847,16.847,0,0,0,71.88,39.29a55.238,55.238,0,0,1-5.17-17.927,53.245,53.245,0,0,1,15.612-6.636c4.6,4.192,9.954,6.867,15.792,6.867s11.188-2.675,15.792-6.867a52.374,52.374,0,0,1,17.927,8.2A54.729,54.729,0,0,1,125.661,38.8a8.176,8.176,0,0,0-2.263-.36,8.436,8.436,0,1,0,8.437,8.436,8.354,8.354,0,0,0-2.521-5.993,59.6,59.6,0,0,0,6.173-15.123A52.906,52.906,0,0,1,153.285,74.372ZM127.642,46.98a4.218,4.218,0,1,1-4.219-4.218A4.237,4.237,0,0,1,127.642,46.98Z"
      transform="translate(163.432 5001.708)" fill="#fff"/>
  </g>
</svg>
