<svg xmlns="http://www.w3.org/2000/svg" width="92px" height="128px" viewBox="0 0 92.685 128.157">
  <g transform="translate(-494.931 -5541.846)">
    <path
      d="M194.221,14.687,186.446.482V-9.253a42.037,42.037,0,0,0-41.99-41.99,42.037,42.037,0,0,0-41.99,41.99v7.211a43.116,43.116,0,0,0,7.8,24.833V43.46a2.5,2.5,0,1,0,5,0V21.991a2.476,2.476,0,0,0-.477-1.471,38.175,38.175,0,0,1-7.314-22.563V-9.253a37.023,37.023,0,0,1,36.981-36.984A37.028,37.028,0,0,1,181.442-9.253V1.123a2.475,2.475,0,0,0,.309,1.2l8.079,14.766a2.465,2.465,0,0,1-2.159,3.651h-.016l-3.7-.017h-.01a2.506,2.506,0,0,0-2.5,2.5V34.4a10.838,10.838,0,0,1-10.825,10.826H163.1a6.193,6.193,0,0,0-6.183,6.184V70.541L122.89,55.248a2.5,2.5,0,1,0-2.054,4.566l37.557,16.88a2.507,2.507,0,0,0,3.531-2.283v-23a1.176,1.176,0,0,1,1.174-1.178h7.519A15.848,15.848,0,0,0,186.446,34.4V25.742l1.189.006h.037a7.47,7.47,0,0,0,6.549-11.061Z"
      transform="translate(392.465 5593.09)" fill="#fff"/>
    <path
      d="M160.253-27.638l-1.677-.2c-.11-.273-.22-.544-.341-.813l1.048-1.329a6.006,6.006,0,0,0-.115-7.953l-4.385-4.387a6,6,0,0,0-7.954-.117L145.5-41.387c-.267-.117-.54-.229-.812-.337l-.2-1.68a6,6,0,0,0-5.706-5.541h-6.2a6.009,6.009,0,0,0-5.711,5.541l-.194,1.68c-.272.107-.545.22-.812.336l-1.331-1.047a6,6,0,0,0-7.954.117l-4.385,4.388a6.005,6.005,0,0,0-.12,7.953l1.048,1.329c-.115.269-.225.54-.335.813l-1.682.2a6,6,0,0,0-5.538,5.707v6.2A6,6,0,0,0,111.1-10.02l1.682.2c.11.272.22.544.335.813l-1.048,1.329a6,6,0,0,0,.12,7.953l4.385,4.387a6,6,0,0,0,7.954.117l1.326-1.047c.272.117.54.229.817.337l.194,1.68a6.009,6.009,0,0,0,5.711,5.541h6.2a6,6,0,0,0,5.706-5.541l.2-1.68c.272-.108.545-.22.812-.337l1.331,1.047a6,6,0,0,0,7.954-.117L159.169.274a6,6,0,0,0,.115-7.954l-1.048-1.329c.121-.269.231-.54.341-.813l1.677-.2a6.006,6.006,0,0,0,5.543-5.707v-6.2A6,6,0,0,0,160.253-27.638Zm.534,11.911c0,.252-.424.653-1.121.736l-3.222.381a2.5,2.5,0,0,0-2.091,1.727,19.451,19.451,0,0,1-1.268,3.053,2.508,2.508,0,0,0,.257,2.7l2.012,2.549c.435.55.451,1.136.272,1.314l-4.385,4.387c-.178.178-.765.159-1.315-.274L147.38-1.162a2.508,2.508,0,0,0-2.7-.257,19.282,19.282,0,0,1-3.055,1.266A2.505,2.505,0,0,0,139.9,1.938l-.382,3.222c-.084.7-.482,1.123-.734,1.123h-6.2c-.252,0-.655-.427-.739-1.123l-.377-3.222a2.5,2.5,0,0,0-1.729-2.092,19.644,19.644,0,0,1-3.055-1.266,2.481,2.481,0,0,0-1.147-.28,2.5,2.5,0,0,0-1.551.538L121.428.848c-.55.433-1.132.452-1.31.274l-4.391-4.387c-.178-.178-.157-.764.278-1.314l2.007-2.549a2.5,2.5,0,0,0,.257-2.7,19.464,19.464,0,0,1-1.263-3.053,2.5,2.5,0,0,0-2.091-1.727l-3.222-.381c-.7-.083-1.127-.484-1.127-.736v-6.2c0-.252.43-.653,1.127-.736l3.222-.381a2.5,2.5,0,0,0,2.091-1.727,19.505,19.505,0,0,1,1.263-3.053,2.487,2.487,0,0,0-.257-2.7l-2.007-2.55c-.435-.55-.451-1.136-.272-1.314l4.386-4.387c.178-.178.765-.159,1.315.274l2.546,2.01a2.507,2.507,0,0,0,2.7.257,19.426,19.426,0,0,1,3.049-1.265,2.5,2.5,0,0,0,1.729-2.092l.377-3.222c.084-.7.487-1.123.739-1.123h6.2c.252,0,.65.428.734,1.123l.382,3.222a2.505,2.505,0,0,0,1.724,2.091,19.284,19.284,0,0,1,3.055,1.266,2.508,2.508,0,0,0,2.7-.257l2.546-2.01c.55-.434,1.137-.452,1.315-.274l4.385,4.387c.178.178.162.764-.272,1.314l-2.012,2.549a2.508,2.508,0,0,0-.257,2.7,19.451,19.451,0,0,1,1.268,3.053,2.5,2.5,0,0,0,2.091,1.726l3.222.381c.7.083,1.121.484,1.121.736Z"
      transform="translate(405.595 5602.836)" fill="#fff"/>
    <path
      d="M121.558-45.614a12.677,12.677,0,0,0-12.664,12.663,12.677,12.677,0,0,0,12.664,12.663,12.681,12.681,0,0,0,12.664-12.663A12.68,12.68,0,0,0,121.558-45.614Zm0,20.32a7.668,7.668,0,0,1-7.66-7.657,7.668,7.668,0,0,1,7.66-7.657,7.663,7.663,0,0,1,7.655,7.657A7.663,7.663,0,0,1,121.558-25.294Z"
      transform="translate(419.717 5616.958)" fill="#fff"/>
    <path
      d="M113.337-31.777a2.5,2.5,0,0,1,2.5,2.5,2.5,2.5,0,0,1-2.5,2.5,2.5,2.5,0,0,1-2.5-2.5A2.5,2.5,0,0,1,113.337-31.777Z"
      transform="translate(427.937 5675.621)" fill="#fff" fill-rule="evenodd"/>
  </g>
</svg>
