<svg xmlns="http://www.w3.org/2000/svg" width="115px" height="125px" viewBox="0 0 115.551 125.254">
  <g transform="translate(-761.176 -4363.095)">
    <path
      d="M257.915-229.675A52.333,52.333,0,0,0,220.672-245.1a52.333,52.333,0,0,0-37.244,15.427A52.335,52.335,0,0,0,168-192.865l-9.58,19.171a1.831,1.831,0,0,0,.7,2.39L168-165.976v28.3a1.833,1.833,0,0,0,1.836,1.83h17.717v13.811a1.833,1.833,0,0,0,1.835,1.83,1.832,1.832,0,0,0,1.83-1.83V-137.68a1.833,1.833,0,0,0-1.83-1.835H171.667v-27.5a1.836,1.836,0,0,0-.889-1.574l-8.32-4.989,9.015-18.036a1.857,1.857,0,0,0,.194-.821,49.061,49.061,0,0,1,49-49,49.061,49.061,0,0,1,49,49A48.747,48.747,0,0,1,250.83-153.8a1.829,1.829,0,0,0-.706,1.443v30.32a1.833,1.833,0,0,0,1.835,1.83,1.832,1.832,0,0,0,1.83-1.83v-29.436a52.356,52.356,0,0,0,19.553-40.957A52.32,52.32,0,0,0,257.915-229.675Z"
      transform="translate(603.204 4608.377)" fill="#fff" stroke="#fff" stroke-linejoin="round" stroke-width="0.361"/>
    <path
      d="M211.733-222.588l-7.316-7.316a1.834,1.834,0,0,0-2.594,0,1.827,1.827,0,0,0,0,2.588l6.019,6.019-3.138,3.143a7.662,7.662,0,0,0-1.265-1.673,7.77,7.77,0,0,0-8.707-1.532,7.784,7.784,0,0,0-2.181,1.532,7.778,7.778,0,0,0-1.537,8.712,7.746,7.746,0,0,0,1.537,2.175,7.7,7.7,0,0,0,1.668,1.271l-3.138,3.137-5.292-5.292a1.85,1.85,0,0,0-3.127,1.2,4.069,4.069,0,0,1-4.027,3.807,4,4,0,0,1-2.85-1.182,4.069,4.069,0,0,1,0-5.7,4.022,4.022,0,0,1,2.625-1.177,1.85,1.85,0,0,0,1.2-3.127l-5.292-5.292,16.765-16.76,4.246,4.246a1.834,1.834,0,0,0,2.594,0,1.834,1.834,0,0,0,0-2.594l-5.543-5.543a1.834,1.834,0,0,0-2.594,0l-19.359,19.359a1.837,1.837,0,0,0,0,2.589l4.44,4.44a7.657,7.657,0,0,0-1.673,1.265,7.77,7.77,0,0,0-1.532,8.707,7.752,7.752,0,0,0,1.532,2.181,7.65,7.65,0,0,0,5.444,2.254,7.641,7.641,0,0,0,5.444-2.254,7.825,7.825,0,0,0,1.271-1.668l4.435,4.434a1.853,1.853,0,0,0,2.594,0l6.584-6.589a1.848,1.848,0,0,0-1.192-3.127,4.029,4.029,0,0,1-2.63-1.171,4.071,4.071,0,0,1,.005-5.705,4.069,4.069,0,0,1,5.7,0,4.06,4.06,0,0,1,1.177,2.63,1.848,1.848,0,0,0,3.127,1.192L211.733-220A1.827,1.827,0,0,0,211.733-222.588Z"
      transform="translate(652.545 4619.447)" fill="#fff" stroke="#fff" stroke-linejoin="round" stroke-width="0.361"/>
    <path
      d="M219.669-210.248H213.4a7.677,7.677,0,0,0,.282-2.076,7.709,7.709,0,0,0-7.7-7.7,7.709,7.709,0,0,0-7.7,7.7,7.68,7.68,0,0,0,.282,2.076h-4.44v-7.483a1.847,1.847,0,0,0-3.054-1.365,4.044,4.044,0,0,1-2.688,1.025,4.034,4.034,0,0,1-4.032-4.032,4.034,4.034,0,0,1,4.032-4.032,4.044,4.044,0,0,1,2.688,1.025,1.846,1.846,0,0,0,3.054-1.365v-9.313a1.835,1.835,0,0,0-1.836-1.836H164.922a1.835,1.835,0,0,0-1.835,1.836v54.746a1.835,1.835,0,0,0,1.835,1.836h54.747a1.835,1.835,0,0,0,1.835-1.836v-27.376A1.833,1.833,0,0,0,219.669-210.248Zm-52.916-23.71h23.71v4.44a7.682,7.682,0,0,0-2.076-.282,7.709,7.709,0,0,0-7.7,7.7,7.709,7.709,0,0,0,7.7,7.7,7.677,7.677,0,0,0,2.076-.282v4.44H182.98a1.849,1.849,0,0,0-1.365,3.054,4.018,4.018,0,0,1,1.025,2.688,4.034,4.034,0,0,1-4.032,4.032,4.034,4.034,0,0,1-4.032-4.032,4.024,4.024,0,0,1,1.03-2.688,1.849,1.849,0,0,0-1.37-3.054h-7.483Zm24.793,41.929a1.826,1.826,0,0,0-1.083,1.673v7.483h-23.71v-23.71h4.44a7.892,7.892,0,0,0-.282,2.076,7.709,7.709,0,0,0,7.7,7.7,7.709,7.709,0,0,0,7.7-7.7,7.68,7.68,0,0,0-.282-2.076h4.44v7.483a1.849,1.849,0,0,0,3.054,1.365,4.028,4.028,0,0,1,2.688-1.025,4.038,4.038,0,0,1,4.037,4.032A4.038,4.038,0,0,1,196.2-190.7a4.034,4.034,0,0,1-2.688-1.03A1.828,1.828,0,0,0,191.545-192.029Zm26.293,9.157h-23.71v-4.445a7.686,7.686,0,0,0,2.076.288,7.709,7.709,0,0,0,7.7-7.7,7.713,7.713,0,0,0-7.7-7.7,7.682,7.682,0,0,0-2.076.288v-4.44h7.483a1.847,1.847,0,0,0,1.365-3.054,4.028,4.028,0,0,1-1.025-2.688,4.038,4.038,0,0,1,4.032-4.037,4.038,4.038,0,0,1,4.032,4.037,4.054,4.054,0,0,1-1.025,2.688,1.846,1.846,0,0,0,1.365,3.054h7.483Z"
      transform="translate(623.76 4640.005)" fill="#fff" stroke="#fff" stroke-linejoin="round" stroke-width="0.361"/>
  </g>
</svg>
