<svg xmlns="http://www.w3.org/2000/svg" width="138px" height="118px" viewBox="0 0 138.732 118.555">
  <g transform="translate(-755.434 -5540.795)">
    <path
      d="M160.7-24.167A24.428,24.428,0,0,0,185.1.234a24.428,24.428,0,0,0,24.4-24.4,24.428,24.428,0,0,0-24.4-24.4A24.428,24.428,0,0,0,160.7-24.167ZM185.1-6.682a17.5,17.5,0,0,1-17.484-17.486,17.354,17.354,0,0,1,2.552-9.05c3.924,3.989,9.337,5.574,14.791,6.734,6.853,1.457,14.168,2.18,15.661,10.254.005.021.01.038.016.058A17.5,17.5,0,0,1,185.1-6.682Zm17.217-20.453C195-33.15,182.044-31,174.86-38.312A17.385,17.385,0,0,1,185.1-41.654,17.5,17.5,0,0,1,202.321-27.135Z"
      transform="translate(614.251 5604.431)" fill="#fff" stroke="#a2cf60" stroke-linejoin="round"
      stroke-width="0.402"/>
    <path
      d="M196.138-51.4A14.226,14.226,0,0,0,181.929-37.2v1.491L170.475-19.372,181.929-20.7V.562a14.225,14.225,0,0,0,14.21,14.206h27.943A14.221,14.221,0,0,0,238.285.562V-37.2a14.222,14.222,0,0,0-14.2-14.207H196.138Zm35.231,14.2V.559a7.3,7.3,0,0,1-7.293,7.291H196.138A7.3,7.3,0,0,1,188.845.559v-29.02l-3.862.447,3.862-5.512V-37.2a7.3,7.3,0,0,1,7.293-7.291h27.943A7.3,7.3,0,0,1,231.369-37.2Z"
      transform="translate(655.679 5592.402)" fill="#fff" stroke="#a2cf60" stroke-linejoin="round"
      stroke-width="0.402"/>
    <path
      d="M160.474,13.582H288.356a3.458,3.458,0,1,0,0-6.916h-48.8a10.3,10.3,0,0,0,1.174-4.745l-4.3-29.4c-.173-6.3-6.125-11.384-13.424-11.384H207.6l-6.591,6.807-.094-.254-.194.549-.058.063-7.393-7.165H178.461c-7.293,0-13.251,5.081-13.424,11.384l-4.265,28.9-.037.5a10.291,10.291,0,0,0,1.174,4.745h-1.436a3.458,3.458,0,1,0,0,6.916Zm7.189-11.454L171.912-26.7l.037-.5c0-2.573,2.981-4.747,6.513-4.747h12l7.676,7.446,5.444-.277,6.942-7.167h12.481c3.526,0,6.513,2.174,6.513,4.745l4.291,29.336c-.157,2.48-3.076,4.538-6.508,4.538H174.165C170.733,6.666,167.815,4.612,167.663,2.128Z"
      transform="translate(598.619 5645.567)" fill="#fff" stroke="#a2cf60" stroke-linejoin="round"
      stroke-width="0.402"/>
    <path
      d="M184.371-34.618v20.351a4.544,4.544,0,0,1-1.006,3.2,3.341,3.341,0,0,1-2.557,1.084,3.179,3.179,0,0,1-2.515-1.109,4.684,4.684,0,0,1-.964-3.173V-34.411a4.523,4.523,0,0,1,.964-3.147,3.25,3.25,0,0,1,2.515-1.057,3.38,3.38,0,0,1,2.557,1.057A4.1,4.1,0,0,1,184.371-34.618Zm-3.484-7.274a3.717,3.717,0,0,1-2.515-.9,3.191,3.191,0,0,1-1.043-2.554,3.176,3.176,0,0,1,1.069-2.463,3.6,3.6,0,0,1,2.489-.967,3.7,3.7,0,0,1,2.426.877,3.137,3.137,0,0,1,1.058,2.553,3.225,3.225,0,0,1-1.032,2.541A3.573,3.573,0,0,1,180.887-41.891Z"
      transform="translate(684.737 5603.542)" fill="#fff" stroke="#a2cf60" stroke-linejoin="round"
      stroke-width="0.402"/>
  </g>
</svg>
