<svg xmlns="http://www.w3.org/2000/svg" width="124px" height="124px" viewBox="0 0 124.21 124.209">
  <g transform="translate(-1033.595 -4360.907)">
    <path
      d="M84.093-109.316l-7.246-3.624a31.4,31.4,0,0,0,9.415-4.241,3.728,3.728,0,0,0,1.331-4.508,49.282,49.282,0,0,1-3.16-17.262,19.606,19.606,0,0,0-17.5-19.427,20.2,20.2,0,0,0-3.644,0,19.607,19.607,0,0,0-17.5,19.427,49.3,49.3,0,0,1-3.159,17.262,3.728,3.728,0,0,0,1.332,4.508,31.385,31.385,0,0,0,9.415,4.241l-7.246,3.624a7.608,7.608,0,0,0-4.231,6.845v11.949a1.82,1.82,0,0,0,1.819,1.82,1.82,1.82,0,0,0,1.82-1.82v-11.949a3.994,3.994,0,0,1,2.219-3.593l5.743-2.871a13.55,13.55,0,0,0,11.61,6.62,13.458,13.458,0,0,0,11.61-6.62l5.743,2.871a3.993,3.993,0,0,1,2.219,3.593v11.949A1.82,1.82,0,0,0,86.5-88.7a1.82,1.82,0,0,0,1.819-1.82v-11.949A7.607,7.607,0,0,0,84.093-109.316Zm-18.98,3.363a9.884,9.884,0,0,1-8.34-4.618l1.17-.586a5.675,5.675,0,0,0,3.155-5.1V-118.4a15.413,15.413,0,0,0,4.015.533,15.346,15.346,0,0,0,4.014-.533v2.144a5.675,5.675,0,0,0,3.156,5.1l1.175.591A9.83,9.83,0,0,1,65.113-105.954Zm7.729-9.753a2.061,2.061,0,0,1-.076-.554v-3.65a15.468,15.468,0,0,0,5.772-5.778,11.275,11.275,0,0,0-2.193-13.785c-2.68-2.453-7.479-5.376-15.122-5.376a1.828,1.828,0,0,0-1.287.533l-3.889,3.891a1.819,1.819,0,0,0,0,2.573,1.819,1.819,0,0,0,2.573,0l3.346-3.347a17.845,17.845,0,0,1,11.923,4.408,7.612,7.612,0,0,1,1.485,9.3,11.828,11.828,0,0,1-10.262,5.977A11.808,11.808,0,0,1,53.319-133.3a1.82,1.82,0,0,0-1.819-1.82,1.82,1.82,0,0,0-1.819,1.82,15.442,15.442,0,0,0,7.778,13.392v3.65a2.091,2.091,0,0,1-.076.554,30.589,30.589,0,0,1-11.332-4.45.121.121,0,0,1-.059-.141,53.177,53.177,0,0,0,3.437-18.638,15.937,15.937,0,0,1,14.195-15.819,16.662,16.662,0,0,1,2.978,0A15.937,15.937,0,0,1,80.8-138.935,53.177,53.177,0,0,0,84.233-120.3a.121.121,0,0,1-.059.141A30.6,30.6,0,0,1,72.842-115.706Z"
      transform="translate(991.693 4573.818)" fill="#fff"/>
    <path
      d="M45.208-147.3a1.817,1.817,0,0,0-1.819,1.82v7.776a1.82,1.82,0,0,0,1.819,1.82,1.82,1.82,0,0,0,1.82-1.82v-7.776A1.817,1.817,0,0,0,45.208-147.3Z"
      transform="translate(997.984 4621.004)" fill="#fff"/>
    <path
      d="M50.415-147.3a1.817,1.817,0,0,0-1.82,1.82v7.776a1.82,1.82,0,0,0,1.82,1.82,1.82,1.82,0,0,0,1.819-1.82v-7.776A1.817,1.817,0,0,0,50.415-147.3Z"
      transform="translate(1020.004 4621.004)" fill="#fff"/>
    <path
      d="M77.394-153.165c-.264-.178-6.58-4.283-16.923-2.217a1.824,1.824,0,0,0-1.463,1.783v1.945a1.82,1.82,0,0,0,1.819,1.82,1.821,1.821,0,0,0,1.82-1.82v-.408a22.588,22.588,0,0,1,8.961.418,14.1,14.1,0,0,1,3.775,1.511,1.8,1.8,0,0,0,1,.3,1.811,1.811,0,0,0,1.515-.811A1.816,1.816,0,0,0,77.394-153.165Z"
      transform="translate(1064.043 4584.386)" fill="#fff"/>
    <path
      d="M101.379-112.719l-9.248-3.467a2.085,2.085,0,0,1-1.343-1.94v-4.665c.4-.314.779-.654,1.148-1.009a15.312,15.312,0,0,0,4.686-11.076v-3.462l.52-1.041a13.548,13.548,0,0,0,1.424-6.035v-10.856a1.82,1.82,0,0,0-1.819-1.82H76.483a12.686,12.686,0,0,0-12.671,12.676,13.555,13.555,0,0,0,1.424,6.035l.521,1.041v2.892a16.255,16.255,0,0,0,5.834,12.477v4.842a2.085,2.085,0,0,1-1.343,1.94L61-112.719a7.69,7.69,0,0,0-4.966,7.164v13.461a1.82,1.82,0,0,0,1.819,1.82,1.82,1.82,0,0,0,1.82-1.82v-13.461a4.024,4.024,0,0,1,2.6-3.755l9.248-3.472a5.683,5.683,0,0,0,1.379-.753l6.465,4.848v16.593a1.82,1.82,0,0,0,1.82,1.82,1.82,1.82,0,0,0,1.819-1.82v-16.593l6.465-4.848a5.684,5.684,0,0,0,1.379.753l9.249,3.472a4.025,4.025,0,0,1,2.6,3.755v13.461a1.82,1.82,0,0,0,1.819,1.82,1.82,1.82,0,0,0,1.819-1.82v-13.461A7.688,7.688,0,0,0,101.379-112.719Zm-20.19.847-6.2-4.644a5.677,5.677,0,0,0,.237-1.611V-120.7a14.791,14.791,0,0,0,5.486,1.255c.16,0,.32.005.479.005a15.389,15.389,0,0,0,5.954-1.192v2.51a5.677,5.677,0,0,0,.237,1.611ZM89.4-126.414a11.705,11.705,0,0,1-8.577,3.326c-6.3-.188-11.429-5.731-11.429-12.357v-3.321a1.837,1.837,0,0,0-.192-.816L68.49-141a9.92,9.92,0,0,1-1.039-4.414,9.042,9.042,0,0,1,9.032-9.031H94.927v9.036A9.908,9.908,0,0,1,93.888-141l-.713,1.422a1.837,1.837,0,0,0-.192.816v3.891A11.689,11.689,0,0,1,89.4-126.414Z"
      transform="translate(1051.46 4575.39)" fill="#fff"/>
    <path
      d="M59.712-147.676a1.82,1.82,0,0,0-1.819,1.82v9.721a1.82,1.82,0,0,0,1.819,1.82,1.82,1.82,0,0,0,1.82-1.82v-9.721A1.82,1.82,0,0,0,59.712-147.676Z"
      transform="translate(1059.324 4619.431)" fill="#fff"/>
    <path
      d="M64.919-147.676a1.82,1.82,0,0,0-1.82,1.82v9.721a1.82,1.82,0,0,0,1.82,1.82,1.82,1.82,0,0,0,1.819-1.82v-9.721A1.82,1.82,0,0,0,64.919-147.676Z"
      transform="translate(1081.344 4619.431)" fill="#fff"/>
    <path
      d="M115.5-161.1h-.125v-.126a7.66,7.66,0,0,0-7.654-7.651H53.274a7.66,7.66,0,0,0-7.654,7.651v31.115a7.664,7.664,0,0,0,7.654,7.656h7.9v.126a7.66,7.66,0,0,0,7.654,7.651h1.559l-.73,2.923a2.765,2.765,0,0,0,1.147,2.991,2.78,2.78,0,0,0,1.563.486,2.779,2.779,0,0,0,1.641-.544l8.053-5.857h1.775l15.176,10.119a2.783,2.783,0,0,0,1.549.471,2.8,2.8,0,0,0,1.515-.45,2.789,2.789,0,0,0,1.238-2.8l-1.223-7.337H115.5a7.66,7.66,0,0,0,7.654-7.651v-31.115A7.664,7.664,0,0,0,115.5-161.1ZM71.3-118.31H68.832a4.022,4.022,0,0,1-4.015-4.016v-.126h7.518Zm2.456,5.177,2.675-10.7a1.812,1.812,0,0,0-.331-1.558,1.811,1.811,0,0,0-1.434-.7H53.274a4.018,4.018,0,0,1-4.015-4.016v-31.115a4.017,4.017,0,0,1,4.015-4.011h54.452a4.017,4.017,0,0,1,4.015,4.011v31.115a4.018,4.018,0,0,1-4.015,4.016H92.168a1.8,1.8,0,0,0-1.07.35Zm45.763-9.193a4.017,4.017,0,0,1-4.015,4.011H99.947a1.82,1.82,0,0,0-1.388.643,1.835,1.835,0,0,0-.406,1.48l1.254,7.525L86.05-117.573l6.71-4.879h14.966a7.664,7.664,0,0,0,7.654-7.656v-27.35h.125a4.018,4.018,0,0,1,4.015,4.016Z"
      transform="translate(1007.421 4529.78)" fill="#fff"/>
    <path
      d="M55.876-166.642H50.043a1.82,1.82,0,0,0-1.819,1.82A1.82,1.82,0,0,0,50.043-163h5.833a1.82,1.82,0,0,0,1.819-1.82A1.82,1.82,0,0,0,55.876-166.642Z"
      transform="translate(1018.431 4539.216)" fill="#fff"/>
    <path
      d="M77.927-166.642H52.646a1.82,1.82,0,0,0-1.819,1.82A1.82,1.82,0,0,0,52.646-163H77.927a1.82,1.82,0,0,0,1.819-1.82A1.82,1.82,0,0,0,77.927-166.642Z"
      transform="translate(1029.441 4539.216)" fill="#fff"/>
    <path
      d="M88.937-164.783H50.043a1.82,1.82,0,0,0-1.819,1.82,1.82,1.82,0,0,0,1.819,1.82H88.937a1.82,1.82,0,0,0,1.819-1.82A1.82,1.82,0,0,0,88.937-164.783Z"
      transform="translate(1018.431 4547.079)" fill="#fff"/>
    <path
      d="M75.324-162.923H50.043a1.82,1.82,0,0,0-1.819,1.82,1.82,1.82,0,0,0,1.819,1.82H75.324a1.82,1.82,0,0,0,1.819-1.82A1.82,1.82,0,0,0,75.324-162.923Z"
      transform="translate(1018.431 4554.945)" fill="#fff"/>
    <path
      d="M62.2-162.923H56.365a1.82,1.82,0,0,0-1.819,1.82,1.82,1.82,0,0,0,1.819,1.82H62.2a1.82,1.82,0,0,0,1.819-1.82A1.82,1.82,0,0,0,62.2-162.923Z"
      transform="translate(1045.17 4554.945)" fill="#fff"/>
  </g>
</svg>
