<?xml version="1.0" encoding="utf-8"?>
<!-- Generator: Adobe Illustrator 21.1.0, SVG Export Plug-In . SVG Version: 6.00 Build 0)  -->
<svg version="1.1" id="Layer_1" xmlns="http://www.w3.org/2000/svg" xmlns:xlink="http://www.w3.org/1999/xlink" x="0px" y="0px"
	 viewBox="0 0 109 136.8" height="137px" width="109px" style="enable-background:new 0 0 109 136.8;" xml:space="preserve">
<g transform="translate(-897.665 -3132.095)">
	<path style="fill:#FFFFFF;stroke:#FFFFFF;stroke-width:0.505;stroke-linejoin:round;" d="M918.2,3229.3c-1.2,5.2-6.3,8.4-11.5,7.3
		c0,0,0,0,0,0c-5.2-1.2-8.4-6.3-7.3-11.5c0,0,0,0,0,0c1.2-5.2,6.3-8.4,11.5-7.3C916,3219,919.3,3224.1,918.2,3229.3"/>
	<path style="fill:#FFFFFF;stroke:#FFFFFF;stroke-width:0.505;stroke-linejoin:round;" d="M912,3229c-0.4,1.7-2,2.7-3.7,2.4
		c-1.7-0.4-2.7-2-2.4-3.7c0.4-1.7,2-2.7,3.7-2.4c0,0,0,0,0,0C911.3,3225.7,912.4,3227.3,912,3229"/>
	<path style="fill:#FFFFFF;stroke:#FFFFFF;stroke-width:0.505;stroke-linejoin:round;" d="M951,3137.1c0,1.7-1.4,3.1-3.1,3.1
		c0,0,0,0,0,0c-1.7,0-3.1-1.4-3.1-3.1c0,0,0,0,0,0c0-1.7,1.4-3.1,3.1-3.1l0,0C949.6,3134,951,3135.4,951,3137.1
		C951,3137.1,951,3137.1,951,3137.1"/>
	<path style="fill:#FFFFFF;stroke:#FFFFFF;stroke-width:0.505;stroke-linejoin:round;" d="M989.7,3137.1c0,1.7-1.4,3.1-3.1,3.1
		c0,0,0,0,0,0c-1.7,0-3.1-1.4-3.1-3.1c0,0,0,0,0,0c0-1.7,1.4-3.1,3.1-3.1c0,0,0,0,0,0C988.3,3134,989.7,3135.3,989.7,3137.1
		L989.7,3137.1"/>
	<path style="fill:#FFFFFF;stroke:#FFFFFF;stroke-width:0.505;stroke-linejoin:round;" d="M989.5,3138.2c4.5,1.5,8.1,3.7,10.6,7
		c2.5,3.3,4,7.7,4,13.6c0,9.8-4,22-10.6,31.5c-3,4.6-6.9,8.6-11.4,11.8c-4,2.9-8.7,4.5-13.6,4.6c-4.9-0.1-9.7-1.7-13.6-4.6
		c-6.4-4.4-11.9-11.5-15.8-19.4s-6.2-16.6-6.2-23.9c0-5.4,1.2-9.4,3.2-12.6c2.1-3.2,5.2-5.6,8.7-7c0.6-0.3,0.9-0.9,0.6-1.5
		c0,0,0,0,0,0c-0.3-0.6-0.9-0.9-1.5-0.6c-4,1.6-7.3,4.4-9.7,7.9c-2.3,3.6-3.6,8.2-3.6,13.9c0,10.5,4.2,22.9,11,32.8
		c3.2,4.8,7.3,9.1,12,12.4c4.4,3.2,9.6,4.9,15,5c5.4-0.1,10.6-1.9,15-5c6.8-4.7,12.5-12.1,16.5-20.3c4-8.2,6.4-17.1,6.4-25
		c0-6.4-1.6-11.3-4.4-15.1c-2.9-3.7-7-6.2-11.8-7.8c-0.6-0.2-1.3,0.1-1.5,0.7c0,0,0,0,0,0C988.5,3137.3,988.9,3138,989.5,3138.2z"/>
	<path style="fill:#FFFFFF;stroke:#FFFFFF;stroke-width:0.505;stroke-linejoin:round;" d="M993.7,3190.2c-2.6,2.6-7.1,4.6-11.9,5.9
		c-4.3,1.2-8.8,1.8-13.3,1.9c-4.5-0.1-8.9-0.8-13.2-2c-4.8-1.3-9.4-3.3-11.9-5.8c-0.5-0.4-1.2-0.4-1.7,0c0,0,0,0,0,0
		c-0.4,0.5-0.4,1.2,0,1.7c0,0,0,0,0,0c3.1,2.9,7.9,4.9,12.9,6.3c4.5,1.3,9.1,1.9,13.8,2.1c4.7-0.1,9.3-0.7,13.9-1.9
		c5-1.3,9.8-3.4,12.9-6.5c0.5-0.5,0.5-1.2,0-1.7C994.9,3189.7,994.1,3189.7,993.7,3190.2z"/>
	<path style="fill:#FFFFFF;stroke:#FFFFFF;stroke-width:0.505;stroke-linejoin:round;" d="M918.1,3229.2l-1.1-0.3
		c-0.9,3.9-4.3,6.6-8.2,6.6c-0.6,0-1.2-0.1-1.9-0.2c-3.9-0.9-6.6-4.3-6.6-8.2c0-0.6,0.1-1.2,0.2-1.8c0.9-3.9,4.3-6.6,8.2-6.6
		c0.6,0,1.2,0.1,1.9,0.2c3.9,0.9,6.6,4.3,6.6,8.2c0,0.6-0.1,1.2-0.2,1.9L918.1,3229.2l1.1,0.2c0.2-0.8,0.3-1.6,0.3-2.4
		c0-5-3.5-9.4-8.4-10.5c-0.8-0.2-1.6-0.3-2.4-0.3c-5,0-9.4,3.5-10.5,8.4c-0.2,0.8-0.3,1.6-0.3,2.4c0,5,3.5,9.4,8.4,10.5
		c0.8,0.2,1.6,0.3,2.4,0.3c5,0,9.4-3.5,10.5-8.4L918.1,3229.2z"/>
	<path style="fill:#FFFFFF;stroke:#FFFFFF;stroke-width:0.505;stroke-linejoin:round;" d="M911.7,3227.8c-0.4,1.7-2,2.7-3.7,2.4
		c0,0,0,0,0,0c-1.7-0.4-2.7-2-2.4-3.7c0,0,0,0,0,0c0.4-1.7,2-2.7,3.7-2.4c0,0,0,0,0,0C911.1,3224.4,912.1,3226.1,911.7,3227.8
		C911.7,3227.8,911.7,3227.8,911.7,3227.8"/>
	<path style="fill:#FFFFFF;stroke:#FFFFFF;stroke-width:0.505;stroke-linejoin:round;" d="M911.7,3227.8l-1.1-0.3
		c-0.2,0.9-1,1.5-1.9,1.5l-0.4,0c-0.9-0.2-1.5-1-1.5-1.9l0-0.4l0,0c0.2-0.9,1-1.5,1.9-1.5l0.4,0c0.9,0.2,1.5,1,1.5,1.9l0,0.4v0
		L911.7,3227.8l1.1,0.2c0.1-0.3,0.1-0.6,0.1-0.9c0-2-1.4-3.7-3.3-4.2c-0.3-0.1-0.6-0.1-0.9-0.1c-2,0-3.7,1.4-4.2,3.3l1.1,0.3
		l-1.1-0.3c-0.1,0.3-0.1,0.6-0.1,1c0,2,1.4,3.7,3.3,4.2c0.3,0.1,0.6,0.1,0.9,0.1c2,0,3.7-1.4,4.2-3.3v0L911.7,3227.8z"/>
	<path style="fill:#FFFFFF;stroke:#FFFFFF;stroke-width:0.505;stroke-linejoin:round;" d="M950.9,3136.6h-1.2c0,1.1-0.9,1.9-1.9,1.9
		c-1.1,0-1.9-0.9-1.9-1.9c0-1.1,0.9-1.9,1.9-1.9c1.1,0,1.9,0.9,1.9,1.9h2.3c0-2.4-1.9-4.3-4.3-4.3c0,0,0,0,0,0
		c-2.4,0-4.3,1.9-4.3,4.3c0,2.4,1.9,4.3,4.3,4.3c2.4,0,4.3-1.9,4.3-4.3L950.9,3136.6z"/>
	<path style="fill:#FFFFFF;stroke:#FFFFFF;stroke-width:0.505;stroke-linejoin:round;" d="M989.7,3136.6h-1.2c0,1.1-0.9,1.9-1.9,1.9
		c-1.1,0-1.9-0.9-1.9-1.9c0-1.1,0.9-1.9,1.9-1.9c1.1,0,1.9,0.9,1.9,1.9h2.3c0-2.4-1.9-4.3-4.3-4.3c-2.4,0-4.3,1.9-4.3,4.3
		c0,0,0,0,0,0c0,2.4,1.9,4.3,4.3,4.3c2.4,0,4.3-1.9,4.3-4.3H989.7z"/>
	<path style="fill:#FFFFFF;stroke:#FFFFFF;stroke-width:0.505;stroke-linejoin:round;" d="M908.4,3230.8
		c2.2,11.3,6.5,20.7,12.1,27.3c5.6,6.7,12.5,10.5,20,10.5c0.4,0,0.7,0,1.1,0c4.6-0.1,9-1.6,12.8-4.3c5.4-3.8,9.2-10.1,11.7-18.3
		c2.5-8.2,3.7-18.5,3.7-30.4v-0.1h-0.2l0.2,0v0h-0.2l0.2,0v-0.1l0-7.5c0-0.6-0.5-1.2-1.2-1.2c0,0,0,0,0,0c-0.6,0-1.2,0.5-1.2,1.2
		l0,7.5l1.2,0l-1.2-0.1v0.2c0,15.7-2.1,28.3-6.4,36.9c-1.8,3.9-4.6,7.3-8,9.9c-3.4,2.4-7.4,3.7-11.5,3.8c-0.3,0-0.6,0-1,0
		c-6.6,0-13-3.4-18.2-9.7c-5.3-6.3-9.4-15.3-11.6-26.3c-0.1-0.6-0.7-1-1.4-0.9C908.7,3229.5,908.3,3230.2,908.4,3230.8L908.4,3230.8
		z"/>
</g>
</svg>
