<svg xmlns="http://www.w3.org/2000/svg" width="32px" height="33px" viewBox="0 0 32.082 33.597">
  <path id="Path_641" data-name="Path 641" d="M9.748-62.7v13.544c0,.146-.015.15-.046,0a4.114,4.114,0,0,0-.415-1.144,4.111,4.111,0,0,0-.879-1.117,4.12,4.12,0,0,0-1.229-.753,3.939,3.939,0,0,0-1.467-.276,4.01,4.01,0,0,0-2.73,1.006,3.85,3.85,0,0,0-1.3,2.281c-.027.146-.038.146-.038,0V-60.127a1.021,1.021,0,0,0-.15-.492L.041-62.738c-.085-.119-.035-.223.119-.223H9.48A.263.263,0,0,1,9.748-62.7ZM3.209-55.05H8.182a.27.27,0,0,0,.269-.269v-5.937a.269.269,0,0,0-.269-.269H3.209a.27.27,0,0,0-.269.269v5.941A.266.266,0,0,0,3.209-55.05Zm24.872,3.706,3.936,5.53a.394.394,0,0,1,0,.438l-.119.154a.606.606,0,0,1-.43.215H27.947a.27.27,0,0,1-.269-.269v-2.834a.269.269,0,0,0-.269-.269H26.322a.27.27,0,0,1-.269-.269V-58.664a.269.269,0,0,1,.269-.269h1.329a.269.269,0,0,1,.269.269v6.828A1.063,1.063,0,0,0,28.081-51.345ZM3.255-50.93a3.714,3.714,0,0,1,1.1-.734,3.307,3.307,0,0,1,1.356-.276,3.365,3.365,0,0,1,1.34.276,3.479,3.479,0,0,1,1.1.734,3.454,3.454,0,0,1,.733,1.1,3.333,3.333,0,0,1,.276,1.34,3.287,3.287,0,0,1-.276,1.356,3.787,3.787,0,0,1-.733,1.1,3.264,3.264,0,0,1-1.1.749A3.34,3.34,0,0,1,5.709-45a3.294,3.294,0,0,1-1.356-.276,3.623,3.623,0,0,1-1.1-.749,3.574,3.574,0,0,1-.752-1.1,3.3,3.3,0,0,1-.277-1.356,3.36,3.36,0,0,1,.277-1.34A3.378,3.378,0,0,1,3.255-50.93ZM10.6-57.639h.9a.269.269,0,0,0,.269-.269v-1.079a.27.27,0,0,1,.269-.269H15.1a.269.269,0,0,1,.269.269v1.079a.269.269,0,0,0,.269.269h.922a.269.269,0,0,0,.269-.269v-1.079a.27.27,0,0,1,.269-.269h3.068a.27.27,0,0,1,.269.269v1.079a.269.269,0,0,0,.269.269h.514a.269.269,0,0,0,.269-.269v-2.074a.269.269,0,0,1,.269-.269h3.41a.269.269,0,0,1,.269.269v7.519a.269.269,0,0,1-.269.269H10.6a.269.269,0,0,1-.269-.269v-4.9A.263.263,0,0,1,10.6-57.639Zm14.7,9.262a.357.357,0,0,1-.227-.131,1.561,1.561,0,0,0-.111-.119,1.626,1.626,0,0,0-1.187-.5,1.668,1.668,0,0,0-1.221.5l-.111.119a.541.541,0,0,1-.369.131h-.611a.557.557,0,0,1-.369-.131,1.561,1.561,0,0,0-.111-.119,1.666,1.666,0,0,0-1.221-.5,1.667,1.667,0,0,0-1.221.5l-.111.119a.537.537,0,0,1-.365.131h-.61a.537.537,0,0,1-.365-.131c-.035-.038-.069-.08-.111-.119a1.666,1.666,0,0,0-1.221-.5,1.632,1.632,0,0,0-1.186.5l-.111.119a.541.541,0,0,1-.369.131h-.4a.537.537,0,0,1-.365-.131,1.568,1.568,0,0,0-.111-.119,1.665,1.665,0,0,0-1.221-.5,1.633,1.633,0,0,0-1.186.5l-.111.119a.348.348,0,0,1-.227.131c-.069,0-.127-.119-.127-.269v-2.8a.269.269,0,0,1,.269-.269h14.55a.269.269,0,0,1,.269.269v2.8C25.432-48.5,25.37-48.377,25.3-48.377Zm-14.512.461a1.619,1.619,0,0,1,1.187-.5,1.667,1.667,0,0,1,1.221.5,1.759,1.759,0,0,1,.207.249,1.685,1.685,0,0,1,.288.975,1.646,1.646,0,0,1-.5,1.187,1.649,1.649,0,0,1-1.221.5,1.619,1.619,0,0,1-1.187-.5,1.616,1.616,0,0,1-.5-1.187,1.688,1.688,0,0,1,.288-.975A1.413,1.413,0,0,1,10.789-47.916Zm3.771,0a1.619,1.619,0,0,1,1.187-.5,1.668,1.668,0,0,1,1.221.5,1.781,1.781,0,0,1,.207.249,1.685,1.685,0,0,1,.288.975,1.647,1.647,0,0,1-.5,1.187,1.65,1.65,0,0,1-1.221.5,1.619,1.619,0,0,1-1.187-.5,1.616,1.616,0,0,1-.5-1.187,1.688,1.688,0,0,1,.288-.975A1.429,1.429,0,0,1,14.56-47.916Zm8,0a1.66,1.66,0,0,1,1.221-.5,1.64,1.64,0,0,1,1.187.5,1.781,1.781,0,0,1,.207.249,1.685,1.685,0,0,1,.288.975,1.632,1.632,0,0,1-.5,1.187,1.61,1.61,0,0,1-1.187.5,1.654,1.654,0,0,1-1.221-.5,1.616,1.616,0,0,1-.5-1.187,1.688,1.688,0,0,1,.288-.975A1.614,1.614,0,0,1,22.555-47.916Zm-4.017,0a1.666,1.666,0,0,1,1.221-.5,1.667,1.667,0,0,1,1.221.5,1.759,1.759,0,0,1,.207.249,1.688,1.688,0,0,1,.288.975,1.631,1.631,0,0,1-.5,1.187,1.65,1.65,0,0,1-1.221.5,1.654,1.654,0,0,1-1.221-.5,1.616,1.616,0,0,1-.5-1.187,1.661,1.661,0,0,1,.288-.975A1.429,1.429,0,0,1,18.538-47.916Zm6.893-17.457v4.228a.27.27,0,0,1-.269.269H21.776a.27.27,0,0,1-.269-.269v-4.228a.269.269,0,0,1,.269-.269h3.383A.268.268,0,0,1,25.432-65.373Zm-.273-.856H21.772a.5.5,0,0,1-.4-.238L20.385-68.3c-.069-.131-.007-.238.142-.238h1.7a.175.175,0,0,0,.173-.253,3.231,3.231,0,0,0-1.375-1.755c-1.417-.679-1.356,1.356-4.65-.219-3.295-1.54-2.892-.468-3.975,0-1.068.492-1.943,1.091-4.232-.119s-2.215.4-2.488.4-2.761,1.409-3.752-1.678a3.439,3.439,0,0,1,2.961-4.574c1.068,0,2.02,1.471,3.426.4,1.409-1.083,1.951-.872,4.04-.48,2.081.415,2.293-.184,3.234-.664.925-.468,3.425-2.358,5.3.142s.338,3.156,1.214,3.7,2.02,1.617,2.081,2.35a8.353,8.353,0,0,1,.323,2.484.221.221,0,0,0,.223.265h1.678a.149.149,0,0,1,.142.238l-.991,1.836A.494.494,0,0,1,25.159-66.229Z" transform="translate(0 78.602)" fill="#f06b79"/>
</svg>
