<svg xmlns="http://www.w3.org/2000/svg" width="1824.711" height="2661.056" viewBox="0 0 1824.711 2661.056"><g transform="translate(-324.391 -9569.285)"><path d="M1541.366,1591.105H1009.513c-493.556,0-788.171-292.312-788.171-781.751,0-499.547,309.321-822.3,788.171-822.3h807.495V-938.578c0-72.519,51.225-131.372,114.479-131.372s114.566,58.853,114.566,131.372V118.3c0,72.618-51.312,131.348-114.566,131.348H1009.513c-350.124,0-559.119,209.272-559.119,559.7,0,428.973,304.052,519.056,559.119,519.056h531.853c63.341,0,114.572,58.834,114.572,131.348S1604.707,1591.105,1541.366,1591.105Z" transform="translate(103.049 10639.235)" fill="rgba(161,206,95,0.08)"/></g></svg>