<svg xmlns="http://www.w3.org/2000/svg" width="2213.806" height="1576.272" viewBox="0 0 2213.806 1576.272"><path d="M223.747,797.313V337.873c0-426.355,243.185-680.86,650.36-680.86,415.586,0,684.094,267.2,684.094,680.86v697.552h770.076c60.327,0,109.276,44.252,109.276,98.9s-48.948,98.965-109.276,98.965H1449.013c-60.414,0-109.27-44.327-109.27-98.965V337.873c0-302.449-174.1-482.995-465.636-482.995-356.874,0-431.815,262.66-431.815,482.995v459.44c0,54.72-48.943,98.971-109.27,98.971S223.747,852.032,223.747,797.313Z" transform="translate(-223.747 342.987)" fill="rgba(226,113,172,0.08)"/></svg>