<?xml version="1.0" encoding="UTF-8"?><!DOCTYPE svg PUBLIC "-//W3C//DTD SVG 1.1//EN" "http://www.w3.org/Graphics/SVG/1.1/DTD/svg11.dtd"><svg xmlns="http://www.w3.org/2000/svg" xmlns:xlink="http://www.w3.org/1999/xlink"><symbol id="icon-brain" viewBox="0 0 115 145">
  <g transform="translate(-898.41 -8597.705)">
    <path d="M338.048-1443.79h-3.2a.136.136,0,0,0-.139.149c0,.049.065.1.139.1h3.2c.079,0,.144-.05.144-.1A.137.137,0,0,0,338.048-1443.79Z" transform="translate(613.437 10134.922)"/>
    <path d="M331.934-1433.912a3.264,3.264,0,0,0,2.645,3.772l37,6.5a3.216,3.216,0,0,0,3.777-2.631l.213-1.24a3.291,3.291,0,0,0-2.645-3.772l-37-6.5a3.251,3.251,0,0,0-3.777,2.63Z" transform="translate(602.246 10158.541)"/>
    <path d="M331.934-1435.763a3.238,3.238,0,0,0,2.645,3.771l37,6.551a3.287,3.287,0,0,0,3.777-2.679l.213-1.191a3.238,3.238,0,0,0-2.645-3.771l-37-6.551a3.287,3.287,0,0,0-3.777,2.679Z" transform="translate(602.246 10151.211)"/>
    <path d="M331.934-1437.592a3.29,3.29,0,0,0,2.645,3.772l37,6.5a3.251,3.251,0,0,0,3.777-2.63l.213-1.24a3.238,3.238,0,0,0-2.645-3.772l-37-6.5a3.216,3.216,0,0,0-3.777,2.631Z" transform="translate(602.246 10143.91)"/>
    <path d="M333.915-1433.974c0,5.608,5.35,10.124,11.955,10.124,5.642,0,10.372-3.325,11.622-7.742L334.1-1435.76A9.1,9.1,0,0,0,333.915-1433.974Z" transform="translate(610.294 10166.742)"/>
    <path d="M357.249-1384.734a14.646,14.646,0,0,1-9.067-2.978c-2.764.695-9.736,1.738-15.627-3.275-4.913-4.218-6.918-9.925-6.129-17.418a14.108,14.108,0,0,1,5.384-9.329,14.922,14.922,0,0,1,7.469-3.176c0-2.283.412-5.757,2.546-8.288a8.708,8.708,0,0,1,6.992-3.027c3.523-.05,9.439,1.191,9.617,10.074a2.027,2.027,0,0,1-2.02,2.085,2.057,2.057,0,0,1-2.1-1.986c-.089-4.317-1.722-6.1-5.439-6.054a4.926,4.926,0,0,0-3.891,1.538c-1.8,2.134-1.672,6.1-1.469,7.444a2.037,2.037,0,0,1-.561,1.737,2.006,2.006,0,0,1-1.717.6,9.572,9.572,0,0,0-6.838,2.283,10.05,10.05,0,0,0-3.861,6.55c-.655,6.2.794,10.471,4.709,13.846,5.5,4.714,12.426,2.282,12.719,2.133a2.2,2.2,0,0,1,2.119.447,10.755,10.755,0,0,0,8.451,2.63c3.662-.348,7.161-2.183,8.918-4.616,4.352-6,3.806-13.945,3.8-14.045a1.439,1.439,0,0,1-.005-.148v-49.725a2.079,2.079,0,0,1,2.06-2.084,2.08,2.08,0,0,1,2.064,2.084v49.675c.064.992.442,9.726-4.576,16.674-2.461,3.423-7.007,5.805-11.87,6.253C358.361-1384.784,357.805-1384.734,357.249-1384.734Z" transform="translate(579.962 10072.592)"/>
    <path d="M334.72-1410.189a1.365,1.365,0,0,1-.442-.049c-3.32-.744-9.592-4.565-9.592-13.8a13.99,13.99,0,0,1,7.225-12.406,14,14,0,0,1-3.494-6.6c-.685-3.423.164-6.9,2.526-10.371,2.774-4.069,9.334-6.054,15.26-4.615,5.141,1.241,8.441,4.665,9.052,9.479a2.083,2.083,0,0,1-1.787,2.332,2.052,2.052,0,0,1-2.308-1.786c-.521-4.119-3.94-5.558-5.925-6.054-4.2-.993-9.086.347-10.883,2.978a9.391,9.391,0,0,0-1.891,7.2c.769,3.97,4.466,6.451,4.506,6.5a2.025,2.025,0,0,1,.883,2.133,2.036,2.036,0,0,1-1.677,1.589,9.619,9.619,0,0,0-7.359,9.627c0,8.288,6.288,9.727,6.347,9.776a2.043,2.043,0,0,1,1.573,2.431A2.053,2.053,0,0,1,334.72-1410.189Z" transform="translate(573.724 10076.657)"/>
    <path d="M354.045-1428.045a12.9,12.9,0,0,1-1.394-.1,8.7,8.7,0,0,1-7.727-7.344c-.719-4.119,1.072-8.287,4.258-9.925a7.523,7.523,0,0,1,6.178-.695,6.8,6.8,0,0,1,3.8,3.622,2.046,2.046,0,0,1-1.1,2.68,2.06,2.06,0,0,1-2.695-1.092,2.9,2.9,0,0,0-1.444-1.34,3.742,3.742,0,0,0-2.854.5c-1.563.794-2.471,3.226-2.074,5.509a4.6,4.6,0,0,0,4.179,4.02,9.03,9.03,0,0,0,7.176-2.78c3.5-3.274,5.464-8.684,5.131-14.044a9.69,9.69,0,0,0-6.143-8.635c-3.241-1.29-7-.992-8.938.745a6.269,6.269,0,0,0-2.01,5.756,2.079,2.079,0,0,1-.953,2.283,2.113,2.113,0,0,1-2.442-.248c-.164-.149-4.218-3.673-9.032-1.092-2.362,1.29-4.571,5.409-4.03,9.875a2.1,2.1,0,0,1-1.8,2.332,2.115,2.115,0,0,1-2.3-1.836c-.695-5.707,1.96-11.712,6.173-13.994a11.5,11.5,0,0,1,10.377-.447,10.289,10.289,0,0,1,3.24-5.657c3.156-2.879,8.486-3.474,13.265-1.539a13.646,13.646,0,0,1,8.709,12.208,22.016,22.016,0,0,1-6.426,17.319A13.572,13.572,0,0,1,354.045-1428.045Z" transform="translate(585.737 10060.321)"/>
    <path d="M357.184-1432.041a2.007,2.007,0,0,1-.541-.049,2.064,2.064,0,0,1-1.449-2.531c.506-1.886,1.479-7.395-.1-10.074a2.63,2.63,0,0,0-1.762-1.341c-2.025-.545-3.548-.247-4.526.794a5.185,5.185,0,0,0-1.131,4.368,2.039,2.039,0,0,1-1.32,2.53,2.07,2.07,0,0,1-2.59-1.24c-.174-.447-1.861-4.566-5.985-3.921a4.24,4.24,0,0,0-3.573,3.573,3.32,3.32,0,0,0,1.151,3.474,2.086,2.086,0,0,1,.789,2.828,2.019,2.019,0,0,1-2.809.745,7.291,7.291,0,0,1-3.2-7.791,8.293,8.293,0,0,1,6.987-6.9,8.6,8.6,0,0,1,7.111,1.886,8.509,8.509,0,0,1,1.573-2.432c1.429-1.489,4.064-3.027,8.516-1.935a6.745,6.745,0,0,1,4.327,3.275c2.734,4.665.759,12.357.521,13.2A2.05,2.05,0,0,1,357.184-1432.041Z" transform="translate(594.781 10108.633)"/>
    <path d="M354.573-1384.734c-.551,0-1.112-.05-1.677-.1-4.863-.447-9.409-2.829-11.87-6.253-5.017-6.948-4.64-15.682-4.575-16.674v-49.675a2.08,2.08,0,0,1,2.064-2.084,2.08,2.08,0,0,1,2.064,2.084v49.725a1.446,1.446,0,0,1-.01.148c0,.1-.521,8.089,3.8,14.045,1.757,2.432,5.26,4.268,8.918,4.616a10.749,10.749,0,0,0,8.451-2.63,1.981,1.981,0,0,1,2.129-.4c.288.1,7.21,2.53,12.714-2.183,3.911-3.375,5.365-7.643,4.71-13.846a10.091,10.091,0,0,0-3.861-6.55,9.6,9.6,0,0,0-6.843-2.283,2.022,2.022,0,0,1-1.722-.6,2.016,2.016,0,0,1-.551-1.737c.2-1.34.323-5.31-1.474-7.444a4.919,4.919,0,0,0-3.891-1.538H362.8c-3.613,0-5.2,1.787-5.28,6.054a2.046,2.046,0,0,1-2.109,1.986,2.03,2.03,0,0,1-2.02-2.085c.184-8.883,6.079-10.124,9.617-10.074A8.708,8.708,0,0,1,370-1429.2c2.134,2.531,2.546,6,2.546,8.288a14.9,14.9,0,0,1,7.469,3.176,14.089,14.089,0,0,1,5.384,9.329c.789,7.494-1.216,13.2-6.129,17.418-5.886,5.013-12.858,3.97-15.627,3.275A14.646,14.646,0,0,1,354.573-1384.734Z" transform="translate(620.211 10072.592)"/>
    <path d="M362.283-1410.189a2.053,2.053,0,0,1-2.015-1.637,2.048,2.048,0,0,1,1.558-2.431c.3-.1,6.367-1.638,6.362-9.776a9.619,9.619,0,0,0-7.359-9.627,2.03,2.03,0,0,1-1.677-1.589,2.116,2.116,0,0,1,.893-2.183c.03,0,3.727-2.481,4.5-6.451a9.4,9.4,0,0,0-1.9-7.2c-1.8-2.631-6.68-3.97-10.878-2.978-1.99.5-5.4,1.935-5.93,6.054a2.052,2.052,0,0,1-2.307,1.786,2.087,2.087,0,0,1-1.787-2.332c.61-4.814,3.911-8.238,9.057-9.479,5.925-1.439,12.481.546,15.255,4.615,2.367,3.474,3.216,6.948,2.526,10.371a13.957,13.957,0,0,1-3.494,6.6,13.99,13.99,0,0,1,7.225,12.406c0,9.23-6.273,13.052-9.588,13.8A1.394,1.394,0,0,1,362.283-1410.189Z" transform="translate(641.268 10076.657)"/>
    <path d="M352.014-1428.045a13.562,13.562,0,0,1-9.121-3.92,22.02,22.02,0,0,1-6.432-17.319,13.647,13.647,0,0,1,8.709-12.208c4.779-1.935,10.114-1.34,13.265,1.539a10.332,10.332,0,0,1,3.245,5.657,11.494,11.494,0,0,1,10.372.447c4.213,2.282,6.868,8.287,6.173,13.994a2.112,2.112,0,0,1-2.3,1.836,2.1,2.1,0,0,1-1.8-2.332c.546-4.466-1.668-8.585-4.03-9.875-4.873-2.581-8.987,1.042-9.032,1.092a2.106,2.106,0,0,1-2.437.248,2.079,2.079,0,0,1-.953-2.283,6.342,6.342,0,0,0-2.01-5.756c-1.94-1.737-5.7-2.035-8.942-.745a9.7,9.7,0,0,0-6.144,8.635c-.333,5.359,1.633,10.769,5.136,14.044a9.02,9.02,0,0,0,7.171,2.78,4.6,4.6,0,0,0,4.179-4.02c.4-2.283-.506-4.714-2.069-5.509a3.756,3.756,0,0,0-2.858-.5,2.915,2.915,0,0,0-1.444,1.34,2.018,2.018,0,0,1-2.7,1.092,2.024,2.024,0,0,1-1.092-2.68,6.781,6.781,0,0,1,3.791-3.622,7.533,7.533,0,0,1,6.183.695c3.186,1.638,4.972,5.806,4.253,9.925a8.7,8.7,0,0,1-7.727,7.344A12.9,12.9,0,0,1,352.014-1428.045Z" transform="translate(620.204 10060.321)"/>
    <path d="M339.418-1432.041a2.05,2.05,0,0,1-1.99-1.539c-.233-.843-2.213-8.535.526-13.2a6.736,6.736,0,0,1,4.322-3.275c4.451-1.092,7.091.447,8.516,1.935a8.528,8.528,0,0,1,1.578,2.432,8.589,8.589,0,0,1,7.111-1.886,8.288,8.288,0,0,1,6.982,6.9,7.288,7.288,0,0,1-3.191,7.791,2.017,2.017,0,0,1-2.809-.745,2.08,2.08,0,0,1,.784-2.828,3.322,3.322,0,0,0,1.156-3.474,4.246,4.246,0,0,0-3.578-3.573c-4.114-.645-5.806,3.474-5.985,3.921a2.089,2.089,0,0,1-2.6,1.24,2.046,2.046,0,0,1-1.31-2.53,5.18,5.18,0,0,0-1.127-4.368c-.978-1.042-2.5-1.34-4.526-.794a2.629,2.629,0,0,0-1.767,1.341c-1.583,2.679-.576,8.287-.1,10.024a2.1,2.1,0,0,1-1.454,2.581A2.007,2.007,0,0,1,339.418-1432.041Z" transform="translate(620.611 10108.633)"/>
    <path d="M338.486-1435.3a2.043,2.043,0,0,1-2.064-2.034c-.035-7.395-.06-12.7,2.61-15.384a5.789,5.789,0,0,1,4.352-1.687,6.72,6.72,0,0,1,6.967,6.848,2.079,2.079,0,0,1-2.059,2.085,2.09,2.09,0,0,1-2.064-2.085,2.6,2.6,0,0,0-2.844-2.729,1.873,1.873,0,0,0-1.424.447c-1.459,1.489-1.439,6.848-1.414,12.456a2.068,2.068,0,0,1-2.055,2.084Z" transform="translate(620.198 10092.839)"/>
    <path d="M340.881-1423.681h-.342a2.073,2.073,0,0,1-1.7-2.382c.069-.447,1.881-10.62,13.831-18.312a2.06,2.06,0,0,1,2.854.645,2.034,2.034,0,0,1-.625,2.828c-10.421,6.7-11.97,15.434-11.984,15.483A2.046,2.046,0,0,1,340.881-1423.681Z" transform="translate(629.704 10131.339)"/>
    <path d="M343.334-1429.592a2.033,2.033,0,0,1-1.911-1.241c-.04-.1-2.943-6.947-9.751-9.925a2.028,2.028,0,0,1-1.072-2.679,2.08,2.08,0,0,1,2.714-1.092c8.407,3.623,11.791,11.761,11.93,12.109a2.048,2.048,0,0,1-1.136,2.679A2.116,2.116,0,0,1,343.334-1429.592Z" transform="translate(596.488 10131.345)"/>
    <path d="M337.773-1430.688h0a1.269,1.269,0,0,1-1.29-1.29c0-.248.04-6.451,3.449-11.265a1.334,1.334,0,0,1,1.8-.3,1.28,1.28,0,0,1,.308,1.787c-2.923,4.168-2.973,9.726-2.973,9.776A1.272,1.272,0,0,1,337.773-1430.688Z" transform="translate(620.47 10135.021)"/>
    <path d="M340.657-1442.25a1.338,1.338,0,0,0-1.34,1.34,1.338,1.338,0,0,0,1.34,1.34,1.338,1.338,0,0,0,1.34-1.34A1.338,1.338,0,0,0,340.657-1442.25Zm0,5.261a3.913,3.913,0,0,1-3.921-3.921,3.945,3.945,0,0,1,3.921-3.919,3.941,3.941,0,0,1,3.92,3.919A3.909,3.909,0,0,1,340.657-1436.989Z" transform="translate(621.476 10130.801)"/>
    <path d="M339.431-1430.688a1.272,1.272,0,0,1-1.29-1.29c0-.05-.05-5.608-2.973-9.776a1.281,1.281,0,0,1,.308-1.787,1.334,1.334,0,0,1,1.8.3c3.409,4.814,3.449,11.017,3.449,11.265A1.269,1.269,0,0,1,339.431-1430.688Z" transform="translate(614.321 10135.021)"/>
    <path d="M338.184-1442.25a1.338,1.338,0,0,0-1.34,1.34,1.338,1.338,0,0,0,1.34,1.34,1.338,1.338,0,0,0,1.34-1.34A1.338,1.338,0,0,0,338.184-1442.25Zm0,5.261a3.913,3.913,0,0,1-3.92-3.921,3.944,3.944,0,0,1,3.92-3.919,3.941,3.941,0,0,1,3.92,3.919A3.91,3.91,0,0,1,338.184-1436.989Z" transform="translate(611.677 10130.801)"/>
    <path d="M336.2-1444.33a1.439,1.439,0,0,0-1.434,1.439,1.439,1.439,0,0,0,1.434,1.439,1.439,1.439,0,0,0,1.434-1.439A1.439,1.439,0,0,0,336.2-1444.33Z" transform="translate(613.662 10132.783)"/>
    <path d="M338.672-1444.33a1.439,1.439,0,0,0-1.434,1.439,1.439,1.439,0,0,0,1.434,1.439,1.439,1.439,0,0,0,1.434-1.439A1.439,1.439,0,0,0,338.672-1444.33Z" transform="translate(623.462 10132.783)"/>
  </g>
</symbol><symbol id="icon-car" viewBox="0 0 25 15">
<g id="car" transform="translate(-517 -8016.404)">
	<path id="Path_676" style="fill:#E271AC;" d="M541.9,8026c-0.8-2.1-2.7-3.6-4.9-4c-0.8-0.2-1.4-0.6-1.8-1.3
		c-3.8-5.8-12-5.1-15.2-1.6c-2.1,2.3-2.8,5.1-2.9,8.1c0,0.9,0.6,1.4,1.5,1.4c0.8-2.5,1.9-3.5,4-3.4c2,0,3.1,1,3.8,3.4h5.9
		c0.5-2.2,1.7-3.3,3.4-3.4c2.2-0.2,3.3,0.7,4.4,3.4C542.2,8028.8,542.7,8028.1,541.9,8026z M523.1,8022.4c-0.7,0-1.4,0-2.1,0
		c-0.9,0-1.3-0.5-0.9-1.4c1-2,3-3.3,5.2-3.5c0.3,0,0.8,0.4,1,0.8c0.1,0.1,0.1,0.5,0.1,0.7C526.5,8022.8,526.8,8022.4,523.1,8022.4z
		 M534,8022.4c-0.9,0-1.8,0-2.7,0v0c-0.9,0-1.7,0-2.6,0c-0.6,0.1-1.2-0.4-1.2-1c0-0.1,0-0.2,0-0.3c0-0.9,0-1.7,0-2.6
		c0-0.8,0.5-1.2,1.3-1.1c2.4,0.4,4.5,1.8,5.8,3.9C534.9,8022,534.7,8022.4,534,8022.4L534,8022.4z M522.4,8025.8
		c-1.6-0.1-3,1.1-3.1,2.7c0,0.1,0,0.2,0,0.3c0,1.6,1.4,3,3,3c1.7,0,3-1.3,3.1-3c0,0,0-0.1,0-0.1c0.1-1.6-1.2-2.9-2.7-2.9
		C522.6,8025.8,522.5,8025.8,522.4,8025.8L522.4,8025.8z M522.4,8030.3c-0.8,0-1.5-0.7-1.5-1.5c0-0.8,0.7-1.5,1.5-1.5c0,0,0,0,0,0
		c0.8,0,1.5,0.7,1.5,1.5C523.9,8029.6,523.2,8030.3,522.4,8030.3L522.4,8030.3z M536,8025.8c-1.6-0.1-3,1.1-3.1,2.7
		c0,0.1,0,0.1,0,0.2c0,1.7,1.3,3.1,3,3.1c0,0,0,0,0.1,0c1.7,0,3.1-1.4,3.1-3.1C539,8027,537.6,8025.7,536,8025.8L536,8025.8z
		 M536,8030.3c-0.8,0-1.5-0.7-1.5-1.5c0-0.8,0.7-1.5,1.5-1.5c0,0,0,0,0,0c0.8,0,1.5,0.7,1.5,1.5
		C537.5,8029.6,536.9,8030.3,536,8030.3L536,8030.3z"/>
</g>
</symbol><symbol id="icon-clinicdirector" viewBox="0 0 159 159">
  <g transform="translate(-182.29 -5519.821)">
    <path d="M194.1,11.278h-5.765L179.744,15.8a12.75,12.75,0,0,0-3.058-1.258l-10.809-2.7V10.607a18.017,18.017,0,0,0,7.7-14.724V-8.6c0-9.967-7.81-18.308-17.409-18.6-.487-.012-.967.005-1.449.029l2.8-6.56L143.935-47.315,135.926-42.1a43.423,43.423,0,0,0-9.6-3.984l-1.978-9.344H104.791l-1.978,9.347a43.336,43.336,0,0,0-9.6,3.984L85.2-47.312,71.625-33.737l2.754,6.566c-.1,0-.205-.024-.311-.026a17.829,17.829,0,0,0-13.056,5.062A17.8,17.8,0,0,0,55.555-9.248v5.132a18.012,18.012,0,0,0,7.7,14.722v1.231L56.2,13.6,43.422,6.146H35.03V59.31l25.241,8.413h4.916l.614-2.15,7.737,4.644a7.988,7.988,0,0,0,7.7,7.74,7.987,7.987,0,0,0,7.7,7.7,7.987,7.987,0,0,0,7.7,7.7,8,8,0,0,0,7.979,7.726,8.084,8.084,0,0,0,4.5-1.391l2.272,2.007a7.81,7.81,0,0,0,5.163,1.95h.475a7.812,7.812,0,0,0,7.8-7.707,7.8,7.8,0,0,0,7.7-7.7,7.8,7.8,0,0,0,7.7-7.7,7.889,7.889,0,0,0,7.707-7.872,7.541,7.541,0,0,0-.039-.769L194.1,48.784ZM168.445-8.6v4.485a12.879,12.879,0,0,1-6.422,11.1l-1.283.742.01,8.119,12.818,3.2L145.354,33.9V26.988a12.766,12.766,0,0,0-3.674-8.941l8.806-2.2V7.721l-1.281-.74a12.866,12.866,0,0,1-6.417-11.1V-9.248a12.719,12.719,0,0,1,3.9-9.207,12.653,12.653,0,0,1,9.328-3.613C162.868-21.863,168.445-15.821,168.445-8.6ZM118.434,31.882,106.82,28.17a31.689,31.689,0,0,0-16.44-.749l-1.471.326v-.759a7.691,7.691,0,0,1,5.83-7.469l14.7-3.672V7.721l-1.28-.74a12.865,12.865,0,0,1-6.417-11.1V-9.248a12.719,12.719,0,0,1,3.9-9.207,12.684,12.684,0,0,1,9.328-3.613c6.854.205,12.431,6.248,12.431,13.467v4.485a12.879,12.879,0,0,1-6.422,11.1l-1.283.742.01,8.119,14.694,3.672a7.691,7.691,0,0,1,5.83,7.469V36.6l-.634.333h-1.572l-15.774-4.507A16.163,16.163,0,0,0,118.434,31.882ZM89.484-17.03a28.308,28.308,0,0,1,25.082-15.309,28.354,28.354,0,0,1,24.976,15.1,17.844,17.844,0,0,0-1.885,7.989v5.132a18.012,18.012,0,0,0,7.7,14.722v1.231l-10.263,2.569-10.265-2.569V10.607a18.016,18.016,0,0,0,7.7-14.724V-8.6c0-9.967-7.81-18.308-17.408-18.6a17.825,17.825,0,0,0-13.056,5.062,17.813,17.813,0,0,0-5.454,12.89v5.132A18.01,18.01,0,0,0,104.3,10.6v1.231L94.041,14.406,83.775,11.836V10.607a18.017,18.017,0,0,0,7.7-14.724V-8.6A18.912,18.912,0,0,0,89.484-17.03Zm-11.8-15.517,8.2-8.2,7.215,4.7,1.381-.847A38.288,38.288,0,0,1,105.586-41.5l1.579-.378L108.95-50.3h11.235l1.78,8.415,1.579.377A38.323,38.323,0,0,1,134.653-36.9l1.381.847,7.215-4.7,8.187,8.189-2.91,6.814a17.933,17.933,0,0,0-5.416,3.6c-.105.1-.2.213-.3.318A33.507,33.507,0,0,0,114.566-37.47a33.467,33.467,0,0,0-28.343,15.8,18.1,18.1,0,0,0-5.66-4.012Zm-9.3,48.394V7.721L67.1,6.981a12.866,12.866,0,0,1-6.416-11.1V-9.248a12.719,12.719,0,0,1,3.9-9.207,12.665,12.665,0,0,1,9.328-3.613c6.854.205,12.431,6.248,12.431,13.467v4.485a12.878,12.878,0,0,1-6.422,11.1l-1.283.742.01,8.119,8.8,2.2a12.766,12.766,0,0,0-3.674,8.941v1.9l-8,1.779.208-.727.1-4.741L62.549,17.3ZM40.161,11.278h1.87L60.483,22.04,51.173,59.281,40.161,55.61ZM61.1,62.591l-5.05-1.682L65.1,24.732l5.852,3.413v.733L61.318,62.591Zm17.544,7.387a2.9,2.9,0,0,1,.842-2.035L84,63.433A2.877,2.877,0,0,1,88.067,67.5l-4.51,4.51a2.878,2.878,0,0,1-4.911-2.035Zm7.7,7.7a2.9,2.9,0,0,1,.842-2.035l4.51-4.51A2.877,2.877,0,0,1,95.764,75.2l-4.51,4.51a2.877,2.877,0,0,1-4.911-2.035Zm7.7,7.7a2.9,2.9,0,0,1,.842-2.035l4.51-4.51a2.877,2.877,0,0,1,4.069,4.069l-4.51,4.51a2.877,2.877,0,0,1-4.911-2.035Zm10.573,10.573a2.877,2.877,0,0,1-2.035-4.911l4.51-4.51a2.877,2.877,0,0,1,4.069,4.069l-4.51,4.51A2.9,2.9,0,0,1,104.614,95.945Zm12.407,2.566h-.475a2.66,2.66,0,0,1-1.768-.67l-1.919-1.692,1.927-1.927a7.977,7.977,0,0,0,1.616-2.384l2.333,1.942a2.676,2.676,0,0,1-1.714,4.732ZM140.03,75.42h-.444a2.753,2.753,0,0,1-1.765-.641L123.908,63.184l-3.287,3.944,13.511,11.258a2.678,2.678,0,0,1-1.716,4.731h-.56a2.674,2.674,0,0,1-1.711-.621L116.209,70.883l-3.287,3.944,13.511,11.259a2.674,2.674,0,0,1-1.714,4.728,4.237,4.237,0,0,1-2.7-.977l-5.726-4.773A7.98,7.98,0,0,0,109.4,80.58a7.988,7.988,0,0,0-7.7-7.7,7.987,7.987,0,0,0-7.7-7.7,7.989,7.989,0,0,0-13.639-5.38l-4.51,4.51a7.894,7.894,0,0,0-.719.878L67.26,60.464l6.909-24.181L91.49,32.432a26.434,26.434,0,0,1,13.765.622l3.78,1.209L96.222,40.67a8.553,8.553,0,0,0-4.747,7.687v.507a8.592,8.592,0,0,0,13.017,7.369l9.553-5.729a5.3,5.3,0,0,1,6.153.593l21.678,19.509a2.761,2.761,0,0,1-1.845,4.813Zm48.941-29.808L145.747,67.226c-.14-.149-.287-.291-.441-.429L123.631,47.288A10.324,10.324,0,0,0,111.4,46.105l-9.557,5.731a3.46,3.46,0,0,1-5.239-2.971v-.507a3.442,3.442,0,0,1,1.914-3.1L112.832,38.1a11.151,11.151,0,0,1,8-.742l16.123,4.605,3.905.1,48.114-25.324Z" transform="translate(147.351 5575.341)" stroke-linejoin="round" stroke-width="0.18"/>
  </g>
</symbol><symbol id="icon-clock" viewBox="0 0 30 30">
  <path id="Path_642" data-name="Path 642" d="M.237-42.49a15.206,15.206,0,0,0,15.23,15.227A15.217,15.217,0,0,0,30.572-42.455,15.188,15.188,0,0,0,15.387-57.6,15.218,15.218,0,0,0,.237-42.49Zm28.6.1A13.449,13.449,0,0,1,15.391-29,13.445,13.445,0,0,1,1.977-42.455a13.5,13.5,0,0,1,13.49-13.4A13.457,13.457,0,0,1,28.832-42.392Zm-15.005-.576a1.517,1.517,0,0,0-.055.4,1.56,1.56,0,0,0,1.581,1.6,1.621,1.621,0,0,0,1.31-.673,1.274,1.274,0,0,1,.142-.19h.024q4.9.01,9.8,0h.278a.223.223,0,0,0,.222-.222v-.7a.223.223,0,0,0-.222-.222h-.256q-4.863,0-9.722,0h-.01s-.035-.1-.083-.211a1.615,1.615,0,0,0-1.456-.974,1.566,1.566,0,0,0-.423.059.409.409,0,0,1-.371-.08q-1.768-1.716-3.519-3.446c-.381-.378-.742-.78-1.106-1.175a.213.213,0,0,0-.309-.007c-.208.208-.385.385-.569.565a.22.22,0,0,0,0,.312c1.571,1.543,3.12,3.065,4.663,4.6A.43.43,0,0,1,13.827-42.968Zm.791,11.288a.731.731,0,0,0,.742.749.757.757,0,0,0,.756-.742.757.757,0,0,0-.745-.752A.759.759,0,0,0,14.618-31.68ZM19.967-51.76a.723.723,0,0,0,.735.753.763.763,0,0,0,.769-.732.78.78,0,0,0-.749-.762A.743.743,0,0,0,19.967-51.76Zm-5.228-1.373a.744.744,0,0,0,.756.735.744.744,0,0,0,.735-.755.747.747,0,0,0-.756-.735A.742.742,0,0,0,14.739-53.133Zm-7.915,5.4a.736.736,0,0,0-.749-.745.778.778,0,0,0-.738.735.743.743,0,0,0,.745.752A.717.717,0,0,0,6.824-47.735ZM10.842-33.1a.745.745,0,0,0-.724-.735.784.784,0,0,0-.759.756.734.734,0,0,0,.759.735A.713.713,0,0,0,10.842-33.1ZM23.927-47.753a.789.789,0,0,0,.738.742.773.773,0,0,0,.762-.749.738.738,0,0,0-.752-.742A.737.737,0,0,0,23.927-47.753Zm.083,10.664a.735.735,0,0,0,.724.731.727.727,0,0,0,.76-.728.746.746,0,0,0-.731-.766A.787.787,0,0,0,24.01-37.088ZM5.437-42.483a.756.756,0,0,0-.76-.735.739.739,0,0,0-.731.756.754.754,0,0,0,.756.738A.757.757,0,0,0,5.437-42.483Zm1.442,5.44a.734.734,0,0,0-.745-.749.724.724,0,0,0-.738.749.739.739,0,0,0,.752.745A.809.809,0,0,0,6.879-37.043ZM10.818-51.7a.754.754,0,0,0-.76-.742.727.727,0,0,0-.728.76.74.74,0,0,0,.725.735A.781.781,0,0,0,10.818-51.7Zm9.225,18.607a.738.738,0,0,0,.724.735.782.782,0,0,0,.763-.753.735.735,0,0,0-.756-.742A.732.732,0,0,0,20.043-33.094Z" transform="translate(-0.236 57.599)"/>
</symbol><symbol id="icon-close" viewBox="0 0 45 44">
<g transform="translate(-1661.452 -3687.427)">
	<line style="fill:none;stroke:#FFFFFF;stroke-width:3;" x1="1662.5" y1="3688.5" x2="1705.4" y2="3730.4"/>
	<line style="fill:none;stroke:#FFFFFF;stroke-width:3;" x1="1705.4" y1="3688.5" x2="1664.5" y2="3730.4"/>
</g>
</symbol><symbol id="icon-devped" viewBox="0 0 107 107">
  <g transform="translate(-488.742 -3786.187)">
    <path d="M56.633,39.711A26.434,26.434,0,0,0,43.57,18.241L31.273,4.578a6.65,6.65,0,0,0-6.64-2.04V-20.813a7.12,7.12,0,0,0-7.12-7.12,7.121,7.121,0,0,0-7.121,7.12V12.879a16.074,16.074,0,0,0,2.017,7.784L28.193,49.072v6.659a1.78,1.78,0,0,0,1.78,1.78H54.9a1.78,1.78,0,0,0,1.78-1.78V39.711ZM53.115,53.952H31.753v-5.34a1.783,1.783,0,0,0-.224-.865L15.521,18.931a12.512,12.512,0,0,1-1.569-6.053V-20.813a3.56,3.56,0,0,1,3.561-3.56,3.56,3.56,0,0,1,3.56,3.56V4.737a6.764,6.764,0,0,0,.119,8.959L35.777,29.742l2.634-2.4L23.827,11.3a3.236,3.236,0,0,1,4.681-4.468c.041.041.081.083.12.126L41.112,20.831a2.5,2.5,0,0,0,.534.409A22.809,22.809,0,0,1,53.115,41Z" transform="translate(478.476 3835.608)" stroke-linejoin="round" stroke-width="0.252"/>
    <path d="M62.167-27.934a7.12,7.12,0,0,0-7.12,7.12V2.538a6.888,6.888,0,0,0-1.766-.21,6.732,6.732,0,0,0-4.874,2.248L36.114,18.235A26.377,26.377,0,0,0,23.047,39.711H23V55.731a1.78,1.78,0,0,0,1.78,1.78H49.706a1.78,1.78,0,0,0,1.78-1.78V49.068L67.075,20.815a16.037,16.037,0,0,0,2.213-8.123V-20.813A7.121,7.121,0,0,0,62.167-27.934Zm3.56,40.626a12.517,12.517,0,0,1-1.744,6.36L48.14,47.751a1.777,1.777,0,0,0-.214.86v5.34H26.565V41a22.847,22.847,0,0,1,11.56-19.8,1.772,1.772,0,0,0,.443-.356L51.052,6.957A3.238,3.238,0,1,1,55.859,11.3L41.269,27.342l2.634,2.4L58.488,13.7a6.764,6.764,0,0,0,.119-8.963v-25.55a3.56,3.56,0,0,1,3.56-3.56,3.56,3.56,0,0,1,3.56,3.56Z" transform="translate(526.387 3835.608)" stroke-linejoin="round" stroke-width="0.252"/>
    <path d="M61.2,12.118h-3.56A19.564,19.564,0,0,0,41.62,20.484V8.558H43.4A19.6,19.6,0,0,0,62.982-11.023,1.78,1.78,0,0,0,61.2-12.8h-3.56A19.563,19.563,0,0,0,41.62-4.437V-16.364H43.4A14.257,14.257,0,0,0,57.641-30.6a1.78,1.78,0,0,0-1.78-1.78H52.3A14.242,14.242,0,0,0,39.84-25.023a14.242,14.242,0,0,0-12.461-7.363h-3.56a1.78,1.78,0,0,0-1.78,1.78A14.257,14.257,0,0,0,36.28-16.364h1.78V-4.437A19.563,19.563,0,0,0,22.039-12.8h-3.56a1.78,1.78,0,0,0-1.78,1.78A19.6,19.6,0,0,0,36.28,8.558h1.78V20.484a19.564,19.564,0,0,0-16.021-8.367h-3.56A1.78,1.78,0,0,0,16.7,13.9,19.6,19.6,0,0,0,36.28,33.479h1.78V47.72H41.62V33.479H43.4A19.6,19.6,0,0,0,62.982,13.9,1.78,1.78,0,0,0,61.2,12.118ZM57.641-9.244h1.682A16.044,16.044,0,0,1,43.4,5H41.718A16.044,16.044,0,0,1,57.641-9.244ZM52.3-28.825h1.633a10.7,10.7,0,0,1-10.533,8.9H41.768A10.7,10.7,0,0,1,52.3-28.825Zm-16.021,8.9a10.7,10.7,0,0,1-10.533-8.9h1.633a10.7,10.7,0,0,1,10.533,8.9ZM36.28,5A16.044,16.044,0,0,1,20.357-9.244h1.682A16.044,16.044,0,0,1,37.962,5Zm0,24.922A16.044,16.044,0,0,1,20.357,15.678h1.682A16.044,16.044,0,0,1,37.962,29.919Zm7.12,0H41.718A16.044,16.044,0,0,1,57.641,15.678h1.682A16.044,16.044,0,0,1,43.4,29.919Z" transform="translate(502.432 3818.698)" stroke-linejoin="round" stroke-width="0.252"/>
  </g>
</symbol><symbol id="icon-dietitian" viewBox="0 0 128 95"><g transform="translate(-205.964 -4377.468)"><path d="M69.39-209.978c10.632,0,19.3-6.532,19.3-14.527s-8.645-14.532-19.3-14.532-19.3,6.531-19.3,14.532S58.757-209.978,69.39-209.978Zm0-23.9c7.742,0,14.142,4.288,14.142,9.371s-6.478,9.366-14.142,9.366-14.143-4.283-14.143-9.366,6.478-9.4,14.143-9.4Z" transform="translate(192.31 4634.024)"/><path d="M168.954-183.5H130.863v-26.863c0-17.654-19.638-32.025-43.871-32.025S43.12-228.018,43.12-210.363v31.742c0,16.258,16.646,29.677,38.091,31.716h.439c1.78.157,3.586.282,5.419.282h81.885a2.581,2.581,0,0,0,2.581-2.578v-31.722A2.581,2.581,0,0,0,168.954-183.5ZM87.12-237.206c21.29,0,38.711,12.054,38.711,26.869s-17.317,26.863-38.711,26.863-38.71-12.054-38.71-26.863S65.855-237.206,87.12-237.206Zm38.711,41.914V-183.5H110.862A38.9,38.9,0,0,0,125.7-195.292Zm40.542,43.509h-5.161v-13.058a2.585,2.585,0,0,0-2.58-2.583,2.582,2.582,0,0,0-2.581,2.583v13.084H145.727v-7.1a2.582,2.582,0,0,0-2.581-2.583,2.582,2.582,0,0,0-2.581,2.583v7.1H130.243v-7.1a2.582,2.582,0,0,0-2.581-2.583,2.582,2.582,0,0,0-2.581,2.583v7.1H114.758v-13.084a2.585,2.585,0,0,0-2.581-2.583,2.582,2.582,0,0,0-2.581,2.583v13.084H99.713v-7.1a2.582,2.582,0,0,0-2.581-2.583,2.582,2.582,0,0,0-2.581,2.583v7.1H84.228v-7.1a2.582,2.582,0,0,0-2.581-2.583,2.582,2.582,0,0,0-2.581,2.583v6.479c-17.418-2.583-30.528-13.372-30.528-26.273v-16.645c7.381,10.087,21.91,16.954,38.711,16.954h79.123Z" transform="translate(162.844 4619.856)"/></g></symbol><symbol id="icon-excphysio" viewBox="0 0 117 115">
  <g transform="translate(-1314.785 -4365.053)">
    <path d="M125.457-149.181a66.264,66.264,0,0,0-2.134-8.184,3.829,3.829,0,0,0-4.837-2.426,3.825,3.825,0,0,0-2.426,4.832,57.942,57.942,0,0,1,1.883,7.222,3.822,3.822,0,0,0,4.482,3.033A3.823,3.823,0,0,0,125.457-149.181Z" transform="translate(1282.786 4567.366)" stroke-linejoin="round" stroke-width="0.505"/>
    <path d="M212.457-109.672a36.257,36.257,0,0,0-8.55,3.315,28.289,28.289,0,0,1-25.028.952,50.093,50.093,0,0,0-9.45-26.8l1.862-1.4h15.3a11.49,11.49,0,0,0,11.479-11.478,11.49,11.49,0,0,0-11.479-11.479H167.463a11.569,11.569,0,0,0-6.887,2.3l-15.3,11.478h0l-2.327,1.747a15.112,15.112,0,0,0,5.36-10.82,15.3,15.3,0,0,0-15.244-16.18A15.208,15.208,0,0,0,117.757-153.6a15.3,15.3,0,0,0,16.854,16.091,14.924,14.924,0,0,0,6.835-2.4l-8.414,6.312h-15.3a11.486,11.486,0,0,0-11.479,11.473,11.487,11.487,0,0,0,11.479,11.479H136.86a11.581,11.581,0,0,0,6.887-2.3l7.321-5.491a27.421,27.421,0,0,1,3.87,8.069,35.988,35.988,0,0,0-12.247,4.006,28.291,28.291,0,0,1-26.968,0,36.245,36.245,0,0,0-11.405-3.9,3.828,3.828,0,0,0-4.442,3.776v49.4a3.824,3.824,0,0,0,3.825,3.828H213.377a3.822,3.822,0,0,0,3.823-3.828v-48.874A3.827,3.827,0,0,0,212.457-109.672ZM140.61-151.7a7.658,7.658,0,0,1-6.343,6.521,7.653,7.653,0,0,1-8.812-8.587,7.642,7.642,0,0,1,7.551-6.61A7.642,7.642,0,0,1,140.61-151.7Zm24.557,3.561a3.837,3.837,0,0,1,2.3-.769h19.129a3.83,3.83,0,0,1,3.828,3.828,3.829,3.829,0,0,1-3.828,3.823H170.015a3.837,3.837,0,0,0-2.3.769l-3.247,2.437a50.961,50.961,0,0,0-5.93-5.119Zm-10.621,21.843a3.819,3.819,0,0,0-5.114-.476l-10.276,7.7a3.837,3.837,0,0,1-2.3.769H117.731a3.83,3.83,0,0,1-3.828-3.828,3.829,3.829,0,0,1,3.828-3.823h16.577a3.866,3.866,0,0,0,2.3-.764l13.257-9.946a3.812,3.812,0,0,1,4.434-.12,42.345,42.345,0,0,1,16.562,27.82,36.181,36.181,0,0,0-8.079-1.621A34.988,34.988,0,0,0,154.546-126.291Zm8.377,65.383a12.063,12.063,0,0,0,.716-4.11,45.431,45.431,0,0,1,.272-5.82,63.962,63.962,0,0,0,6.819,9.931Zm30.676,0a11.432,11.432,0,0,0-2.432-11.651,47.874,47.874,0,0,1-9.392-14.3,3.825,3.825,0,0,0-4.994-2.076,3.825,3.825,0,0,0-2.076,4.994,55.358,55.358,0,0,0,10.861,16.6,3.811,3.811,0,0,1-.094,5.313,3.819,3.819,0,0,1-5.407,0,55.851,55.851,0,0,1-13.492-21.644v-.01a55.707,55.707,0,0,1-2.144-8.524,3.826,3.826,0,0,0-4.408-3.138,3.831,3.831,0,0,0-3.138,4.414,63.666,63.666,0,0,0,2,8.336,48.86,48.86,0,0,0-2.892,17.576,3.936,3.936,0,0,1-3.875,4.11h-.01a3.828,3.828,0,0,1-3.77-3.828,56.4,56.4,0,0,1,3.859-21.838,3.82,3.82,0,0,0-2.16-4.957,3.828,3.828,0,0,0-4.963,2.16,63.971,63.971,0,0,0-4.387,24.636,11.48,11.48,0,0,0,.659,3.828H107.529v-40.7a29.425,29.425,0,0,1,4.555,1.982,35.928,35.928,0,0,0,34.242,0,28.3,28.3,0,0,1,26.957-.005.091.091,0,0,0,.026.01,35.922,35.922,0,0,0,34.232-.005q.988-.533,2.008-.988v39.707Z" transform="translate(1215.162 4533.337)" stroke-linejoin="round" stroke-width="0.505"/>
  </g>
</symbol><symbol id="icon-explore" viewBox="0 0 122 132">
<g transform="translate(-894 -6194.592)">
	<path style="fill:none;stroke:#FFFFFF;stroke-width:6;stroke-linecap:round;stroke-linejoin:bevel;" d="M897,6322.5v-80.2
		l57.3-45.3l58.6,43.7v82.9L897,6322.5z"/>
	<path style="fill:#FFFFFF;stroke:#FFFFFF;stroke-width:0.18;stroke-linejoin:round;" d="M961.4,6308.2c-9.2,0-15.2-6.5-15.2-16.7
		v-17.1h-17.1c-1.3,0-2.4-1.1-2.4-2.4c0,0,0,0,0,0c0-1.3,1.1-2.4,2.4-2.4c0,0,0,0,0,0h19.5c1.3,0,2.4,1.1,2.4,2.4c0,0,0,0,0,0v19.5
		c0,7.4,3.9,11.8,10.3,11.8c7.9,0,9.6-6.4,9.6-11.8v-11.2c-0.1-1.3,1-2.5,2.3-2.5c1.3-0.1,2.5,1,2.5,2.3c0,0.1,0,0.1,0,0.2v11.2
		C975.8,6302,970.5,6308.2,961.4,6308.2z"/>
	<path style="fill:#FFFFFF;stroke:#FFFFFF;stroke-width:0.18;stroke-linejoin:round;" d="M939.7,6286.7h-11.2
		c-10.4,0-16.7-5.4-16.7-14.4c0-9.2,6.5-15.2,16.7-15.2h17.1v-17.1c0-1.3,1.1-2.4,2.4-2.4c0,0,0,0,0,0c1.3,0,2.4,1.1,2.4,2.4v19.5
		c0,1.3-1.1,2.4-2.4,2.4c0,0,0,0,0,0h-19.5c-7.4,0-11.8,3.9-11.8,10.3c0,7.9,6.4,9.6,11.8,9.6h11.2c1.3,0,2.4,1.1,2.4,2.4
		C942.1,6285.6,941.1,6286.7,939.7,6286.7L939.7,6286.7z"/>
	<path style="fill:#FFFFFF;stroke:#FFFFFF;stroke-width:0.18;stroke-linejoin:round;" d="M980,6262.2h-19.5c-1.3,0-2.4-1.1-2.4-2.4
		c0,0,0,0,0,0v-19.5c0-7.4-3.9-11.8-10.3-11.8c-7.9,0-9.6,6.4-9.6,11.8v11.2c0,1.3-1.1,2.4-2.5,2.4c-1.3,0-2.3-1.1-2.4-2.4v-11.2
		c0-10.4,5.4-16.7,14.4-16.7c9.2,0,15.2,6.5,15.2,16.7v17.1H980c1.3,0,2.4,1.1,2.4,2.4C982.5,6261.1,981.4,6262.2,980,6262.2
		C980,6262.2,980,6262.2,980,6262.2z"/>
	<path style="fill:#FFFFFF;stroke:#FFFFFF;stroke-width:0.18;stroke-linejoin:round;" d="M961.1,6293.8c-1.3,0-2.4-1.1-2.4-2.4
		c0,0,0,0,0,0v-19.5c0-1.3,1.1-2.4,2.4-2.4c0,0,0,0,0,0h19.5c7.4,0,11.8-3.9,11.8-10.3c0-7.9-6.4-9.6-11.8-9.6h-11.2
		c-1.3,0-2.4-1.1-2.4-2.4c0-1.3,1.1-2.4,2.4-2.4c0,0,0,0,0,0h11.2c10.4,0,16.7,5.4,16.7,14.4c0,9.2-6.5,15.2-16.7,15.2h-17.1v17.1
		C963.5,6292.7,962.5,6293.8,961.1,6293.8C961.1,6293.8,961.1,6293.8,961.1,6293.8z"/>
</g>
</symbol><symbol id="icon-fax" viewBox="0 0 28 29">
  <path id="Path_644" data-name="Path 644" d="M29.005-12.882H26.317a.247.247,0,0,1-.25-.247v-8.065a.252.252,0,0,0-.25-.25H13.576a.248.248,0,0,0-.25.25v8.065a.252.252,0,0,1-.251.25H8.588a.247.247,0,0,0-.25.247v19.4a.252.252,0,0,0,.25.251H29.005a.248.248,0,0,0,.25-.251v-19.4A.252.252,0,0,0,29.005-12.882ZM15.3-19.648a.249.249,0,0,1,.251-.247h8.568a.247.247,0,0,1,.25.247v.345a.249.249,0,0,1-.25.247H15.551a.247.247,0,0,1-.25-.247S15.3-19.648,15.3-19.648Zm0,2.242a.252.252,0,0,1,.251-.251h8.568a.247.247,0,0,1,.25.251v.334a.248.248,0,0,1-.25.247H15.551a.247.247,0,0,1-.25-.247v-.334Zm0,2.09a.249.249,0,0,1,.251-.247h8.568a.246.246,0,0,1,.25.247v.345a.252.252,0,0,1-.25.25H15.551a.247.247,0,0,1-.25-.25v-.345ZM11.7,3.115a.249.249,0,0,1-.25.247h-.879a.247.247,0,0,1-.25-.247V-7.834a.249.249,0,0,1,.25-.247h.883a.247.247,0,0,1,.251.247Zm5,.112a.252.252,0,0,1-.25.251H14.218a.248.248,0,0,1-.25-.251V1.016a.252.252,0,0,1,.25-.251h2.238a.248.248,0,0,1,.25.251Zm0-4.48a.252.252,0,0,1-.25.25H14.218a.247.247,0,0,1-.25-.25V-3.464a.252.252,0,0,1,.25-.251h2.238a.248.248,0,0,1,.25.251Zm0-4.267a.252.252,0,0,1-.25.251H14.218a.248.248,0,0,1-.25-.251v-2.2a.252.252,0,0,1,.25-.25h2.238a.248.248,0,0,1,.25.25Zm5.072,8.748a.252.252,0,0,1-.25.251H19.28a.248.248,0,0,1-.25-.251V1.016a.252.252,0,0,1,.25-.251h2.249a.248.248,0,0,1,.25.251Zm0-4.48a.252.252,0,0,1-.25.25H19.28a.247.247,0,0,1-.25-.25V-3.464a.252.252,0,0,1,.25-.251h2.249a.248.248,0,0,1,.25.251Zm0-4.267a.252.252,0,0,1-.25.251H19.28a.248.248,0,0,1-.25-.251v-2.2a.252.252,0,0,1,.25-.25h2.249a.248.248,0,0,1,.25.25Zm5.065,8.748a.252.252,0,0,1-.25.251H24.345a.248.248,0,0,1-.25-.251V1.016a.252.252,0,0,1,.25-.251h2.249a.248.248,0,0,1,.25.251Zm0-4.48a.252.252,0,0,1-.25.25H24.345a.247.247,0,0,1-.25-.25V-3.464a.252.252,0,0,1,.25-.251h2.249a.248.248,0,0,1,.25.251Zm0-4.267a.252.252,0,0,1-.25.251H24.345a.248.248,0,0,1-.25-.251v-2.2a.252.252,0,0,1,.25-.25h2.249a.248.248,0,0,1,.25.25Zm.828-4.206a.249.249,0,0,1-.25.247H11.953a.247.247,0,0,1-.251-.247v-1.647a.249.249,0,0,1,.251-.247h1.119a.247.247,0,0,1,.25.247v.568a.252.252,0,0,0,.251.251h12.24a.248.248,0,0,0,.251-.251v-.568a.249.249,0,0,1,.25-.247h1.106a.247.247,0,0,1,.25.247ZM6.722-15.09H1.548a.625.625,0,0,0-.629.619v22a.624.624,0,0,0,.629.619H6.722a.623.623,0,0,0,.625-.619v-22A.618.618,0,0,0,6.722-15.09Z" transform="translate(-0.919 21.443)"/>
</symbol><symbol id="icon-genpaed" viewBox="0 0 120 120">
<g transform="translate(-202.88 -3778.496)">
	<path style="fill:#FFFFFF;stroke:#FFFFFF;stroke-width:0.138;stroke-linejoin:round;" d="M323.1,3896.6l-3.3-44.7
		c-0.5-6.4-5.2-11.6-11.5-12.8l-19.7-4.5c0,0,0,0,0,0l-5.7-1.3c1-1.2,1.9-2.4,2.8-3.7c0.1-0.1,0.2-0.3,0.3-0.4
		c0.4-0.6,0.7-1.2,1.1-1.9c0.1-0.2,0.2-0.4,0.3-0.5c0.3-0.6,0.6-1.3,0.9-1.9c0.1-0.2,0.2-0.4,0.2-0.6c0.3-0.7,0.5-1.4,0.8-2.1
		c0.1-0.2,0.1-0.3,0.2-0.5c0.2-0.8,0.5-1.5,0.7-2.3c0,0,0-0.1,0-0.1c0.2-0.9,0.4-1.8,0.6-2.7h2.5c3.3,0,6-2.7,6-6c0-3.3-2.7-6-6-6
		h-2.5c-0.1-0.4-0.1-0.7-0.2-1.1c0,0,0,0,0,0c-0.1-0.5-0.2-1-0.3-1.5c0,0,0-0.1,0-0.1c-0.1-0.4-0.2-0.7-0.3-1.1l0,0
		c-0.1-0.4-0.3-0.8-0.4-1.2c-0.1-0.2-0.1-0.3-0.2-0.5c-0.1-0.4-0.2-0.8-0.4-1.1s-0.3-0.7-0.5-1.1c0-0.1-0.1-0.2-0.1-0.3
		c-0.2-0.4-0.3-0.8-0.5-1.2c0-0.1-0.1-0.1-0.1-0.2c-0.4-0.8-0.8-1.7-1.3-2.5c0-0.1-0.1-0.1-0.1-0.2c-0.5-0.8-1-1.5-1.5-2.3
		c-0.1-0.1-0.1-0.2-0.2-0.2c-0.5-0.7-1-1.3-1.6-2c-0.1-0.1-0.2-0.2-0.3-0.4c-0.5-0.5-1-1.1-1.5-1.6c-0.2-0.2-0.4-0.4-0.6-0.5
		c-0.4-0.4-0.9-0.8-1.4-1.2c-0.3-0.2-0.6-0.5-0.9-0.7c-0.3-0.2-0.7-0.5-1-0.7l0,0c-0.1-0.1-0.2-0.2-0.4-0.3c-0.3-0.2-0.6-0.4-1-0.6
		c-0.1-0.1-0.3-0.1-0.4-0.2l-0.3-0.1c-0.2-0.1-0.4-0.2-0.7-0.4c-0.5-0.3-1-0.5-1.5-0.7c-0.3-0.1-0.6-0.3-0.9-0.4
		c-0.5-0.2-1-0.4-1.4-0.5c-0.4-0.1-0.8-0.2-1.2-0.3c-0.4-0.1-0.9-0.2-1.3-0.3c-0.5-0.1-1-0.2-1.5-0.3c-0.4-0.1-0.7-0.1-1.1-0.2
		c-0.9-0.1-1.8-0.2-2.7-0.2c-0.9,0-1.8,0.1-2.7,0.2c-0.4,0-0.7,0.1-1.1,0.2c-0.5,0.1-1,0.2-1.5,0.3c-0.4,0.1-0.9,0.2-1.3,0.3
		c-0.4,0.1-0.8,0.2-1.2,0.3c-0.5,0.2-1,0.3-1.4,0.5c-0.3,0.1-0.6,0.2-0.9,0.4c-0.5,0.2-1,0.5-1.5,0.7c-0.2,0.1-0.4,0.2-0.7,0.4
		c-0.5,0.3-1.1,0.6-1.6,1c0,0-0.1,0.1-0.1,0.1c0,0-0.1,0-0.1,0.1c-0.2,0.1-0.4,0.3-0.5,0.4c-0.5,0.3-0.9,0.6-1.4,1
		c-0.3,0.2-0.5,0.4-0.7,0.6c-0.4,0.4-0.9,0.7-1.3,1.1c-0.2,0.2-0.3,0.4-0.5,0.5c-1.5,1.5-2.8,3.2-4,5c-0.1,0.1-0.2,0.3-0.3,0.4
		c0,0,0,0,0,0c-0.1,0.1-0.1,0.2-0.2,0.3c-0.3,0.5-0.6,1.1-0.9,1.6c-0.1,0.2-0.2,0.3-0.3,0.5c-0.1,0.1-0.1,0.2-0.2,0.3
		c-0.3,0.5-0.5,1.1-0.8,1.6c-0.1,0.2-0.1,0.3-0.2,0.5c-0.1,0.1-0.1,0.3-0.2,0.4c-0.2,0.6-0.4,1.2-0.6,1.8c0,0.1-0.1,0.3-0.1,0.4
		c0,0.1-0.1,0.1-0.1,0.2c0,0,0,0.1,0,0.1c-0.2,0.7-0.4,1.4-0.6,2.1c0,0,0,0.1,0,0.1c-0.2,0.9-0.4,1.8-0.6,2.7H233c-3.3,0-6,2.7-6,6
		c0,3.3,2.7,6,6,6h2.5c0,0,0,0,0,0c0.1,0.3,0.1,0.6,0.2,1c0,0.1,0.1,0.3,0.1,0.5c-1.6,0.9-3,1.9-4.2,3.2c-3.8,4-3.8,8.4-3.8,13
		c0,0.9,0,1.7,0,2.6l-9.8,2.2c-6.3,1.1-11.1,6.4-11.6,12.8l-3.3,44.7c-0.1,1.1,0.7,2.1,1.8,2.1c0.1,0,0.1,0,0.2,0h116.2
		c1.1,0,2-0.9,2-2C323.1,3896.7,323.1,3896.6,323.1,3896.6L323.1,3896.6z M291,3808.6h2.1c1.1,0,2,0.9,2,2c0,1.1-0.9,2-2,2H291
		c0-0.7,0.1-1.3,0.1-2C291.1,3809.9,291,3809.3,291,3808.6z M235.1,3812.6H233c-1.1,0-2-0.9-2-2s0.9-2,2-2l0,0h2.1
		c0,0.7-0.1,1.3-0.1,2S235.1,3812,235.1,3812.6z M284.2,3837.7l-21.1,22l-12.4-14.3c0.1-0.2,0.2-0.4,0.3-0.6
		c0.7-1.4,1.2-2.9,1.6-4.4c0.1,0,0.2,0.1,0.3,0.1l0.1,0l0.3,0.1c0.2,0.1,0.3,0.1,0.5,0.2c0.4,0.2,0.8,0.3,1.2,0.4
		c0.2,0.1,0.4,0.1,0.6,0.2c0.2,0.1,0.4,0.1,0.6,0.2h0l0,0l0.2,0.1c0,0,0.1,0,0.1,0l0,0c0,0,0.1,0,0.1,0c0.3,0.1,0.6,0.2,0.8,0.2
		c0.4,0.1,0.8,0.1,1.2,0.2c0.2,0,0.3,0.1,0.5,0.1l0,0l0.3,0c0.2,0,0.5,0.1,0.7,0.1c0.2,0,0.5,0,0.7,0l0.2,0c0,0,0,0,0,0l0,0
		c0.6,0.1,1.3,0.1,1.8,0.1h0.1c0.1,0,0.2,0,0.3,0h0c0.6,0,1.2,0,1.8-0.1c0.2,0,0.4,0,0.6,0c0.2,0,0.4-0.1,0.7-0.1l0.3,0
		c0.1,0,0.2,0,0.4-0.1c0.4-0.1,0.8-0.1,1.2-0.2l0,0c0.3-0.1,0.6-0.2,1-0.2c0.1,0,0.1,0,0.2,0c0.1,0,0.2-0.1,0.4-0.1
		c0.3-0.1,0.6-0.2,0.8-0.2c0,0,0,0,0,0c0,0,0.1,0,0.1,0c0.4-0.1,0.7-0.2,1.1-0.4c0.1,0,0.1,0,0.2-0.1c0.1,0,0.3-0.1,0.5-0.2
		c0.2-0.1,0.4-0.2,0.6-0.3c0.5-0.2,0.9-0.4,1.4-0.7c0.1,0,0.1-0.1,0.2-0.1c0.2-0.1,0.4-0.2,0.6-0.3c0.5-0.3,1.1-0.6,1.6-1
		c0.1-0.1,0.2-0.2,0.3-0.2c0.3-0.2,0.6-0.4,0.9-0.6c0.3-0.2,0.6-0.5,0.9-0.7c0.1-0.1,0.2-0.2,0.3-0.2L284.2,3837.7z M265,3882.7
		c0,1.1-0.9,2-2,2c-1.1,0-2-0.9-2-2c0-1.1,0.9-2,2-2C264.2,3880.7,265,3881.6,265,3882.7z M241.9,3797.4c0.1-0.2,0.2-0.4,0.3-0.5
		c0.2-0.5,0.5-1,0.8-1.5c0.1-0.2,0.2-0.3,0.3-0.5c0.3-0.5,0.6-1.1,1-1.6c0.1-0.1,0.1-0.2,0.2-0.2c1.3-1.9,2.8-3.5,4.5-5
		c0,0,0,0,0.1-0.1c0.5-0.4,1.1-0.9,1.6-1.3l0.2-0.2c0.1-0.1,0.3-0.2,0.4-0.3c3.8-2.2,8.1-3.4,12.6-3.6c2,0.1,4,0.4,6,1.1
		c0.5,0.2,1,0.4,1.5,0.6c0.2,0.1,0.4,0.2,0.6,0.2c0.5,0.2,1,0.5,1.6,0.8c0.1,0.1,0.3,0.1,0.4,0.2c0.5,0.3,1.1,0.7,1.6,1
		c0.1,0.1,0.1,0.1,0.2,0.2c0.6,0.4,1.1,0.8,1.6,1.3c0,0,0,0,0.1,0.1c3.5,3.1,6.2,7,7.8,11.4c0,0,0,0.1,0,0.1
		c0.2,0.7,0.5,1.4,0.7,2.1c0,0.1,0.1,0.3,0.1,0.4c0.2,0.6,0.3,1.2,0.4,1.8c0,0.2,0.1,0.4,0.1,0.6c0,0.1,0,0.1,0,0.2h-1.2
		c-4.6-1.3-9-3.3-13.2-5.7c-5-3-9.5-6.7-13.3-11c-0.4-0.4-1-0.7-1.6-0.7c-0.6,0-1.2,0.3-1.5,0.8c-2.1,2.8-4.7,5.1-7.7,6.9
		c-1.9,1.2-4,2-6.2,2.7C241.9,3797.5,241.9,3797.4,241.9,3797.4z M239.2,3806.8L239.2,3806.8c0.2-1.6,0.5-3.3,0.9-4.8
		c3.5-0.6,6.8-1.9,9.8-3.7c2.7-1.6,5.2-3.7,7.3-6.1c3.8,3.9,8,7.3,12.7,10.1c4.5,2.7,9.4,4.8,14.5,6.2c0.2,0,0.4,0.1,0.5,0.1
		c0.1,0,0.2,0,0.4,0h1.6c0,0.7,0.1,1.3,0.1,2c0,1.3-0.1,2.5-0.2,3.8l0,0c-0.7,7.2-4.1,13.9-9.5,18.7c-0.2,0.2-0.4,0.3-0.6,0.5
		c-0.3,0.3-0.7,0.5-1,0.8c-0.2,0.2-0.5,0.3-0.7,0.5l0,0c-0.3,0.2-0.6,0.4-0.9,0.6c-0.2,0.1-0.4,0.2-0.5,0.3
		c-0.1,0.1-0.3,0.2-0.4,0.2c-0.2,0.1-0.4,0.2-0.7,0.3c-0.4,0.2-0.8,0.4-1.2,0.6l-0.1,0c-0.4,0.2-0.8,0.3-1.3,0.5l-0.2,0.1
		c-0.3,0.1-0.7,0.2-1,0.3c-0.3,0.1-0.5,0.1-0.8,0.2c-0.2,0-0.3,0.1-0.5,0.1c-0.3,0.1-0.7,0.1-1.1,0.2c-0.2,0-0.5,0.1-0.7,0.1
		c-0.1,0-0.3,0-0.4,0.1l-0.1,0c-0.7,0.1-1.3,0.1-2,0.1c-0.1,0-0.3,0-0.4,0c-0.6,0-1.3-0.1-1.9-0.1c-0.3,0-0.6-0.1-0.9-0.1l-0.1,0
		c-0.1,0-0.2,0-0.2,0c-0.7-0.1-1.4-0.3-2.1-0.4l0,0l0,0c-0.2,0-0.3-0.1-0.5-0.1c-0.2,0-0.3-0.1-0.5-0.2c-0.5-0.1-0.9-0.3-1.4-0.5
		c-0.2-0.1-0.4-0.2-0.6-0.3c-0.5-0.2-1.1-0.5-1.6-0.8c-0.1-0.1-0.3-0.1-0.4-0.2c-0.1,0-0.1-0.1-0.2-0.1c-6.2-3.8-10.7-9.9-12.4-17.1
		v0c-0.3-1.2-0.5-2.5-0.7-3.7c-0.2-1.4-0.3-2.9-0.3-4.3C239,3809.4,239.1,3808.1,239.2,3806.8L239.2,3806.8z M228.8,3849.5
		c0.3-0.7,0.6-1.3,0.8-2c0.1-0.2,0.2-0.4,0.2-0.6c0.2-0.5,0.3-0.9,0.5-1.4c0.1-0.2,0.1-0.4,0.2-0.6c0.2-0.6,0.3-1.2,0.4-1.8
		c0-0.1,0-0.2,0.1-0.3c0.1-0.5,0.2-1,0.3-1.5c0-0.1,0-0.3,0.1-0.4c0.1-0.5,0.1-1.1,0.2-1.5c0-0.2,0-0.3,0-0.5c0-0.1,0-0.3,0-0.4
		c0,0,0,0,0,0c0.1-1.5,0.1-3,0.1-4.3c0-4.3,0-7.4,2.8-10.3c0.7-0.7,1.5-1.4,2.4-1.9c2.1,6.6,6.4,12.4,12.2,16.3
		c-0.1,0.2-0.1,0.5-0.2,0.7c-0.1,0.5-0.3,1-0.5,1.4c-0.1,0.1-0.1,0.3-0.2,0.4c-0.5,1.3-1.1,2.6-1.7,3.8c0,0,0,0.1,0,0.1
		c-1.7,3.2-4,6-6.8,8.3c-6.9,5.8-15.8,7.2-18.5,6.7c0.3-0.4,0.8-0.8,1.1-1.3C225,3855.9,227.2,3852.9,228.8,3849.5z M207.1,3894.7
		l3.2-42.6c0.4-4.6,3.8-8.4,8.4-9.1l8.6-2c-0.1,0.6-0.2,1.1-0.3,1.7c0,0.2-0.1,0.3-0.1,0.5c-0.1,0.4-0.2,0.8-0.3,1.2
		c-0.1,0.3-0.2,0.6-0.3,1c-0.1,0.2-0.2,0.5-0.3,0.7c-0.2,0.6-0.5,1.2-0.8,1.8c-1.5,3-3.4,5.7-5.7,8c-1.8,1.9-3.4,3.7-2.2,5.9
		c0.7,1.2,2,1.9,3.3,2.1c0.6,0.1,1.3,0.2,1.9,0.2c0.1,0,0.1,0,0.2,0h0.1c0.7,0,1.5,0,2.2-0.1c0.3,0,0.6-0.1,0.9-0.1
		c0.5-0.1,1-0.2,1.6-0.3c0.4-0.1,0.8-0.2,1.2-0.3c0.5-0.1,1-0.3,1.5-0.4c0.4-0.1,0.8-0.3,1.2-0.4c0.5-0.2,1-0.4,1.6-0.6
		c0.4-0.2,0.8-0.3,1.2-0.5c0.6-0.2,1.1-0.5,1.6-0.8c0.4-0.2,0.8-0.4,1.1-0.6c0.6-0.3,1.2-0.7,1.8-1.1c0.3-0.2,0.6-0.4,0.9-0.6
		c0.9-0.6,1.8-1.2,2.6-1.9c2.4-2,4.6-4.4,6.4-7.1l12.4,14.3v13.6c-3.1,1.1-4.8,4.5-3.7,7.7s4.5,4.8,7.7,3.7c3.1-1.1,4.8-4.5,3.7-7.7
		c-0.6-1.7-2-3.1-3.7-3.7v-13.6l23.8-24.7l13.6,3.1l5.2,1.2c4.5,0.8,7.9,4.5,8.3,9.1l3.2,42.6L207.1,3894.7z"/>
	<path style="fill:#FFFFFF;stroke:#FFFFFF;stroke-width:0.138;stroke-linejoin:round;" d="M251.9,3808.6c-2.6,0-5.1,0.8-7.2,2.4
		l2.4,3.2c1.4-1,3.1-1.6,4.8-1.6c1.7,0,3.4,0.6,4.8,1.6l2.4-3.2C257,3809.5,254.5,3808.6,251.9,3808.6z"/>
	<path style="fill:#FFFFFF;stroke:#FFFFFF;stroke-width:0.138;stroke-linejoin:round;" d="M275.9,3808.6c-2.6,0-5.1,0.8-7.2,2.4
		l2.4,3.2c1.4-1,3.1-1.6,4.8-1.6c1.7,0,3.4,0.6,4.8,1.6l2.4-3.2C281.1,3809.5,278.5,3808.6,275.9,3808.6z"/>
	<path style="fill:#FFFFFF;stroke:#FFFFFF;stroke-width:0.138;stroke-linejoin:round;" d="M268.7,3825c-1.4,1-3.1,1.6-4.8,1.6
		c-1.7,0-3.4-0.6-4.8-1.6l-2.4,3.2c2.1,1.6,4.6,2.4,7.2,2.4c2.6,0,5.1-0.8,7.2-2.4L268.7,3825z"/>
	<path style="fill:#FFFFFF;stroke:#FFFFFF;stroke-width:0.138;stroke-linejoin:round;" d="M315.2,3864.8
		c-3.9-9.7-14.9-14.4-24.6-10.6c-4.8,1.9-8.6,5.7-10.6,10.6c-3.5,0.5-6.1,3.5-6.1,7c0,3.5,2.6,6.5,6.1,7
		c3.9,9.7,14.9,14.4,24.6,10.6c4.8-1.9,8.6-5.7,10.6-10.6c3.5-0.5,6.1-3.5,6.1-7C321.3,3868.3,318.7,3865.3,315.2,3864.8z
		 M314.2,3874.2h-0.7c-1,0-2,0.7-2.3,1.7c-2.2,7.5-10.1,11.8-17.7,9.6c-4.6-1.4-8.2-5-9.6-9.6c-0.3-1-1.2-1.7-2.3-1.7H281
		c-1.3,0-2.4-1.1-2.4-2.4s1.1-2.4,2.4-2.4l0,0h0.7c1,0,2-0.7,2.3-1.7c1.3-4.2,4.4-7.5,8.5-9.1c-0.3,1.6-0.1,3.3,0.7,4.8
		c0.9,1.8,2.5,3.2,4.4,3.8c0.8,0.3,1.6,0.4,2.4,0.4c1.2,0,2.3-0.3,3.4-0.8l-2.1-4.2c-0.7,0.3-1.5,0.4-2.2,0.1
		c-0.7-0.2-1.3-0.8-1.7-1.5c-0.3-0.7-0.4-1.5-0.1-2.2c0.2-0.6,0.6-1,1.1-1.4c6,0.3,11.2,4.3,12.9,10.1c0.3,1,1.2,1.7,2.3,1.7h0.7
		c1.3,0,2.4,1.1,2.4,2.4S315.5,3874.2,314.2,3874.2L314.2,3874.2z"/>
</g>
</symbol><symbol id="icon-left" viewBox="0 0 234 473">
    <!-- Generator: Sketch 51.3 (57544) - http://www.bohemiancoding.com/sketch -->
    <title>Shape</title>
    <desc>Created with Sketch.</desc>
    
    <g id="Page-1" stroke-width="1" fill-rule="evenodd">
        <g id="left" transform="translate(7.000000, 6.000000)" fill-rule="nonzero">
            <path d="M215.535624,-3.93066342 C218.156029,-6.54980528 222.403522,-6.5487811 225.022663,-3.92837585 C227.641805,-1.3079706 227.640781,2.93952156 225.020376,5.55866342 L13.4613759,217.015663 C5.3920874,224.705553 5.3920874,236.249447 13.3461378,243.826886 L225.020353,455.394314 C227.640771,458.013444 227.641815,462.260936 225.022686,464.881353 C222.403556,467.501771 218.156064,467.502815 215.535647,464.883686 L4.03058385,253.482597 C-9.39165726,240.634296 -9.39166128,220.320721 4.03057178,207.472415 L215.535624,-3.93066342 Z" id="Shape"/>
        </g>
    </g>
</symbol><symbol id="icon-mail" viewBox="0 0 34 23">
<path id="Path_645" style="fill:#E271AC;" d="M17.6,6.7c-0.2,0-0.4,0.1-0.5,0.2c-0.2,0.1-0.3,0.3-0.4,0.4c-0.1,0.2-0.2,0.4-0.2,0.6
	c0,0.2-0.1,0.4,0,0.6c0,0.2,0.1,0.4,0.2,0.6c0.1,0.1,0.3,0.2,0.5,0.1c0.1,0,0.2,0,0.3-0.1c0.1,0,0.2-0.1,0.3-0.1L18,6.7
	c-0.1,0-0.1,0-0.2,0C17.7,6.7,17.7,6.7,17.6,6.7z M2.9,4.7c4.5,4.5,9,9,13.5,13.5c0.4,0.4,0.6,0.4,0.9,0L30.2,5.4
	c0.3-0.3,0.7-0.6,0.9-1c0.1-0.4,0.1-0.9,0-1.3c0.1-0.6-0.3-1.2-1-1.3c-0.1,0-0.2,0-0.4,0H4c-0.6-0.1-1.2,0.4-1.3,1
	c0,0.1,0,0.2,0,0.3c0,0.4,0,0.7,0,1.1C2.7,4.4,2.8,4.6,2.9,4.7z M13.3,7.3c0.2-0.6,0.4-1.1,0.8-1.6c0.4-0.5,0.9-1,1.5-1.3
	C16.3,4,17,3.8,17.8,3.8c0.5,0,0.9,0,1.4,0.1c0.4,0.1,0.8,0.2,1.2,0.5c0.3,0.2,0.6,0.6,0.8,0.9c0.2,0.4,0.4,0.9,0.4,1.4
	c0,0.4,0,0.8-0.1,1.2c-0.1,0.4-0.2,0.7-0.4,1.1c-0.2,0.3-0.5,0.6-0.8,0.8c-0.3,0.2-0.7,0.4-1.1,0.4c-0.4,0.1-0.8,0-1.1-0.3
	c-0.2,0.1-0.4,0.2-0.6,0.3c-0.2,0.1-0.5,0.2-0.8,0.2c-0.2,0-0.4,0-0.6,0c-0.2,0-0.3-0.1-0.5-0.2c-0.2-0.1-0.3-0.3-0.4-0.5
	c-0.1-0.2-0.2-0.4-0.2-0.7c0-0.4,0-0.8,0.1-1.2c0.1-0.4,0.3-0.7,0.5-1C16,6.4,16.3,6.2,16.6,6c0.3-0.2,0.7-0.3,1-0.3
	c0.3,0,0.6,0,0.8,0c0.3,0,0.5,0.1,0.8,0.1L19,9.1c0.1,0,0.2,0.1,0.3,0c0.2,0,0.4-0.1,0.6-0.3c0.2-0.2,0.3-0.4,0.4-0.6
	c0.1-0.2,0.2-0.5,0.2-0.8c0-0.3,0-0.5,0-0.8c0-0.6-0.3-1.2-0.8-1.6c-0.6-0.4-1.2-0.5-1.9-0.4c-0.6,0-1.1,0.2-1.6,0.5
	c-0.4,0.2-0.8,0.6-1.1,1c-0.3,0.4-0.5,0.8-0.6,1.3c-0.1,0.5-0.2,1-0.1,1.5c0,0.4,0.1,0.8,0.3,1.1c0.1,0.3,0.4,0.5,0.6,0.7
	c0.3,0.2,0.5,0.3,0.9,0.4c0.3,0.1,0.7,0.1,1,0c0.3,0,0.6-0.1,0.9-0.1c0.3-0.1,0.5-0.2,0.7-0.3c0.1,0.1,0.1,0.3,0.2,0.4
	s0.1,0.3,0.2,0.4c-0.1,0.1-0.3,0.1-0.4,0.2c-0.2,0.1-0.3,0.1-0.5,0.2c-0.2,0-0.4,0.1-0.6,0.1c-0.2,0-0.4,0.1-0.6,0.1
	c-0.5,0-0.9,0-1.4-0.1c-0.4-0.1-0.8-0.3-1.2-0.5c-0.4-0.3-0.7-0.6-0.9-1c-0.2-0.5-0.4-1-0.4-1.5C13.1,8.5,13.1,7.9,13.3,7.3z
	 M24.7,13.4c-0.1-0.1-0.1-0.1-0.3-0.3c-0.1,0.1-0.1,0.2-0.2,0.3c-1.9,1.9-3.9,3.9-5.8,5.8c-0.6,0.8-1.8,0.9-2.6,0.3
	c-0.1-0.1-0.2-0.2-0.3-0.3c-1.9-1.9-3.9-3.9-5.8-5.8c-0.1-0.1-0.2-0.2-0.2-0.3c-0.1,0.1-0.1,0.1-0.2,0.1c-2.1,2.1-4.3,4.3-6.4,6.4
	c-0.2,0.2-0.2,0.4-0.1,0.6c0.1,0.6,0.7,0.9,1.3,0.9h25.8c0.1,0,0.2,0,0.3,0c0.4,0,0.8-0.3,0.9-0.6c0.2-0.3,0.2-0.7-0.1-1
	C28.8,17.5,26.8,15.4,24.7,13.4L24.7,13.4z M2.7,17.7l5.5-5.5c-1.8-1.9-3.7-3.7-5.5-5.6V17.7z M31.1,17.7V6.6l-5.5,5.5L31.1,17.7z"/>
</symbol><symbol id="icon-map" viewBox="0 0 136 136">
<g transform="translate(-890.324 -11064.787)">
	<path style="fill:#FFFFFF;stroke:#A2CF60;stroke-width:0.9;stroke-linecap:round;stroke-linejoin:bevel;" d="M958.3,11065.2
		c37.3,0,67.5,30.3,67.6,67.6c0,37.3-30.3,67.5-67.6,67.5c-37.3,0-67.5-30.2-67.6-67.5C890.8,11095.5,921,11065.3,958.3,11065.2z"/>
	<path style="fill:#FFFFFF;stroke:#A2CF60;stroke-width:4;stroke-linecap:round;stroke-linejoin:bevel;" d="M958.3,11075.4
		c31.7,0,57.4,25.7,57.4,57.4c0,31.7-25.7,57.4-57.4,57.4c-31.7,0-57.4-25.7-57.4-57.4C901,11101.1,926.6,11075.4,958.3,11075.4z"/>
	<path style="fill:#A2CF60;stroke:#A2CF60;stroke-width:4;stroke-linejoin:round;" d="M951,11126.1l38.1-31.1l-21,44.1L951,11126.1z
		"/>
	<path style="fill:none;stroke:#A2CF60;stroke-width:4;stroke-linecap:round;stroke-linejoin:round;" d="M951,11126.1l-21.1,44
		l38.2-31L951,11126.1z"/>
	<path style="fill:#FFFFFF;stroke:#A2CF60;stroke-width:4;stroke-linejoin:round;" d="M959.1,11124.6c4.5,0,8.2,3.7,8.2,8.2
		c0,4.5-3.7,8.2-8.2,8.2c-4.5,0-8.2-3.7-8.2-8.2C950.9,11128.2,954.6,11124.6,959.1,11124.6z"/>
</g>
</symbol><symbol id="icon-news" viewBox="0 0 113 113">
  <g transform="translate(-813.688 -13939.942)">
    <path d="M436.693-257.473H346.079a3.324,3.324,0,0,0-3.322,3.322v41.622h-12.83a3.321,3.321,0,0,0-3.322,3.322v53.754a11.407,11.407,0,0,0,11.4,11.39h87.608a14.407,14.407,0,0,0,14.4-14.379v-95.709A3.324,3.324,0,0,0,436.693-257.473ZM333.249-155.453v-50.432h9.508v50.432a4.754,4.754,0,0,1-4.751,4.746A4.755,4.755,0,0,1,333.249-155.453Zm100.116-2.989a7.75,7.75,0,0,1-7.752,7.735H348.365a11.327,11.327,0,0,0,1.042-4.746v-95.376h83.958Z" transform="translate(487.083 14197.415)"/>
    <path d="M335.325-241.048h64.031a3.325,3.325,0,0,0,3.322-3.322,3.321,3.321,0,0,0-3.322-3.322H335.325A3.321,3.321,0,0,0,332-244.37,3.325,3.325,0,0,0,335.325-241.048Z" transform="translate(511.132 14240.988)"/>
    <path d="M335.325-243.481h64.031a3.321,3.321,0,0,0,3.322-3.322,3.325,3.325,0,0,0-3.322-3.322H335.325A3.325,3.325,0,0,0,332-246.8,3.321,3.321,0,0,0,335.325-243.481Z" transform="translate(511.132 14230.15)"/>
    <path d="M335.325-238.616h21.624a3.321,3.321,0,0,0,3.322-3.322,3.324,3.324,0,0,0-3.322-3.322H335.325A3.325,3.325,0,0,0,332-241.938,3.321,3.321,0,0,0,335.325-238.616Z" transform="translate(511.132 14251.823)"/>
    <path d="M335.325-236.183h21.624a3.324,3.324,0,0,0,3.322-3.322,3.325,3.325,0,0,0-3.322-3.322H335.325A3.325,3.325,0,0,0,332-239.5,3.325,3.325,0,0,0,335.325-236.183Z" transform="translate(511.132 14262.662)"/>
    <path d="M335.325-233.745h21.624a3.325,3.325,0,0,0,3.322-3.322,3.326,3.326,0,0,0-3.322-3.328H335.325A3.326,3.326,0,0,0,332-237.067,3.325,3.325,0,0,0,335.325-233.745Z" transform="translate(511.132 14273.499)"/>
    <path d="M334.163-235.636c1.036,0,2.073-.42,2.073-1.271v-9.023l5.051,9.181a2.325,2.325,0,0,0,2.313,1.113c1.037,0,2.073-.42,2.073-1.271v-16.878c0-.878-1.036-1.249-2.073-1.249s-2.073.371-2.073,1.249v9.023l-4.31-8.2c-1.009-1.942-1.565-2.073-3.055-2.073-1.036,0-2.073.4-2.073,1.276v16.851C332.09-236.056,333.127-235.636,334.163-235.636Z" transform="translate(511.519 14208.281)"/>
    <path d="M337.107-235.636h9.464c.878,0,1.249-.927,1.249-1.778,0-.982-.447-1.827-1.249-1.827h-7.124v-4.511h3.988c.878,0,1.249-.851,1.249-1.566,0-.851-.453-1.62-1.249-1.62h-3.988v-4.484h7.124c.8,0,1.249-.851,1.249-1.833,0-.851-.371-1.778-1.249-1.778h-9.464c-.9,0-1.806.426-1.806,1.276v16.851C335.3-236.056,336.207-235.636,337.107-235.636Z" transform="translate(525.824 14208.281)"/>
    <path d="M343.214-236.852c.295.927,1.517,1.38,2.739,1.38,1.2,0,2.471-.453,2.684-1.38l1.386-6.29,1.38,6.29c.213.927,1.489,1.38,2.684,1.38,1.227,0,2.422-.453,2.738-1.38l5.291-16.191a1.159,1.159,0,0,0,.055-.343c0-.906-1.489-1.647-2.684-1.647-.638,0-1.173.213-1.331.769l-4.042,13.616-2.1-8.968c-.158-.72-1.086-1.091-1.991-1.091s-1.833.371-2,1.091l-2.1,8.968-4.037-13.616c-.164-.556-.693-.769-1.331-.769-1.194,0-2.684.742-2.684,1.647a1.163,1.163,0,0,0,.055.343Z" transform="translate(537.287 14208.281)"/>
    <path d="M348.952-238.954c-2.471,0-3.267-1.964-4.517-1.964-1.009,0-1.806,1.326-1.806,2.231,0,1.751,2.924,3.448,6.4,3.448,3.857,0,6.644-2.067,6.644-5.892,0-6.688-8.422-6.186-8.422-8.837,0-.824.769-1.593,2.657-1.593,2.177,0,2.684,1.009,3.638,1.009,1.173,0,1.653-1.462,1.653-2.177,0-2.073-3.884-2.335-5.291-2.335-3.322,0-6.808,1.511-6.808,5.493,0,6.208,8.428,5.651,8.428,8.864C351.533-239.434,350.18-238.954,348.952-238.954Z" transform="translate(558.475 14208.15)"/>
    <path d="M370.844-245.26H341.725a3.324,3.324,0,0,0-3.322,3.322v26.544a3.324,3.324,0,0,0,3.322,3.322h29.119a3.325,3.325,0,0,0,3.322-3.322v-26.544A3.325,3.325,0,0,0,370.844-245.26Zm-3.322,26.539H345.047v-19.895h22.475Z" transform="translate(539.644 14251.823)"/>
  </g>
</symbol><symbol id="icon-occuptherapist" viewBox="0 0 123 113">
  <g transform="translate(-477.798 -4370.732)">
    <path d="M126.139-243.621a16.092,16.092,0,0,0-16.07,16.075,16.092,16.092,0,0,0,16.07,16.075,16.093,16.093,0,0,0,16.075-16.075A16.093,16.093,0,0,0,126.139-243.621Zm0,24.113a8.046,8.046,0,0,1-8.032-8.038,8.046,8.046,0,0,1,8.032-8.038,8.047,8.047,0,0,1,8.038,8.038A8.047,8.047,0,0,1,126.139-219.508Z" transform="translate(424.274 4614.641)" stroke-linejoin="round" stroke-width="0.361"/>
    <path d="M222.536-185.236a12.069,12.069,0,0,0-11.411-12.038,12.14,12.14,0,0,0-.126-8.466c7.557-2.52,10.208-9.559,8.242-15.458a12.029,12.029,0,0,0-15.249-7.619l-1.245.413a20.009,20.009,0,0,0-16.8-9.068H159.574a20.112,20.112,0,0,0-20.081,20.091v8.032a19.98,19.98,0,0,0,4.032,12.059h-.01a12.068,12.068,0,0,0-12.059,12.054,11.892,11.892,0,0,0,.7,4.016H129.3a15.981,15.981,0,0,0,2.16-8.038,16.088,16.088,0,0,0-16.07-16.07,16.091,16.091,0,0,0-16.074,16.07,16.007,16.007,0,0,0,4.271,10.9,12.027,12.027,0,0,0-4.271,9.193,12.071,12.071,0,0,0,12.053,12.059h99.118a12.072,12.072,0,0,0,12.054-12.059,12.01,12.01,0,0,0-3.075-8.032A12.007,12.007,0,0,0,222.536-185.236Zm-16-35.963a4,4,0,0,1,5.078,2.541v.005a4.016,4.016,0,0,1-2.541,5.083c-3.127,1.041-16.5,5.5-18.617,6.2a4.028,4.028,0,0,0-2.745,3.812v6.265h-8.038v-11.17c.146-.648-.2-3.718,2.745-4.7Zm-5.507,23.7a4.024,4.024,0,0,1-5.078-2.547l-.2-.617h0l7.624-2.541.2.617A4.029,4.029,0,0,1,201.032-197.494Zm-53.5-19.887a12.068,12.068,0,0,1,12.054-12.059h26.367a12,12,0,0,1,8.717,3.729l-14.789,4.926a11.941,11.941,0,0,0-7.734,8.3,11.941,11.941,0,0,0-4.523-.884h-4.042v-4.016a4,4,0,0,0-4-4.021,4.018,4.018,0,0,0-4.016,4.021v8.032a4.018,4.018,0,0,0,4.016,4.021h8.038a4.017,4.017,0,0,1,4.016,4.016,4.022,4.022,0,0,1-4.016,4.021h-8.038a12.072,12.072,0,0,1-12.054-12.059ZM115.385-197.29a8.046,8.046,0,0,1,8.038,8.032,8.047,8.047,0,0,1-8.038,8.038,8.043,8.043,0,0,1-8.038-8.038A8.042,8.042,0,0,1,115.385-197.29Zm95.1,32.145H111.364a4.025,4.025,0,0,1-4.016-4.021,4.024,4.024,0,0,1,4.016-4.016h99.118a4.025,4.025,0,0,1,4.021,4.016A4.026,4.026,0,0,1,210.482-165.145Zm0-16.075H143.514a4.025,4.025,0,0,1-4.021-4.016,4.026,4.026,0,0,1,4.021-4.021h66.968a4.026,4.026,0,0,1,4.021,4.021A4.025,4.025,0,0,1,210.482-181.22Z" transform="translate(378.775 4640.644)" stroke-linejoin="round" stroke-width="0.361"/>
  </g>
</symbol><symbol id="icon-phone" viewBox="0 0 28 23">
  <path id="Path_643" data-name="Path 643" d="M29.137-31.5c0-1-1.927-2.3-4.312-2.686a60.444,60.444,0,0,0-19.671,0C2.768-33.8.841-32.5.841-31.5c0,.028.02.054.022.082a.872.872,0,0,0-.062.309v3.332a.874.874,0,0,0,.87.87H6.043a.874.874,0,0,0,.87-.87v-3.034a60.489,60.489,0,0,1,16.112-.006v3.242a.869.869,0,0,0,.867.87h4.375a.874.874,0,0,0,.87-.87v-3.474a.858.858,0,0,0-.051-.252A.688.688,0,0,0,29.137-31.5ZM26.9-21.26l-4.794-1.6a10.636,10.636,0,0,0-1.38-.334v-5.307H18.7v3.111H11.285v-3.111H9.256v5.341a10.43,10.43,0,0,0-1.232.306l-4.676,1.59a2.6,2.6,0,0,0-1.649,2.3V-13.6a1.744,1.744,0,0,0,1.74,1.74H26.814a1.744,1.744,0,0,0,1.74-1.74v-5.367A2.585,2.585,0,0,0,26.9-21.26ZM14.867-13.8a4.723,4.723,0,0,1-4.726-4.724,4.724,4.724,0,0,1,4.726-4.726,4.725,4.725,0,0,1,4.726,4.726A4.725,4.725,0,0,1,14.867-13.8Zm0-7.251a2.528,2.528,0,0,0-2.527,2.527,2.528,2.528,0,0,0,2.527,2.528,2.53,2.53,0,0,0,2.527-2.528A2.53,2.53,0,0,0,14.867-21.05Z" transform="translate(-0.801 34.995)"/>
</symbol><symbol id="icon-physiotherapist" viewBox="0 0 85 118">
  <g transform="translate(-1610.448 -4366.25)">
    <path d="M179.46-167.8a15.387,15.387,0,0,0-15.369,15.369,15.384,15.384,0,0,0,15.369,15.369,15.387,15.387,0,0,0,15.369-15.369A15.39,15.39,0,0,0,179.46-167.8Zm0,23.056a7.7,7.7,0,0,1-7.687-7.687,7.7,7.7,0,0,1,7.687-7.682,7.691,7.691,0,0,1,7.682,7.682A7.692,7.692,0,0,1,179.46-144.747Z" transform="translate(1462.006 4534.306)" stroke-linejoin="round" stroke-width="0.505"/>
    <path d="M229.564-97.632a11.441,11.441,0,0,0,.732-4.095V-119.9a11.519,11.519,0,0,0-11.5-11.526H199.259c.214-2.777.3-5.538.3-8.257V-150.4a11.529,11.529,0,0,0-19.657-8.147l-15.369,15.369a11.523,11.523,0,0,0,0,16.3l9.219,9.214a80.37,80.37,0,0,1-10.657,24.908,11.515,11.515,0,0,0,3.2,15.986,11.525,11.525,0,0,0,15.986-3.2,101.991,101.991,0,0,0,12.781-28.165h12.211v6.4a11.453,11.453,0,0,0,.753,4.095A19.237,19.237,0,0,0,191.9-78.67a3.842,3.842,0,0,0,3.838,3.844h46.108a3.843,3.843,0,0,0,3.844-3.844A19.241,19.241,0,0,0,229.564-97.632ZM175.879-84.223a3.84,3.84,0,0,1-5.329,1.062,3.83,3.83,0,0,1-1.062-5.329A85.672,85.672,0,0,0,180-111.411a11.437,11.437,0,0,0,7.049,3.237A93.221,93.221,0,0,1,175.879-84.223ZM191.9-139.681c0,2.406-.094,4.842-.272,7.3l-5.36-5.355a3.841,3.841,0,0,0-5.433,0,3.841,3.841,0,0,0,0,5.433l9.936,9.936a3.814,3.814,0,0,1,1.13,2.714,3.826,3.826,0,0,1-1.13,2.719,3.851,3.851,0,0,1-5.433,0l-15.369-15.369a3.841,3.841,0,0,1,0-5.433c17.377-17.377,15.139-15.139,15.411-15.406A3.846,3.846,0,0,1,191.9-150.4Zm7.023,23.893a11.737,11.737,0,0,0-.094-7.975h19.966a3.868,3.868,0,0,1,3.844,3.864v18.172a3.845,3.845,0,0,1-3.844,3.838,3.863,3.863,0,0,1-3.865-3.838l-.005-10.244a3.8,3.8,0,0,0-3.817-3.818Zm1.318,33.3A11.571,11.571,0,0,1,211.1-90.2h15.369a11.583,11.583,0,0,1,10.872,7.713Z" transform="translate(1449.57 4559.168)" stroke-linejoin="round" stroke-width="0.505"/>
  </g>
</symbol><symbol id="icon-pin" viewBox="0 0 24 35">
  <path id="Path_646" data-name="Path 646" d="M11.31,26.426q-1.3-1.705-2.232-3.085A76.451,76.451,0,0,1,2.42,12.26q-.812-1.7-1.258-2.922A19.791,19.791,0,0,1,.269,6.293,11.537,11.537,0,0,1,3.07-4.139a11.632,11.632,0,0,1,9.7-4.059,11.039,11.039,0,0,1,4.992,1.36,12.263,12.263,0,0,1,3.978,3.43,11.639,11.639,0,0,1,2.151,4.749,12.451,12.451,0,0,1-.366,6.373,48.754,48.754,0,0,1-5.8,11.69q-1.177,1.827-3.694,5.358l-1.7,2.395a.992.992,0,0,0-.122.142q-.04.061-.3-.183A4.8,4.8,0,0,1,11.31,26.426Zm6.7-22.406a5.747,5.747,0,0,0-.67-2.862,6.067,6.067,0,0,0-1.989-2.232,5.364,5.364,0,0,0-2.78-.954A6.317,6.317,0,0,0,9.422-1.4,5.6,5.6,0,0,0,7.129.651,6.17,6.17,0,0,0,6.2,3.736,5.233,5.233,0,0,0,6.865,6.6,6.36,6.36,0,0,0,8.915,8.83a5.185,5.185,0,0,0,2.8.913A6.114,6.114,0,0,0,14.8,9.114a5.632,5.632,0,0,0,2.273-2.05A6.1,6.1,0,0,0,18.007,4.02Z" transform="translate(0 8.211)"/>
</symbol><symbol id="icon-practicemanager" viewBox="0 0 92 128">
  <g transform="translate(-494.931 -5541.846)">
    <path d="M194.221,14.687,186.446.482V-9.253a42.037,42.037,0,0,0-41.99-41.99,42.037,42.037,0,0,0-41.99,41.99v7.211a43.116,43.116,0,0,0,7.8,24.833V43.46a2.5,2.5,0,1,0,5,0V21.991a2.476,2.476,0,0,0-.477-1.471,38.175,38.175,0,0,1-7.314-22.563V-9.253a37.023,37.023,0,0,1,36.981-36.984A37.028,37.028,0,0,1,181.442-9.253V1.123a2.475,2.475,0,0,0,.309,1.2l8.079,14.766a2.465,2.465,0,0,1-2.159,3.651h-.016l-3.7-.017h-.01a2.506,2.506,0,0,0-2.5,2.5V34.4a10.838,10.838,0,0,1-10.825,10.826H163.1a6.193,6.193,0,0,0-6.183,6.184V70.541L122.89,55.248a2.5,2.5,0,1,0-2.054,4.566l37.557,16.88a2.507,2.507,0,0,0,3.531-2.283v-23a1.176,1.176,0,0,1,1.174-1.178h7.519A15.848,15.848,0,0,0,186.446,34.4V25.742l1.189.006h.037a7.47,7.47,0,0,0,6.549-11.061Z" transform="translate(392.465 5593.09)"/>
    <path d="M160.253-27.638l-1.677-.2c-.11-.273-.22-.544-.341-.813l1.048-1.329a6.006,6.006,0,0,0-.115-7.953l-4.385-4.387a6,6,0,0,0-7.954-.117L145.5-41.387c-.267-.117-.54-.229-.812-.337l-.2-1.68a6,6,0,0,0-5.706-5.541h-6.2a6.009,6.009,0,0,0-5.711,5.541l-.194,1.68c-.272.107-.545.22-.812.336l-1.331-1.047a6,6,0,0,0-7.954.117l-4.385,4.388a6.005,6.005,0,0,0-.12,7.953l1.048,1.329c-.115.269-.225.54-.335.813l-1.682.2a6,6,0,0,0-5.538,5.707v6.2A6,6,0,0,0,111.1-10.02l1.682.2c.11.272.22.544.335.813l-1.048,1.329a6,6,0,0,0,.12,7.953l4.385,4.387a6,6,0,0,0,7.954.117l1.326-1.047c.272.117.54.229.817.337l.194,1.68a6.009,6.009,0,0,0,5.711,5.541h6.2a6,6,0,0,0,5.706-5.541l.2-1.68c.272-.108.545-.22.812-.337l1.331,1.047a6,6,0,0,0,7.954-.117L159.169.274a6,6,0,0,0,.115-7.954l-1.048-1.329c.121-.269.231-.54.341-.813l1.677-.2a6.006,6.006,0,0,0,5.543-5.707v-6.2A6,6,0,0,0,160.253-27.638Zm.534,11.911c0,.252-.424.653-1.121.736l-3.222.381a2.5,2.5,0,0,0-2.091,1.727,19.451,19.451,0,0,1-1.268,3.053,2.508,2.508,0,0,0,.257,2.7l2.012,2.549c.435.55.451,1.136.272,1.314l-4.385,4.387c-.178.178-.765.159-1.315-.274L147.38-1.162a2.508,2.508,0,0,0-2.7-.257,19.282,19.282,0,0,1-3.055,1.266A2.505,2.505,0,0,0,139.9,1.938l-.382,3.222c-.084.7-.482,1.123-.734,1.123h-6.2c-.252,0-.655-.427-.739-1.123l-.377-3.222a2.5,2.5,0,0,0-1.729-2.092,19.644,19.644,0,0,1-3.055-1.266,2.481,2.481,0,0,0-1.147-.28,2.5,2.5,0,0,0-1.551.538L121.428.848c-.55.433-1.132.452-1.31.274l-4.391-4.387c-.178-.178-.157-.764.278-1.314l2.007-2.549a2.5,2.5,0,0,0,.257-2.7,19.464,19.464,0,0,1-1.263-3.053,2.5,2.5,0,0,0-2.091-1.727l-3.222-.381c-.7-.083-1.127-.484-1.127-.736v-6.2c0-.252.43-.653,1.127-.736l3.222-.381a2.5,2.5,0,0,0,2.091-1.727,19.505,19.505,0,0,1,1.263-3.053,2.487,2.487,0,0,0-.257-2.7l-2.007-2.55c-.435-.55-.451-1.136-.272-1.314l4.386-4.387c.178-.178.765-.159,1.315.274l2.546,2.01a2.507,2.507,0,0,0,2.7.257,19.426,19.426,0,0,1,3.049-1.265,2.5,2.5,0,0,0,1.729-2.092l.377-3.222c.084-.7.487-1.123.739-1.123h6.2c.252,0,.65.428.734,1.123l.382,3.222a2.505,2.505,0,0,0,1.724,2.091,19.284,19.284,0,0,1,3.055,1.266,2.508,2.508,0,0,0,2.7-.257l2.546-2.01c.55-.434,1.137-.452,1.315-.274l4.385,4.387c.178.178.162.764-.272,1.314l-2.012,2.549a2.508,2.508,0,0,0-.257,2.7,19.451,19.451,0,0,1,1.268,3.053,2.5,2.5,0,0,0,2.091,1.726l3.222.381c.7.083,1.121.484,1.121.736Z" transform="translate(405.595 5602.836)"/>
    <path d="M121.558-45.614a12.677,12.677,0,0,0-12.664,12.663,12.677,12.677,0,0,0,12.664,12.663,12.681,12.681,0,0,0,12.664-12.663A12.68,12.68,0,0,0,121.558-45.614Zm0,20.32a7.668,7.668,0,0,1-7.66-7.657,7.668,7.668,0,0,1,7.66-7.657,7.663,7.663,0,0,1,7.655,7.657A7.663,7.663,0,0,1,121.558-25.294Z" transform="translate(419.717 5616.958)"/>
    <path d="M113.337-31.777a2.5,2.5,0,0,1,2.5,2.5,2.5,2.5,0,0,1-2.5,2.5,2.5,2.5,0,0,1-2.5-2.5A2.5,2.5,0,0,1,113.337-31.777Z" transform="translate(427.937 5675.621)" fill-rule="evenodd"/>
  </g>
</symbol><symbol id="icon-practicenurse" viewBox="0 0 119 130">
  <g transform="translate(-201.72 -4949.639)">
    <path d="M117.3,11.357c7.664-8.951,12.449-21.965,12.449-31.816A31.635,31.635,0,0,0,98.14-52.069a31.635,31.635,0,0,0-31.61,31.61c0,9.851,4.784,22.866,12.449,31.816C32.6,26.944,37.466,69.846,39.5,78.59H156.783C163.7,48.626,145.389,19.562,117.3,11.357ZM98.14-47.851a27.357,27.357,0,0,1,24.923,16.1c-10.519,7.176-21.194-.926-21.194-.926a22.212,22.212,0,0,0-23.869,1L71.623-27.2A27.423,27.423,0,0,1,98.14-47.851ZM70.748-20.459c0-.334.026-.669.052-1l9.619-6.764a17.985,17.985,0,0,1,19.316-.823s11.754,9,24.794,1.363a27.652,27.652,0,0,1,1,7.2c0,14.969-12.269,37.938-27.393,37.938S70.748-5.49,70.748-20.459Zm82.537,94.831H43.022A52.569,52.569,0,0,1,62.852,24.14a59.82,59.82,0,0,0,5.247,17,16.867,16.867,0,0,0-6.919,19.83l3.5,9.928,7.948-2.8L71.237,64.11,67.25,65.5l-2.109-5.967A12.649,12.649,0,1,1,89.01,51.147l2.083,5.967L87.106,58.5l1.389,3.987,7.948-2.8-3.5-9.954A16.847,16.847,0,0,0,71.88,39.29a55.238,55.238,0,0,1-5.17-17.927,53.245,53.245,0,0,1,15.612-6.636c4.6,4.192,9.954,6.867,15.792,6.867s11.188-2.675,15.792-6.867a52.374,52.374,0,0,1,17.927,8.2A54.729,54.729,0,0,1,125.661,38.8a8.176,8.176,0,0,0-2.263-.36,8.436,8.436,0,1,0,8.437,8.436,8.354,8.354,0,0,0-2.521-5.993,59.6,59.6,0,0,0,6.173-15.123A52.906,52.906,0,0,1,153.285,74.372ZM127.642,46.98a4.218,4.218,0,1,1-4.219-4.218A4.237,4.237,0,0,1,127.642,46.98Z" transform="translate(163.432 5001.708)"/>
  </g>
</symbol><symbol id="icon-psychologist" viewBox="0 0 115 125">
  <g transform="translate(-761.176 -4363.095)">
    <path d="M257.915-229.675A52.333,52.333,0,0,0,220.672-245.1a52.333,52.333,0,0,0-37.244,15.427A52.335,52.335,0,0,0,168-192.865l-9.58,19.171a1.831,1.831,0,0,0,.7,2.39L168-165.976v28.3a1.833,1.833,0,0,0,1.836,1.83h17.717v13.811a1.833,1.833,0,0,0,1.835,1.83,1.832,1.832,0,0,0,1.83-1.83V-137.68a1.833,1.833,0,0,0-1.83-1.835H171.667v-27.5a1.836,1.836,0,0,0-.889-1.574l-8.32-4.989,9.015-18.036a1.857,1.857,0,0,0,.194-.821,49.061,49.061,0,0,1,49-49,49.061,49.061,0,0,1,49,49A48.747,48.747,0,0,1,250.83-153.8a1.829,1.829,0,0,0-.706,1.443v30.32a1.833,1.833,0,0,0,1.835,1.83,1.832,1.832,0,0,0,1.83-1.83v-29.436a52.356,52.356,0,0,0,19.553-40.957A52.32,52.32,0,0,0,257.915-229.675Z" transform="translate(603.204 4608.377)" stroke-linejoin="round" stroke-width="0.361"/>
    <path d="M211.733-222.588l-7.316-7.316a1.834,1.834,0,0,0-2.594,0,1.827,1.827,0,0,0,0,2.588l6.019,6.019-3.138,3.143a7.662,7.662,0,0,0-1.265-1.673,7.77,7.77,0,0,0-8.707-1.532,7.784,7.784,0,0,0-2.181,1.532,7.778,7.778,0,0,0-1.537,8.712,7.746,7.746,0,0,0,1.537,2.175,7.7,7.7,0,0,0,1.668,1.271l-3.138,3.137-5.292-5.292a1.85,1.85,0,0,0-3.127,1.2,4.069,4.069,0,0,1-4.027,3.807,4,4,0,0,1-2.85-1.182,4.069,4.069,0,0,1,0-5.7,4.022,4.022,0,0,1,2.625-1.177,1.85,1.85,0,0,0,1.2-3.127l-5.292-5.292,16.765-16.76,4.246,4.246a1.834,1.834,0,0,0,2.594,0,1.834,1.834,0,0,0,0-2.594l-5.543-5.543a1.834,1.834,0,0,0-2.594,0l-19.359,19.359a1.837,1.837,0,0,0,0,2.589l4.44,4.44a7.657,7.657,0,0,0-1.673,1.265,7.77,7.77,0,0,0-1.532,8.707,7.752,7.752,0,0,0,1.532,2.181,7.65,7.65,0,0,0,5.444,2.254,7.641,7.641,0,0,0,5.444-2.254,7.825,7.825,0,0,0,1.271-1.668l4.435,4.434a1.853,1.853,0,0,0,2.594,0l6.584-6.589a1.848,1.848,0,0,0-1.192-3.127,4.029,4.029,0,0,1-2.63-1.171,4.071,4.071,0,0,1,.005-5.705,4.069,4.069,0,0,1,5.7,0,4.06,4.06,0,0,1,1.177,2.63,1.848,1.848,0,0,0,3.127,1.192L211.733-220A1.827,1.827,0,0,0,211.733-222.588Z" transform="translate(652.545 4619.447)" stroke-linejoin="round" stroke-width="0.361"/>
    <path d="M219.669-210.248H213.4a7.677,7.677,0,0,0,.282-2.076,7.709,7.709,0,0,0-7.7-7.7,7.709,7.709,0,0,0-7.7,7.7,7.68,7.68,0,0,0,.282,2.076h-4.44v-7.483a1.847,1.847,0,0,0-3.054-1.365,4.044,4.044,0,0,1-2.688,1.025,4.034,4.034,0,0,1-4.032-4.032,4.034,4.034,0,0,1,4.032-4.032,4.044,4.044,0,0,1,2.688,1.025,1.846,1.846,0,0,0,3.054-1.365v-9.313a1.835,1.835,0,0,0-1.836-1.836H164.922a1.835,1.835,0,0,0-1.835,1.836v54.746a1.835,1.835,0,0,0,1.835,1.836h54.747a1.835,1.835,0,0,0,1.835-1.836v-27.376A1.833,1.833,0,0,0,219.669-210.248Zm-52.916-23.71h23.71v4.44a7.682,7.682,0,0,0-2.076-.282,7.709,7.709,0,0,0-7.7,7.7,7.709,7.709,0,0,0,7.7,7.7,7.677,7.677,0,0,0,2.076-.282v4.44H182.98a1.849,1.849,0,0,0-1.365,3.054,4.018,4.018,0,0,1,1.025,2.688,4.034,4.034,0,0,1-4.032,4.032,4.034,4.034,0,0,1-4.032-4.032,4.024,4.024,0,0,1,1.03-2.688,1.849,1.849,0,0,0-1.37-3.054h-7.483Zm24.793,41.929a1.826,1.826,0,0,0-1.083,1.673v7.483h-23.71v-23.71h4.44a7.892,7.892,0,0,0-.282,2.076,7.709,7.709,0,0,0,7.7,7.7,7.709,7.709,0,0,0,7.7-7.7,7.68,7.68,0,0,0-.282-2.076h4.44v7.483a1.849,1.849,0,0,0,3.054,1.365,4.028,4.028,0,0,1,2.688-1.025,4.038,4.038,0,0,1,4.037,4.032A4.038,4.038,0,0,1,196.2-190.7a4.034,4.034,0,0,1-2.688-1.03A1.828,1.828,0,0,0,191.545-192.029Zm26.293,9.157h-23.71v-4.445a7.686,7.686,0,0,0,2.076.288,7.709,7.709,0,0,0,7.7-7.7,7.713,7.713,0,0,0-7.7-7.7,7.682,7.682,0,0,0-2.076.288v-4.44h7.483a1.847,1.847,0,0,0,1.365-3.054,4.028,4.028,0,0,1-1.025-2.688,4.038,4.038,0,0,1,4.032-4.037,4.038,4.038,0,0,1,4.032,4.037,4.054,4.054,0,0,1-1.025,2.688,1.846,1.846,0,0,0,1.365,3.054h7.483Z" transform="translate(623.76 4640.005)" stroke-linejoin="round" stroke-width="0.361"/>
  </g>
</symbol><symbol id="icon-reception" viewBox="0 0 138 118">
  <g transform="translate(-755.434 -5540.795)">
    <path d="M160.7-24.167A24.428,24.428,0,0,0,185.1.234a24.428,24.428,0,0,0,24.4-24.4,24.428,24.428,0,0,0-24.4-24.4A24.428,24.428,0,0,0,160.7-24.167ZM185.1-6.682a17.5,17.5,0,0,1-17.484-17.486,17.354,17.354,0,0,1,2.552-9.05c3.924,3.989,9.337,5.574,14.791,6.734,6.853,1.457,14.168,2.18,15.661,10.254.005.021.01.038.016.058A17.5,17.5,0,0,1,185.1-6.682Zm17.217-20.453C195-33.15,182.044-31,174.86-38.312A17.385,17.385,0,0,1,185.1-41.654,17.5,17.5,0,0,1,202.321-27.135Z" transform="translate(614.251 5604.431)" stroke-linejoin="round" stroke-width="0.402"/>
    <path d="M196.138-51.4A14.226,14.226,0,0,0,181.929-37.2v1.491L170.475-19.372,181.929-20.7V.562a14.225,14.225,0,0,0,14.21,14.206h27.943A14.221,14.221,0,0,0,238.285.562V-37.2a14.222,14.222,0,0,0-14.2-14.207H196.138Zm35.231,14.2V.559a7.3,7.3,0,0,1-7.293,7.291H196.138A7.3,7.3,0,0,1,188.845.559v-29.02l-3.862.447,3.862-5.512V-37.2a7.3,7.3,0,0,1,7.293-7.291h27.943A7.3,7.3,0,0,1,231.369-37.2Z" transform="translate(655.679 5592.402)" stroke-linejoin="round" stroke-width="0.402"/>
    <path d="M160.474,13.582H288.356a3.458,3.458,0,1,0,0-6.916h-48.8a10.3,10.3,0,0,0,1.174-4.745l-4.3-29.4c-.173-6.3-6.125-11.384-13.424-11.384H207.6l-6.591,6.807-.094-.254-.194.549-.058.063-7.393-7.165H178.461c-7.293,0-13.251,5.081-13.424,11.384l-4.265,28.9-.037.5a10.291,10.291,0,0,0,1.174,4.745h-1.436a3.458,3.458,0,1,0,0,6.916Zm7.189-11.454L171.912-26.7l.037-.5c0-2.573,2.981-4.747,6.513-4.747h12l7.676,7.446,5.444-.277,6.942-7.167h12.481c3.526,0,6.513,2.174,6.513,4.745l4.291,29.336c-.157,2.48-3.076,4.538-6.508,4.538H174.165C170.733,6.666,167.815,4.612,167.663,2.128Z" transform="translate(598.619 5645.567)" stroke-linejoin="round" stroke-width="0.402"/>
    <path d="M184.371-34.618v20.351a4.544,4.544,0,0,1-1.006,3.2,3.341,3.341,0,0,1-2.557,1.084,3.179,3.179,0,0,1-2.515-1.109,4.684,4.684,0,0,1-.964-3.173V-34.411a4.523,4.523,0,0,1,.964-3.147,3.25,3.25,0,0,1,2.515-1.057,3.38,3.38,0,0,1,2.557,1.057A4.1,4.1,0,0,1,184.371-34.618Zm-3.484-7.274a3.717,3.717,0,0,1-2.515-.9,3.191,3.191,0,0,1-1.043-2.554,3.176,3.176,0,0,1,1.069-2.463,3.6,3.6,0,0,1,2.489-.967,3.7,3.7,0,0,1,2.426.877,3.137,3.137,0,0,1,1.058,2.553,3.225,3.225,0,0,1-1.032,2.541A3.573,3.573,0,0,1,180.887-41.891Z" transform="translate(684.737 5603.542)" stroke-linejoin="round" stroke-width="0.402"/>
  </g>
</symbol><symbol id="icon-right" viewBox="0 0 234 473">
    <!-- Generator: Sketch 51.3 (57544) - http://www.bohemiancoding.com/sketch -->
    <title>Shape</title>
    <desc>Created with Sketch.</desc>
    
    <g id="Page-1" stroke-width="1" fill-rule="evenodd">
        <g id="left" transform="translate(7.000000, 6.000000)" fill-rule="nonzero">
            <g id="right">
                <path d="M5.40435342,464.883686 C2.78393578,467.502815 -1.46355638,467.501771 -4.08268585,464.881353 C-6.70181532,462.260936 -6.70077105,458.013444 -4.08035342,455.394314 L207.478647,243.939314 C215.571994,236.244872 215.571994,224.709869 207.599499,217.132477 L-4.08036463,5.55867464 C-6.70077608,2.93953897 -6.7018103,-1.30795319 -4.08267464,-3.92836463 C-1.46353897,-6.54877608 2.78395319,-6.5498103 5.40436463,-3.93067464 L216.906811,207.468799 C230.358529,220.31836 230.358569,240.636736 216.906695,253.485316 L5.40435342,464.883686 Z" id="Shape"/>
            </g>
        </g>
    </g>
</symbol><symbol id="icon-speechpath" viewBox="0 0 124 124">
  <g transform="translate(-1033.595 -4360.907)">
    <path d="M84.093-109.316l-7.246-3.624a31.4,31.4,0,0,0,9.415-4.241,3.728,3.728,0,0,0,1.331-4.508,49.282,49.282,0,0,1-3.16-17.262,19.606,19.606,0,0,0-17.5-19.427,20.2,20.2,0,0,0-3.644,0,19.607,19.607,0,0,0-17.5,19.427,49.3,49.3,0,0,1-3.159,17.262,3.728,3.728,0,0,0,1.332,4.508,31.385,31.385,0,0,0,9.415,4.241l-7.246,3.624a7.608,7.608,0,0,0-4.231,6.845v11.949a1.82,1.82,0,0,0,1.819,1.82,1.82,1.82,0,0,0,1.82-1.82v-11.949a3.994,3.994,0,0,1,2.219-3.593l5.743-2.871a13.55,13.55,0,0,0,11.61,6.62,13.458,13.458,0,0,0,11.61-6.62l5.743,2.871a3.993,3.993,0,0,1,2.219,3.593v11.949A1.82,1.82,0,0,0,86.5-88.7a1.82,1.82,0,0,0,1.819-1.82v-11.949A7.607,7.607,0,0,0,84.093-109.316Zm-18.98,3.363a9.884,9.884,0,0,1-8.34-4.618l1.17-.586a5.675,5.675,0,0,0,3.155-5.1V-118.4a15.413,15.413,0,0,0,4.015.533,15.346,15.346,0,0,0,4.014-.533v2.144a5.675,5.675,0,0,0,3.156,5.1l1.175.591A9.83,9.83,0,0,1,65.113-105.954Zm7.729-9.753a2.061,2.061,0,0,1-.076-.554v-3.65a15.468,15.468,0,0,0,5.772-5.778,11.275,11.275,0,0,0-2.193-13.785c-2.68-2.453-7.479-5.376-15.122-5.376a1.828,1.828,0,0,0-1.287.533l-3.889,3.891a1.819,1.819,0,0,0,0,2.573,1.819,1.819,0,0,0,2.573,0l3.346-3.347a17.845,17.845,0,0,1,11.923,4.408,7.612,7.612,0,0,1,1.485,9.3,11.828,11.828,0,0,1-10.262,5.977A11.808,11.808,0,0,1,53.319-133.3a1.82,1.82,0,0,0-1.819-1.82,1.82,1.82,0,0,0-1.819,1.82,15.442,15.442,0,0,0,7.778,13.392v3.65a2.091,2.091,0,0,1-.076.554,30.589,30.589,0,0,1-11.332-4.45.121.121,0,0,1-.059-.141,53.177,53.177,0,0,0,3.437-18.638,15.937,15.937,0,0,1,14.195-15.819,16.662,16.662,0,0,1,2.978,0A15.937,15.937,0,0,1,80.8-138.935,53.177,53.177,0,0,0,84.233-120.3a.121.121,0,0,1-.059.141A30.6,30.6,0,0,1,72.842-115.706Z" transform="translate(991.693 4573.818)"/>
    <path d="M45.208-147.3a1.817,1.817,0,0,0-1.819,1.82v7.776a1.82,1.82,0,0,0,1.819,1.82,1.82,1.82,0,0,0,1.82-1.82v-7.776A1.817,1.817,0,0,0,45.208-147.3Z" transform="translate(997.984 4621.004)"/>
    <path d="M50.415-147.3a1.817,1.817,0,0,0-1.82,1.82v7.776a1.82,1.82,0,0,0,1.82,1.82,1.82,1.82,0,0,0,1.819-1.82v-7.776A1.817,1.817,0,0,0,50.415-147.3Z" transform="translate(1020.004 4621.004)"/>
    <path d="M77.394-153.165c-.264-.178-6.58-4.283-16.923-2.217a1.824,1.824,0,0,0-1.463,1.783v1.945a1.82,1.82,0,0,0,1.819,1.82,1.821,1.821,0,0,0,1.82-1.82v-.408a22.588,22.588,0,0,1,8.961.418,14.1,14.1,0,0,1,3.775,1.511,1.8,1.8,0,0,0,1,.3,1.811,1.811,0,0,0,1.515-.811A1.816,1.816,0,0,0,77.394-153.165Z" transform="translate(1064.043 4584.386)"/>
    <path d="M101.379-112.719l-9.248-3.467a2.085,2.085,0,0,1-1.343-1.94v-4.665c.4-.314.779-.654,1.148-1.009a15.312,15.312,0,0,0,4.686-11.076v-3.462l.52-1.041a13.548,13.548,0,0,0,1.424-6.035v-10.856a1.82,1.82,0,0,0-1.819-1.82H76.483a12.686,12.686,0,0,0-12.671,12.676,13.555,13.555,0,0,0,1.424,6.035l.521,1.041v2.892a16.255,16.255,0,0,0,5.834,12.477v4.842a2.085,2.085,0,0,1-1.343,1.94L61-112.719a7.69,7.69,0,0,0-4.966,7.164v13.461a1.82,1.82,0,0,0,1.819,1.82,1.82,1.82,0,0,0,1.82-1.82v-13.461a4.024,4.024,0,0,1,2.6-3.755l9.248-3.472a5.683,5.683,0,0,0,1.379-.753l6.465,4.848v16.593a1.82,1.82,0,0,0,1.82,1.82,1.82,1.82,0,0,0,1.819-1.82v-16.593l6.465-4.848a5.684,5.684,0,0,0,1.379.753l9.249,3.472a4.025,4.025,0,0,1,2.6,3.755v13.461a1.82,1.82,0,0,0,1.819,1.82,1.82,1.82,0,0,0,1.819-1.82v-13.461A7.688,7.688,0,0,0,101.379-112.719Zm-20.19.847-6.2-4.644a5.677,5.677,0,0,0,.237-1.611V-120.7a14.791,14.791,0,0,0,5.486,1.255c.16,0,.32.005.479.005a15.389,15.389,0,0,0,5.954-1.192v2.51a5.677,5.677,0,0,0,.237,1.611ZM89.4-126.414a11.705,11.705,0,0,1-8.577,3.326c-6.3-.188-11.429-5.731-11.429-12.357v-3.321a1.837,1.837,0,0,0-.192-.816L68.49-141a9.92,9.92,0,0,1-1.039-4.414,9.042,9.042,0,0,1,9.032-9.031H94.927v9.036A9.908,9.908,0,0,1,93.888-141l-.713,1.422a1.837,1.837,0,0,0-.192.816v3.891A11.689,11.689,0,0,1,89.4-126.414Z" transform="translate(1051.46 4575.39)"/>
    <path d="M59.712-147.676a1.82,1.82,0,0,0-1.819,1.82v9.721a1.82,1.82,0,0,0,1.819,1.82,1.82,1.82,0,0,0,1.82-1.82v-9.721A1.82,1.82,0,0,0,59.712-147.676Z" transform="translate(1059.324 4619.431)"/>
    <path d="M64.919-147.676a1.82,1.82,0,0,0-1.82,1.82v9.721a1.82,1.82,0,0,0,1.82,1.82,1.82,1.82,0,0,0,1.819-1.82v-9.721A1.82,1.82,0,0,0,64.919-147.676Z" transform="translate(1081.344 4619.431)"/>
    <path d="M115.5-161.1h-.125v-.126a7.66,7.66,0,0,0-7.654-7.651H53.274a7.66,7.66,0,0,0-7.654,7.651v31.115a7.664,7.664,0,0,0,7.654,7.656h7.9v.126a7.66,7.66,0,0,0,7.654,7.651h1.559l-.73,2.923a2.765,2.765,0,0,0,1.147,2.991,2.78,2.78,0,0,0,1.563.486,2.779,2.779,0,0,0,1.641-.544l8.053-5.857h1.775l15.176,10.119a2.783,2.783,0,0,0,1.549.471,2.8,2.8,0,0,0,1.515-.45,2.789,2.789,0,0,0,1.238-2.8l-1.223-7.337H115.5a7.66,7.66,0,0,0,7.654-7.651v-31.115A7.664,7.664,0,0,0,115.5-161.1ZM71.3-118.31H68.832a4.022,4.022,0,0,1-4.015-4.016v-.126h7.518Zm2.456,5.177,2.675-10.7a1.812,1.812,0,0,0-.331-1.558,1.811,1.811,0,0,0-1.434-.7H53.274a4.018,4.018,0,0,1-4.015-4.016v-31.115a4.017,4.017,0,0,1,4.015-4.011h54.452a4.017,4.017,0,0,1,4.015,4.011v31.115a4.018,4.018,0,0,1-4.015,4.016H92.168a1.8,1.8,0,0,0-1.07.35Zm45.763-9.193a4.017,4.017,0,0,1-4.015,4.011H99.947a1.82,1.82,0,0,0-1.388.643,1.835,1.835,0,0,0-.406,1.48l1.254,7.525L86.05-117.573l6.71-4.879h14.966a7.664,7.664,0,0,0,7.654-7.656v-27.35h.125a4.018,4.018,0,0,1,4.015,4.016Z" transform="translate(1007.421 4529.78)"/>
    <path d="M55.876-166.642H50.043a1.82,1.82,0,0,0-1.819,1.82A1.82,1.82,0,0,0,50.043-163h5.833a1.82,1.82,0,0,0,1.819-1.82A1.82,1.82,0,0,0,55.876-166.642Z" transform="translate(1018.431 4539.216)"/>
    <path d="M77.927-166.642H52.646a1.82,1.82,0,0,0-1.819,1.82A1.82,1.82,0,0,0,52.646-163H77.927a1.82,1.82,0,0,0,1.819-1.82A1.82,1.82,0,0,0,77.927-166.642Z" transform="translate(1029.441 4539.216)"/>
    <path d="M88.937-164.783H50.043a1.82,1.82,0,0,0-1.819,1.82,1.82,1.82,0,0,0,1.819,1.82H88.937a1.82,1.82,0,0,0,1.819-1.82A1.82,1.82,0,0,0,88.937-164.783Z" transform="translate(1018.431 4547.079)"/>
    <path d="M75.324-162.923H50.043a1.82,1.82,0,0,0-1.819,1.82,1.82,1.82,0,0,0,1.819,1.82H75.324a1.82,1.82,0,0,0,1.819-1.82A1.82,1.82,0,0,0,75.324-162.923Z" transform="translate(1018.431 4554.945)"/>
    <path d="M62.2-162.923H56.365a1.82,1.82,0,0,0-1.819,1.82,1.82,1.82,0,0,0,1.819,1.82H62.2a1.82,1.82,0,0,0,1.819-1.82A1.82,1.82,0,0,0,62.2-162.923Z" transform="translate(1045.17 4554.945)"/>
  </g>
</symbol><symbol id="icon-team" viewBox="0 0 109 137">
<g transform="translate(-897.665 -3132.095)">
	<path style="fill:#FFFFFF;stroke:#FFFFFF;stroke-width:0.505;stroke-linejoin:round;" d="M918.2,3229.3c-1.2,5.2-6.3,8.4-11.5,7.3
		c0,0,0,0,0,0c-5.2-1.2-8.4-6.3-7.3-11.5c0,0,0,0,0,0c1.2-5.2,6.3-8.4,11.5-7.3C916,3219,919.3,3224.1,918.2,3229.3"/>
	<path style="fill:#FFFFFF;stroke:#FFFFFF;stroke-width:0.505;stroke-linejoin:round;" d="M912,3229c-0.4,1.7-2,2.7-3.7,2.4
		c-1.7-0.4-2.7-2-2.4-3.7c0.4-1.7,2-2.7,3.7-2.4c0,0,0,0,0,0C911.3,3225.7,912.4,3227.3,912,3229"/>
	<path style="fill:#FFFFFF;stroke:#FFFFFF;stroke-width:0.505;stroke-linejoin:round;" d="M951,3137.1c0,1.7-1.4,3.1-3.1,3.1
		c0,0,0,0,0,0c-1.7,0-3.1-1.4-3.1-3.1c0,0,0,0,0,0c0-1.7,1.4-3.1,3.1-3.1l0,0C949.6,3134,951,3135.4,951,3137.1
		C951,3137.1,951,3137.1,951,3137.1"/>
	<path style="fill:#FFFFFF;stroke:#FFFFFF;stroke-width:0.505;stroke-linejoin:round;" d="M989.7,3137.1c0,1.7-1.4,3.1-3.1,3.1
		c0,0,0,0,0,0c-1.7,0-3.1-1.4-3.1-3.1c0,0,0,0,0,0c0-1.7,1.4-3.1,3.1-3.1c0,0,0,0,0,0C988.3,3134,989.7,3135.3,989.7,3137.1
		L989.7,3137.1"/>
	<path style="fill:#FFFFFF;stroke:#FFFFFF;stroke-width:0.505;stroke-linejoin:round;" d="M989.5,3138.2c4.5,1.5,8.1,3.7,10.6,7
		c2.5,3.3,4,7.7,4,13.6c0,9.8-4,22-10.6,31.5c-3,4.6-6.9,8.6-11.4,11.8c-4,2.9-8.7,4.5-13.6,4.6c-4.9-0.1-9.7-1.7-13.6-4.6
		c-6.4-4.4-11.9-11.5-15.8-19.4s-6.2-16.6-6.2-23.9c0-5.4,1.2-9.4,3.2-12.6c2.1-3.2,5.2-5.6,8.7-7c0.6-0.3,0.9-0.9,0.6-1.5
		c0,0,0,0,0,0c-0.3-0.6-0.9-0.9-1.5-0.6c-4,1.6-7.3,4.4-9.7,7.9c-2.3,3.6-3.6,8.2-3.6,13.9c0,10.5,4.2,22.9,11,32.8
		c3.2,4.8,7.3,9.1,12,12.4c4.4,3.2,9.6,4.9,15,5c5.4-0.1,10.6-1.9,15-5c6.8-4.7,12.5-12.1,16.5-20.3c4-8.2,6.4-17.1,6.4-25
		c0-6.4-1.6-11.3-4.4-15.1c-2.9-3.7-7-6.2-11.8-7.8c-0.6-0.2-1.3,0.1-1.5,0.7c0,0,0,0,0,0C988.5,3137.3,988.9,3138,989.5,3138.2z"/>
	<path style="fill:#FFFFFF;stroke:#FFFFFF;stroke-width:0.505;stroke-linejoin:round;" d="M993.7,3190.2c-2.6,2.6-7.1,4.6-11.9,5.9
		c-4.3,1.2-8.8,1.8-13.3,1.9c-4.5-0.1-8.9-0.8-13.2-2c-4.8-1.3-9.4-3.3-11.9-5.8c-0.5-0.4-1.2-0.4-1.7,0c0,0,0,0,0,0
		c-0.4,0.5-0.4,1.2,0,1.7c0,0,0,0,0,0c3.1,2.9,7.9,4.9,12.9,6.3c4.5,1.3,9.1,1.9,13.8,2.1c4.7-0.1,9.3-0.7,13.9-1.9
		c5-1.3,9.8-3.4,12.9-6.5c0.5-0.5,0.5-1.2,0-1.7C994.9,3189.7,994.1,3189.7,993.7,3190.2z"/>
	<path style="fill:#FFFFFF;stroke:#FFFFFF;stroke-width:0.505;stroke-linejoin:round;" d="M918.1,3229.2l-1.1-0.3
		c-0.9,3.9-4.3,6.6-8.2,6.6c-0.6,0-1.2-0.1-1.9-0.2c-3.9-0.9-6.6-4.3-6.6-8.2c0-0.6,0.1-1.2,0.2-1.8c0.9-3.9,4.3-6.6,8.2-6.6
		c0.6,0,1.2,0.1,1.9,0.2c3.9,0.9,6.6,4.3,6.6,8.2c0,0.6-0.1,1.2-0.2,1.9L918.1,3229.2l1.1,0.2c0.2-0.8,0.3-1.6,0.3-2.4
		c0-5-3.5-9.4-8.4-10.5c-0.8-0.2-1.6-0.3-2.4-0.3c-5,0-9.4,3.5-10.5,8.4c-0.2,0.8-0.3,1.6-0.3,2.4c0,5,3.5,9.4,8.4,10.5
		c0.8,0.2,1.6,0.3,2.4,0.3c5,0,9.4-3.5,10.5-8.4L918.1,3229.2z"/>
	<path style="fill:#FFFFFF;stroke:#FFFFFF;stroke-width:0.505;stroke-linejoin:round;" d="M911.7,3227.8c-0.4,1.7-2,2.7-3.7,2.4
		c0,0,0,0,0,0c-1.7-0.4-2.7-2-2.4-3.7c0,0,0,0,0,0c0.4-1.7,2-2.7,3.7-2.4c0,0,0,0,0,0C911.1,3224.4,912.1,3226.1,911.7,3227.8
		C911.7,3227.8,911.7,3227.8,911.7,3227.8"/>
	<path style="fill:#FFFFFF;stroke:#FFFFFF;stroke-width:0.505;stroke-linejoin:round;" d="M911.7,3227.8l-1.1-0.3
		c-0.2,0.9-1,1.5-1.9,1.5l-0.4,0c-0.9-0.2-1.5-1-1.5-1.9l0-0.4l0,0c0.2-0.9,1-1.5,1.9-1.5l0.4,0c0.9,0.2,1.5,1,1.5,1.9l0,0.4v0
		L911.7,3227.8l1.1,0.2c0.1-0.3,0.1-0.6,0.1-0.9c0-2-1.4-3.7-3.3-4.2c-0.3-0.1-0.6-0.1-0.9-0.1c-2,0-3.7,1.4-4.2,3.3l1.1,0.3
		l-1.1-0.3c-0.1,0.3-0.1,0.6-0.1,1c0,2,1.4,3.7,3.3,4.2c0.3,0.1,0.6,0.1,0.9,0.1c2,0,3.7-1.4,4.2-3.3v0L911.7,3227.8z"/>
	<path style="fill:#FFFFFF;stroke:#FFFFFF;stroke-width:0.505;stroke-linejoin:round;" d="M950.9,3136.6h-1.2c0,1.1-0.9,1.9-1.9,1.9
		c-1.1,0-1.9-0.9-1.9-1.9c0-1.1,0.9-1.9,1.9-1.9c1.1,0,1.9,0.9,1.9,1.9h2.3c0-2.4-1.9-4.3-4.3-4.3c0,0,0,0,0,0
		c-2.4,0-4.3,1.9-4.3,4.3c0,2.4,1.9,4.3,4.3,4.3c2.4,0,4.3-1.9,4.3-4.3L950.9,3136.6z"/>
	<path style="fill:#FFFFFF;stroke:#FFFFFF;stroke-width:0.505;stroke-linejoin:round;" d="M989.7,3136.6h-1.2c0,1.1-0.9,1.9-1.9,1.9
		c-1.1,0-1.9-0.9-1.9-1.9c0-1.1,0.9-1.9,1.9-1.9c1.1,0,1.9,0.9,1.9,1.9h2.3c0-2.4-1.9-4.3-4.3-4.3c-2.4,0-4.3,1.9-4.3,4.3
		c0,0,0,0,0,0c0,2.4,1.9,4.3,4.3,4.3c2.4,0,4.3-1.9,4.3-4.3H989.7z"/>
	<path style="fill:#FFFFFF;stroke:#FFFFFF;stroke-width:0.505;stroke-linejoin:round;" d="M908.4,3230.8
		c2.2,11.3,6.5,20.7,12.1,27.3c5.6,6.7,12.5,10.5,20,10.5c0.4,0,0.7,0,1.1,0c4.6-0.1,9-1.6,12.8-4.3c5.4-3.8,9.2-10.1,11.7-18.3
		c2.5-8.2,3.7-18.5,3.7-30.4v-0.1h-0.2l0.2,0v0h-0.2l0.2,0v-0.1l0-7.5c0-0.6-0.5-1.2-1.2-1.2c0,0,0,0,0,0c-0.6,0-1.2,0.5-1.2,1.2
		l0,7.5l1.2,0l-1.2-0.1v0.2c0,15.7-2.1,28.3-6.4,36.9c-1.8,3.9-4.6,7.3-8,9.9c-3.4,2.4-7.4,3.7-11.5,3.8c-0.3,0-0.6,0-1,0
		c-6.6,0-13-3.4-18.2-9.7c-5.3-6.3-9.4-15.3-11.6-26.3c-0.1-0.6-0.7-1-1.4-0.9C908.7,3229.5,908.3,3230.2,908.4,3230.8L908.4,3230.8
		z"/>
</g>
</symbol><symbol id="icon-train" viewBox="0 0 32 33">
  <path id="Path_641" data-name="Path 641" d="M9.748-62.7v13.544c0,.146-.015.15-.046,0a4.114,4.114,0,0,0-.415-1.144,4.111,4.111,0,0,0-.879-1.117,4.12,4.12,0,0,0-1.229-.753,3.939,3.939,0,0,0-1.467-.276,4.01,4.01,0,0,0-2.73,1.006,3.85,3.85,0,0,0-1.3,2.281c-.027.146-.038.146-.038,0V-60.127a1.021,1.021,0,0,0-.15-.492L.041-62.738c-.085-.119-.035-.223.119-.223H9.48A.263.263,0,0,1,9.748-62.7ZM3.209-55.05H8.182a.27.27,0,0,0,.269-.269v-5.937a.269.269,0,0,0-.269-.269H3.209a.27.27,0,0,0-.269.269v5.941A.266.266,0,0,0,3.209-55.05Zm24.872,3.706,3.936,5.53a.394.394,0,0,1,0,.438l-.119.154a.606.606,0,0,1-.43.215H27.947a.27.27,0,0,1-.269-.269v-2.834a.269.269,0,0,0-.269-.269H26.322a.27.27,0,0,1-.269-.269V-58.664a.269.269,0,0,1,.269-.269h1.329a.269.269,0,0,1,.269.269v6.828A1.063,1.063,0,0,0,28.081-51.345ZM3.255-50.93a3.714,3.714,0,0,1,1.1-.734,3.307,3.307,0,0,1,1.356-.276,3.365,3.365,0,0,1,1.34.276,3.479,3.479,0,0,1,1.1.734,3.454,3.454,0,0,1,.733,1.1,3.333,3.333,0,0,1,.276,1.34,3.287,3.287,0,0,1-.276,1.356,3.787,3.787,0,0,1-.733,1.1,3.264,3.264,0,0,1-1.1.749A3.34,3.34,0,0,1,5.709-45a3.294,3.294,0,0,1-1.356-.276,3.623,3.623,0,0,1-1.1-.749,3.574,3.574,0,0,1-.752-1.1,3.3,3.3,0,0,1-.277-1.356,3.36,3.36,0,0,1,.277-1.34A3.378,3.378,0,0,1,3.255-50.93ZM10.6-57.639h.9a.269.269,0,0,0,.269-.269v-1.079a.27.27,0,0,1,.269-.269H15.1a.269.269,0,0,1,.269.269v1.079a.269.269,0,0,0,.269.269h.922a.269.269,0,0,0,.269-.269v-1.079a.27.27,0,0,1,.269-.269h3.068a.27.27,0,0,1,.269.269v1.079a.269.269,0,0,0,.269.269h.514a.269.269,0,0,0,.269-.269v-2.074a.269.269,0,0,1,.269-.269h3.41a.269.269,0,0,1,.269.269v7.519a.269.269,0,0,1-.269.269H10.6a.269.269,0,0,1-.269-.269v-4.9A.263.263,0,0,1,10.6-57.639Zm14.7,9.262a.357.357,0,0,1-.227-.131,1.561,1.561,0,0,0-.111-.119,1.626,1.626,0,0,0-1.187-.5,1.668,1.668,0,0,0-1.221.5l-.111.119a.541.541,0,0,1-.369.131h-.611a.557.557,0,0,1-.369-.131,1.561,1.561,0,0,0-.111-.119,1.666,1.666,0,0,0-1.221-.5,1.667,1.667,0,0,0-1.221.5l-.111.119a.537.537,0,0,1-.365.131h-.61a.537.537,0,0,1-.365-.131c-.035-.038-.069-.08-.111-.119a1.666,1.666,0,0,0-1.221-.5,1.632,1.632,0,0,0-1.186.5l-.111.119a.541.541,0,0,1-.369.131h-.4a.537.537,0,0,1-.365-.131,1.568,1.568,0,0,0-.111-.119,1.665,1.665,0,0,0-1.221-.5,1.633,1.633,0,0,0-1.186.5l-.111.119a.348.348,0,0,1-.227.131c-.069,0-.127-.119-.127-.269v-2.8a.269.269,0,0,1,.269-.269h14.55a.269.269,0,0,1,.269.269v2.8C25.432-48.5,25.37-48.377,25.3-48.377Zm-14.512.461a1.619,1.619,0,0,1,1.187-.5,1.667,1.667,0,0,1,1.221.5,1.759,1.759,0,0,1,.207.249,1.685,1.685,0,0,1,.288.975,1.646,1.646,0,0,1-.5,1.187,1.649,1.649,0,0,1-1.221.5,1.619,1.619,0,0,1-1.187-.5,1.616,1.616,0,0,1-.5-1.187,1.688,1.688,0,0,1,.288-.975A1.413,1.413,0,0,1,10.789-47.916Zm3.771,0a1.619,1.619,0,0,1,1.187-.5,1.668,1.668,0,0,1,1.221.5,1.781,1.781,0,0,1,.207.249,1.685,1.685,0,0,1,.288.975,1.647,1.647,0,0,1-.5,1.187,1.65,1.65,0,0,1-1.221.5,1.619,1.619,0,0,1-1.187-.5,1.616,1.616,0,0,1-.5-1.187,1.688,1.688,0,0,1,.288-.975A1.429,1.429,0,0,1,14.56-47.916Zm8,0a1.66,1.66,0,0,1,1.221-.5,1.64,1.64,0,0,1,1.187.5,1.781,1.781,0,0,1,.207.249,1.685,1.685,0,0,1,.288.975,1.632,1.632,0,0,1-.5,1.187,1.61,1.61,0,0,1-1.187.5,1.654,1.654,0,0,1-1.221-.5,1.616,1.616,0,0,1-.5-1.187,1.688,1.688,0,0,1,.288-.975A1.614,1.614,0,0,1,22.555-47.916Zm-4.017,0a1.666,1.666,0,0,1,1.221-.5,1.667,1.667,0,0,1,1.221.5,1.759,1.759,0,0,1,.207.249,1.688,1.688,0,0,1,.288.975,1.631,1.631,0,0,1-.5,1.187,1.65,1.65,0,0,1-1.221.5,1.654,1.654,0,0,1-1.221-.5,1.616,1.616,0,0,1-.5-1.187,1.661,1.661,0,0,1,.288-.975A1.429,1.429,0,0,1,18.538-47.916Zm6.893-17.457v4.228a.27.27,0,0,1-.269.269H21.776a.27.27,0,0,1-.269-.269v-4.228a.269.269,0,0,1,.269-.269h3.383A.268.268,0,0,1,25.432-65.373Zm-.273-.856H21.772a.5.5,0,0,1-.4-.238L20.385-68.3c-.069-.131-.007-.238.142-.238h1.7a.175.175,0,0,0,.173-.253,3.231,3.231,0,0,0-1.375-1.755c-1.417-.679-1.356,1.356-4.65-.219-3.295-1.54-2.892-.468-3.975,0-1.068.492-1.943,1.091-4.232-.119s-2.215.4-2.488.4-2.761,1.409-3.752-1.678a3.439,3.439,0,0,1,2.961-4.574c1.068,0,2.02,1.471,3.426.4,1.409-1.083,1.951-.872,4.04-.48,2.081.415,2.293-.184,3.234-.664.925-.468,3.425-2.358,5.3.142s.338,3.156,1.214,3.7,2.02,1.617,2.081,2.35a8.353,8.353,0,0,1,.323,2.484.221.221,0,0,0,.223.265h1.678a.149.149,0,0,1,.142.238l-.991,1.836A.494.494,0,0,1,25.159-66.229Z" transform="translate(0 78.602)"/>
</symbol></svg>