<svg xmlns="http://www.w3.org/2000/svg" width="2195.042" height="2792.333" viewBox="0 0 2195.042 2792.333"><g transform="translate(285.65 2792.333) rotate(-90)"><path d="M2654.506,1909.392H1545.351a137.666,137.666,0,0,1-137.711-137.72V662.525c0-421.088-219.6-672.629-587.325-672.629-450.129,0-544.659,365.784-544.659,672.629v639.937a137.679,137.679,0,0,1-137.723,137.72C61.732,1440.182,0,1378.555,0,1302.462V662.525C0,68.777,306.734-285.65,820.315-285.65c524.2,0,862.863,372.108,862.863,948.175v971.323h971.328a137.772,137.772,0,1,1,0,275.544Z" transform="translate(0 0)" fill="rgba(101,199,199,0.08)"/></g></svg>