<svg xmlns="http://www.w3.org/2000/svg" width="2918.273" height="1753.629" viewBox="0 0 2918.273 1753.629"><path d="M0-543.343v-511.163c0-474.3,292.779-757.455,782.994-757.455,500.341,0,823.609,297.291,823.609,757.455v776.033H2786.717c72.629,0,131.557,49.224,131.557,110.042,0,60.759-58.928,110.1-131.557,110.1H1475.146c-72.733,0-131.556-49.341-131.556-110.1v-886.075c0-336.456-209.605-537.312-560.6-537.312-429.654,0-519.88,292.2-519.88,537.312v511.163c0,60.878-58.926,110.1-131.557,110.1S0-482.465,0-543.343Z" transform="translate(0 1811.96)" fill="rgba(246,141,41,0.08)"/></svg>