<svg xmlns="http://www.w3.org/2000/svg" width="96.83" height="96.825" viewBox="0 0 96.83 96.825"><g transform="translate(-912 -15245.646)"><g transform="translate(66.947 -3)"><path d="M417.014-16.369H337.992a4.905,4.905,0,0,0-4.9,4.9V67.555a4.905,4.905,0,0,0,4.9,4.9h42.549V38.106H369V24.661h11.537V14.766c0-11.473,7-17.72,17.238-17.72a94.929,94.929,0,0,1,10.343.528V9.565l-7.059,0c-5.57,0-6.644,2.646-6.644,6.53v8.564h13.31L406,38.106H394.419V72.457h22.595a4.905,4.905,0,0,0,4.9-4.9V-11.466A4.9,4.9,0,0,0,417.014-16.369Z" transform="translate(515.965 15271.544)" fill="#68b1e1"/><path d="M417.014-16.833H337.992a4.905,4.905,0,0,0-4.9,4.9V67.091a4.905,4.905,0,0,0,4.9,4.9h42.549V37.643H369V24.2h11.537V14.3c0-11.473,7-17.721,17.238-17.721a94.878,94.878,0,0,1,10.343.529V9.1l-7.059,0c-5.57,0-6.644,2.646-6.644,6.53V24.2h13.31L406,37.643H394.419v34.35h22.595a4.9,4.9,0,0,0,4.9-4.9V-11.93A4.905,4.905,0,0,0,417.014-16.833Z" transform="translate(515.965 15269.479)" fill="none" stroke="#000" stroke-linejoin="round" stroke-width="8"/></g></g></svg>